SplineFontDB: 1.0
FontName: THBaijam-BoldItalic
FullName: THBaijam-BoldItalic
FamilyName: TH Baijam
Weight: Bold
Copyright: Copyright (c) 2006 by Department of Intellectual Property (DIP), Ministry of Commerce and Software Industry Promotion Agency (Public Organization) (SIPA). All rights reserved.
Version: 1.1
ItalicAngle: -12
UnderlinePosition: -35
UnderlineWidth: 30
Ascent: 800
Descent: 200
Order2: 1
XUID: [1021 375 425136265 3687687]
FSType: 0
OS2Version: 3
OS2_WeightWidthSlopeOnly: 0
OS2_UseTypoMetrics: 1
CreationTime: 1154329018
ModificationTime: 1174462266
PfmFamily: 17
TTFWeight: 700
TTFWidth: 5
LineGap: 30
VLineGap: 0
Panose: 2 0 5 6 0 0 0 2 0 4
OS2TypoAscent: 0
OS2TypoAOffset: 1
OS2TypoDescent: 0
OS2TypoDOffset: 1
OS2TypoLinegap: 0
OS2WinAscent: 0
OS2WinAOffset: 1
OS2WinDescent: -104
OS2WinDOffset: 1
HheadAscent: 0
HheadAOffset: 1
HheadDescent: 104
HheadDOffset: 1
OS2SubXSize: 700
OS2SubYSize: 650
OS2SubXOff: 0
OS2SubYOff: 140
OS2SupXSize: 700
OS2SupYSize: 650
OS2SupXOff: 0
OS2SupYOff: 477
OS2StrikeYSize: 30
OS2StrikeYPos: 250
OS2FamilyClass: 773
OS2Vendor: 'IPTH'
ScriptLang: 2
 1 latn 1 dflt 
 0 
ChainSub: coverage 0 0 'liga' 0 0 0 1
 1 0 1
  Coverage: 64 uni0E48.alt2 uni0E49.alt2 uni0E4A.alt2 uni0E4B.alt2 uni0E4C.alt2
  FCoverage: 7 uni0E33
 1
  SeqLookup: 0 'L027'
EndFPST
ChainSub: coverage 0 0 'liga' 0 0 0 1
 1 1 0
  Coverage: 7 uni0E47
  BCoverage: 12 uni0E2C.alt1
 1
  SeqLookup: 0 'L026'
EndFPST
ChainSub: coverage 0 0 'liga' 0 0 0 1
 1 0 1
  Coverage: 7 uni0E2C
  FCoverage: 39 uni0E34 uni0E35 uni0E36 uni0E37 uni0E47
 1
  SeqLookup: 0 'L026'
EndFPST
ChainSub: coverage 0 0 'liga' 0 0 0 1
 1 0 1
  Coverage: 15 uni0E0E uni0E0F
  FCoverage: 38 uni0E38.alt1 uni0E39.alt1 uni0E3A.alt1
 1
  SeqLookup: 0 'L026'
EndFPST
ChainSub: coverage 0 0 'liga' 0 0 0 1
 1 1 0
  Coverage: 5 a b c
  BCoverage: 23 uni0E1B uni0E1D uni0E1F
 1
  SeqLookup: 0 'L026'
EndFPST
ChainSub: coverage 0 0 'liga' 0 0 0 1
 1 0 1
  Coverage: 5 a b c

StartChar: .notdef
Encoding: 65536 -1 0
Width: 540
Flags: W
Fore
408 68 m 1,0,-1
 530 644 l 1,1,-1
 274 644 l 1,2,-1
 152 68 l 1,3,-1
 408 68 l 1,0,-1
473 0 m 1,4,-1
 60 0 l 1,5,-1
 210 709 l 1,6,-1
 623 709 l 1,7,-1
 473 0 l 1,4,-1
EndSplineSet
EndChar
StartChar: numbersign
Encoding: 35 35 4
Width: 473
Flags: W
Fore
317 131 m 1,0,-1
 213 131 l 1,1,-1
 186 0 l 1,2,-1
 115 0 l 1,3,-1
 142 131 l 1,4,-1
 61 131 l 1,5,-1
 73 187 l 1,6,-1
 154 187 l 1,7,-1
 180 308 l 1,8,-1
 99 308 l 1,9,-1
 111 365 l 1,10,-1
 192 365 l 1,11,-1
 217 484 l 1,12,-1
 288 484 l 1,13,-1
 263 365 l 1,14,-1
 367 365 l 1,15,-1
 392 484 l 1,16,-1
 462 484 l 1,17,-1
 437 365 l 1,18,-1
 511 365 l 1,19,-1
 499 308 l 1,20,-1
 425 308 l 1,21,-1
 399 187 l 1,22,-1
 473 187 l 1,23,-1
 461 131 l 1,24,-1
 387 131 l 1,25,-1
 360 0 l 1,26,-1
 290 0 l 1,27,-1
 317 131 l 1,0,-1
225 187 m 1,28,-1
 329 187 l 1,29,-1
 355 308 l 1,30,-1
 251 308 l 1,31,-1
 225 187 l 1,28,-1
EndSplineSet
EndChar
StartChar: dollar
Encoding: 36 36 5
Width: 395
Flags: W
Fore
166 0 m 1,0,-1
 141 0 l 2,1,2
 114 0 114 0 92.5 8 c 128,-1,3
 71 16 71 16 56.5 31 c 128,-1,4
 42 46 42 46 36.5 67.5 c 128,-1,5
 31 89 31 89 37 115 c 1,6,-1
 110 115 l 1,7,8
 104 88 104 88 117.5 74 c 128,-1,9
 131 60 131 60 153 60 c 2,10,-1
 178 60 l 1,11,-1
 214 229 l 1,12,-1
 170 248 l 2,13,14
 123 271 123 271 111 302 c 128,-1,15
 99 333 99 333 106 365 c 0,16,17
 112 392 112 392 128 413.5 c 128,-1,18
 144 435 144 435 166.5 451 c 128,-1,19
 189 467 189 467 215.5 475.5 c 128,-1,20
 242 484 242 484 268 484 c 1,21,-1
 279 534 l 1,22,-1
 350 534 l 1,23,-1
 339 484 l 1,24,25
 393 484 393 484 423.5 453.5 c 128,-1,26
 454 423 454 423 443 369 c 1,27,-1
 369 369 l 1,28,29
 375 396 375 396 362.5 410.5 c 128,-1,30
 350 425 350 425 327 425 c 1,31,-1
 292 261 l 1,32,33
 314 251 l 128,-1,34
 336 241 l 0,35,36
 361 229 361 229 375.5 217 c 128,-1,37
 390 205 390 205 397 190.5 c 128,-1,38
 404 176 404 176 404 160 c 128,-1,39
 404 144 404 144 400 125 c 0,40,41
 395 102 395 102 379.5 80 c 128,-1,42
 364 58 364 58 342 40 c 128,-1,43
 320 22 320 22 292.5 11 c 128,-1,44
 265 0 265 0 237 0 c 1,45,-1
 225 -52 l 1,46,-1
 154 -52 l 1,47,-1
 166 0 l 1,0,-1
279 200 m 1,48,-1
 249 60 l 1,49,50
 256 60 256 60 268.5 65.5 c 128,-1,51
 281 71 281 71 293 80 c 128,-1,52
 305 89 305 89 314.5 100.5 c 128,-1,53
 324 112 324 112 327 124 c 0,54,55
 332 150 332 150 327 164 c 128,-1,56
 322 178 322 178 302 188 c 1,57,-1
 303 188 l 1,58,-1
 279 200 l 1,48,-1
180 366 m 0,59,60
 176 347 176 347 178 329.5 c 128,-1,61
 180 312 180 312 202 301 c 0,62,63
 208 298 208 298 214 296 c 128,-1,64
 220 294 220 294 227 290 c 1,65,-1
 256 425 l 1,66,67
 244 425 244 425 232 420.5 c 128,-1,68
 220 416 220 416 209 408 c 128,-1,69
 198 400 198 400 190.5 389 c 128,-1,70
 183 378 183 378 180 366 c 0,59,60
EndSplineSet
EndChar
StartChar: percent
Encoding: 37 37 6
Width: 626
Flags: W
Fore
127 -16 m 1,0,-1
 509 500 l 1,1,-1
 581 500 l 1,2,-1
 201 -16 l 1,3,-1
 127 -16 l 1,0,-1
230 459 m 2,4,5
 212 459 212 459 194 451.5 c 128,-1,6
 176 444 176 444 161 432 c 128,-1,7
 146 420 146 420 135.5 404 c 128,-1,8
 125 388 125 388 122 372 c 2,9,-1
 104 289 l 2,10,11
 96 254 96 254 114 234.5 c 128,-1,12
 132 215 132 215 172 215 c 2,13,-1
 195 215 l 2,14,15
 214 215 214 215 232 222 c 128,-1,16
 250 229 250 229 265 241 c 128,-1,17
 280 253 280 253 291 268.5 c 128,-1,18
 302 284 302 284 305 301 c 2,19,-1
 324 387 l 2,20,21
 331 421 331 421 313.5 440 c 128,-1,22
 296 459 296 459 254 459 c 2,23,-1
 230 459 l 2,4,5
189 364 m 2,24,25
 192 379 192 379 204 391 c 128,-1,26
 216 403 216 403 231 403 c 1,27,-1
 238 399 l 1,28,29
 262 399 262 399 257 373 c 2,30,-1
 239 308 l 2,31,32
 236 294 236 294 223.5 283 c 128,-1,33
 211 272 211 272 197 272 c 2,34,-1
 193 272 l 2,35,36
 169 272 169 272 175 299 c 2,37,-1
 189 364 l 2,24,25
486 247 m 2,38,39
 468 247 468 247 450 239.5 c 128,-1,40
 432 232 432 232 417.5 219.5 c 128,-1,41
 403 207 403 207 392.5 191.5 c 128,-1,42
 382 176 382 176 379 160 c 2,43,-1
 361 76 l 2,44,45
 353 43 353 43 370.5 23.5 c 128,-1,46
 388 4 388 4 428 4 c 2,47,-1
 450 4 l 2,48,49
 469 4 469 4 487.5 11 c 128,-1,50
 506 18 506 18 521 29.5 c 128,-1,51
 536 41 536 41 547 56.5 c 128,-1,52
 558 72 558 72 561 89 c 2,53,-1
 580 175 l 2,54,55
 587 209 587 209 569.5 228 c 128,-1,56
 552 247 552 247 510 247 c 2,57,-1
 486 247 l 2,38,39
445 152 m 2,58,59
 448 167 448 167 460 179 c 128,-1,60
 472 191 472 191 486 191 c 2,61,-1
 490 191 l 2,62,63
 515 191 515 191 510 166 c 2,64,-1
 495 97 l 2,65,66
 492 82 492 82 479.5 71 c 128,-1,67
 467 60 467 60 453 60 c 2,68,-1
 449 60 l 2,69,70
 425 60 425 60 431 87 c 2,71,-1
 445 152 l 2,58,59
EndSplineSet
EndChar
StartChar: ampersand
Encoding: 38 38 7
Width: 472
Flags: W
Fore
456 224 m 1,0,1
 449 191 449 191 432 157.5 c 128,-1,2
 415 124 415 124 391 95 c 1,3,4
 402 77 402 77 413.5 60.5 c 128,-1,5
 425 44 425 44 434 30 c 2,6,-1
 454 0 l 1,7,-1
 370 1 l 1,8,9
 366 5 366 5 361 11 c 0,10,11
 356 16 356 16 350.5 24 c 128,-1,12
 345 32 345 32 338 44 c 1,13,14
 308 21 308 21 273 7.5 c 128,-1,15
 238 -6 238 -6 201 -6 c 2,16,-1
 171 -6 l 2,17,18
 145 -6 145 -6 122 5.5 c 128,-1,19
 99 17 99 17 83 35.5 c 128,-1,20
 67 54 67 54 60 77.5 c 128,-1,21
 53 101 53 101 58 125 c 2,22,-1
 63 147 l 2,23,24
 67 166 67 166 79 183.5 c 128,-1,25
 91 201 91 201 108.5 216 c 128,-1,26
 126 231 126 231 147.5 243.5 c 128,-1,27
 169 256 169 256 192 267 c 1,28,-1
 182 282 l 2,29,30
 171 297 171 297 164 316 c 128,-1,31
 157 335 157 335 162 358 c 2,32,-1
 163 365 l 2,33,34
 168 390 168 390 183 411.5 c 128,-1,35
 198 433 198 433 219 449 c 128,-1,36
 240 465 240 465 265.5 474.5 c 128,-1,37
 291 484 291 484 318 484 c 2,38,-1
 345 484 l 2,39,40
 391 484 391 484 416.5 456 c 128,-1,41
 442 428 442 428 434 386 c 2,42,-1
 431 376 l 2,43,44
 421 329 421 329 380.5 300 c 128,-1,45
 340 271 340 271 288 251 c 1,46,-1
 298 236 l 2,47,48
 312 213 312 213 323.5 195 c 128,-1,49
 335 177 335 177 352 152 c 1,50,51
 362 169 362 169 370 188 c 128,-1,52
 378 207 378 207 382 224 c 1,53,-1
 456 224 l 1,0,1
221 223 m 1,54,55
 192 208 192 208 167 189 c 128,-1,56
 142 170 142 170 137 147 c 2,57,-1
 132 125 l 2,58,59
 129 113 129 113 132.5 100.5 c 128,-1,60
 136 88 136 88 143.5 77.5 c 128,-1,61
 151 67 151 67 161.5 60.5 c 128,-1,62
 172 54 172 54 184 54 c 2,63,-1
 214 54 l 2,64,65
 237 54 237 54 261 66 c 128,-1,66
 285 78 285 78 305 97 c 1,67,-1
 221 223 l 1,54,55
272 303 m 2,68,69
 304 316 304 316 329 333 c 128,-1,70
 354 350 354 350 359 376 c 2,71,-1
 361 385 l 2,72,73
 365 402 365 402 356 414.5 c 128,-1,74
 347 427 347 427 331 427 c 2,75,-1
 306 427 l 2,76,77
 282 427 282 427 262 409 c 128,-1,78
 242 391 242 391 236 365 c 2,79,-1
 235 359 l 2,80,81
 233 350 233 350 235.5 342 c 128,-1,82
 238 334 238 334 241 328 c 2,83,-1
 247 314 l 1,84,85
 247 313 247 313 258 297 c 1,86,-1
 259 297 l 1,87,-1
 272 303 l 2,68,69
EndSplineSet
EndChar
StartChar: quotesingle
Encoding: 39 39 8
Width: 142
Flags: W
Fore
138 515 m 1,0,-1
 214 515 l 1,1,-1
 180 355 l 1,2,-1
 104 355 l 1,3,-1
 138 515 l 1,0,-1
EndSplineSet
KernsSLIFO: 135 -70 0 0 34 -70 0 0
EndChar
StartChar: parenleft
Encoding: 40 40 9
Width: 240
Flags: W
Fore
111 -136 m 1,0,1
 80 -64 80 -64 70.5 14.5 c 128,-1,2
 61 93 61 93 78 174 c 0,3,4
 97 259 97 259 137 335 c 128,-1,5
 177 411 177 411 242 484 c 1,6,-1
 321 484 l 1,7,8
 253 409 253 409 211 333 c 128,-1,9
 169 257 169 257 151 174 c 0,10,11
 134 94 134 94 145.5 15 c 128,-1,12
 157 -64 157 -64 189 -136 c 1,13,-1
 111 -136 l 1,0,1
EndSplineSet
KernsSLIFO: 75 70 0 0
EndChar
StartChar: parenright
Encoding: 41 41 10
Width: 240
Flags: W
Fore
7 -136 m 1,0,1
 69 -63 69 -63 114 15.5 c 128,-1,2
 159 94 159 94 176 174 c 0,3,4
 194 258 194 258 183.5 333.5 c 128,-1,5
 173 409 173 409 137 484 c 1,6,-1
 216 484 l 1,7,8
 251 411 251 411 259 335 c 128,-1,9
 267 259 267 259 248 174 c 0,10,11
 231 93 231 93 188.5 14.5 c 128,-1,12
 146 -64 146 -64 85 -136 c 1,13,-1
 7 -136 l 1,0,1
EndSplineSet
EndChar
StartChar: asterisk
Encoding: 42 42 11
Width: 342
Flags: W
Fore
235 476 m 1,0,-1
 253 563 l 1,1,-1
 316 563 l 1,2,-1
 298 477 l 1,3,-1
 385 521 l 1,4,5
 388 513 388 513 392 506 c 0,6,7
 398 492 l 128,-1,8
 401 485 401 485 405 477 c 1,9,-1
 312 430 l 1,10,-1
 385 384 l 1,11,-1
 347 338 l 1,12,-1
 277 381 l 1,13,-1
 260 297 l 1,14,-1
 197 297 l 1,15,-1
 215 382 l 1,16,-1
 128 339 l 1,17,-1
 109 385 l 1,18,-1
 200 430 l 1,19,-1
 128 475 l 1,20,21
 135 482 135 482 141 490 c 0,22,23
 146 497 146 497 152.5 504.5 c 128,-1,24
 159 512 159 512 166 520 c 1,25,-1
 235 476 l 1,0,-1
EndSplineSet
EndChar
StartChar: plus
Encoding: 43 43 12
Width: 414
Flags: W
Fore
281 197 m 1,0,-1
 253 65 l 1,1,-1
 182 65 l 1,2,-1
 210 197 l 1,3,-1
 73 197 l 1,4,-1
 85 254 l 1,5,-1
 222 254 l 1,6,-1
 250 385 l 1,7,-1
 321 385 l 1,8,-1
 293 254 l 1,9,-1
 429 254 l 1,10,-1
 417 197 l 1,11,-1
 281 197 l 1,0,-1
EndSplineSet
EndChar
StartChar: comma
Encoding: 44 44 13
Width: 173
Flags: W
Fore
77 77 m 1,0,-1
 146 77 l 1,1,-1
 139 43 l 2,2,3
 133 17 133 17 122.5 -1 c 128,-1,4
 112 -19 112 -19 99.5 -32.5 c 128,-1,5
 87 -46 87 -46 73 -55 c 128,-1,6
 59 -64 59 -64 47 -71 c 2,7,-1
 22 -86 l 1,8,-1
 -1 -39 l 1,9,-1
 21 -23 l 2,10,11
 35 -14 35 -14 49 0 c 128,-1,12
 63 14 63 14 70 43 c 2,13,-1
 77 77 l 1,0,-1
EndSplineSet
KernsSLIFO: 24 -50 0 0
EndChar
StartChar: hyphen
Encoding: 45 45 14
Width: 261
Flags: W
Fore
61 185 m 1,0,-1
 74 246 l 1,1,-1
 286 246 l 1,2,-1
 273 185 l 1,3,-1
 61 185 l 1,0,-1
EndSplineSet
EndChar
StartChar: period
Encoding: 46 46 15
Width: 202
Flags: W
Fore
62 38 m 0,0,1
 66 56 66 56 81.5 67.5 c 128,-1,2
 97 79 97 79 119 79 c 256,3,4
 141 79 141 79 153 67.5 c 128,-1,5
 165 56 165 56 161 38 c 0,6,7
 156 19 156 19 139.5 7 c 128,-1,8
 123 -5 123 -5 101 -5 c 256,9,10
 79 -5 79 -5 68 7 c 128,-1,11
 57 19 57 19 62 38 c 0,0,1
EndSplineSet
KernsSLIFO: 24 -50 0 0
EndChar
StartChar: slash
Encoding: 47 47 16
Width: 329
Flags: W
Fore
-14 -16 m 1,0,-1
 366 500 l 1,1,-1
 439 500 l 1,2,-1
 60 -16 l 1,3,-1
 -14 -16 l 1,0,-1
EndSplineSet
EndChar
StartChar: zero
Encoding: 48 48 17
Width: 414
Flags: W
Fore
328 490 m 2,0,1
 404 490 404 490 436 450 c 128,-1,2
 468 410 468 410 454 345 c 2,3,-1
 416 169 l 2,4,5
 409 136 409 136 388.5 104.5 c 128,-1,6
 368 73 368 73 339 48.5 c 128,-1,7
 310 24 310 24 275 9.5 c 128,-1,8
 240 -5 240 -5 205 -5 c 2,9,-1
 182 -5 l 2,10,11
 107 -5 107 -5 75.5 35.5 c 128,-1,12
 44 76 44 76 58 142 c 2,13,-1
 94 312 l 2,14,15
 101 345 101 345 121 376.5 c 128,-1,16
 141 408 141 408 169.5 433.5 c 128,-1,17
 198 459 198 459 232 474.5 c 128,-1,18
 266 490 266 490 300 490 c 2,19,-1
 328 490 l 2,0,1
131 142 m 2,20,21
 123 103 123 103 138 76.5 c 128,-1,22
 153 50 153 50 193 50 c 2,23,-1
 210 50 l 2,24,25
 231 50 231 50 253 60.5 c 128,-1,26
 275 71 275 71 293.5 88.5 c 128,-1,27
 312 106 312 106 325.5 127 c 128,-1,28
 339 148 339 148 343 169 c 2,29,-1
 381 345 l 2,30,31
 389 384 389 384 373 409.5 c 128,-1,32
 357 435 357 435 317 435 c 2,33,-1
 300 435 l 2,34,35
 278 435 278 435 256.5 424 c 128,-1,36
 235 413 235 413 216.5 395.5 c 128,-1,37
 198 378 198 378 184.5 356 c 128,-1,38
 171 334 171 334 167 312 c 2,39,-1
 131 142 l 2,20,21
EndSplineSet
EndChar
StartChar: one
Encoding: 49 49 18
Width: 284
Flags: W
Fore
138 0 m 1,0,-1
 211 347 l 1,1,2
 188 335 188 335 158 329.5 c 128,-1,3
 128 324 128 324 95 323 c 1,4,-1
 107 378 l 1,5,6
 128 378 128 378 150 387 c 128,-1,7
 172 396 172 396 190.5 410.5 c 128,-1,8
 209 425 209 425 222 444 c 128,-1,9
 235 463 235 463 240 484 c 1,10,-1
 313 484 l 1,11,-1
 211 0 l 1,12,-1
 138 0 l 1,0,-1
EndSplineSet
EndChar
StartChar: two
Encoding: 50 50 19
Width: 421
Flags: W
Fore
326 498 m 2,0,1
 403 498 403 498 436 461 c 128,-1,2
 469 424 469 424 455 358 c 0,3,4
 451 341 451 341 445 327 c 128,-1,5
 439 313 439 313 429 300 c 128,-1,6
 419 287 419 287 403 274 c 128,-1,7
 387 261 387 261 364 246 c 2,8,-1
 167 124 l 2,9,10
 144 110 144 110 132.5 91 c 128,-1,11
 121 72 121 72 116 55 c 1,12,-1
 398 55 l 1,13,-1
 387 0 l 1,14,-1
 28 0 l 1,15,-1
 39 52 l 2,16,17
 47 87 47 87 69 116.5 c 128,-1,18
 91 146 91 146 123 166 c 2,19,-1
 346 305 l 2,20,21
 357 311 357 311 367.5 327 c 128,-1,22
 378 343 378 343 382 358 c 0,23,24
 399 443 399 443 317 443 c 2,25,-1
 300 443 l 2,26,27
 269 443 269 443 235 424.5 c 128,-1,28
 201 406 201 406 173 380 c 1,29,-1
 128 420 l 1,30,31
 166 456 166 456 213 477 c 128,-1,32
 260 498 260 498 311 498 c 2,33,-1
 326 498 l 2,0,1
EndSplineSet
EndChar
StartChar: three
Encoding: 51 51 20
Width: 426
Flags: W
Fore
200 307 m 1,0,-1
 310 307 l 2,1,2
 331 309 331 309 347.5 322 c 128,-1,3
 364 335 364 335 369 358 c 0,4,5
 386 443 386 443 305 443 c 2,6,-1
 287 443 l 2,7,8
 256 443 256 443 222.5 424.5 c 128,-1,9
 189 406 189 406 160 380 c 1,10,-1
 116 420 l 1,11,12
 153 456 153 456 200 477 c 128,-1,13
 247 498 247 498 298 498 c 2,14,-1
 315 498 l 2,15,16
 390 498 390 498 423.5 461 c 128,-1,17
 457 424 457 424 443 358 c 0,18,19
 432 311 432 311 394 282 c 1,20,21
 417 261 417 261 425.5 230.5 c 128,-1,22
 434 200 434 200 428 170 c 0,23,24
 420 131 420 131 398 99 c 128,-1,25
 376 67 376 67 345 44 c 128,-1,26
 314 21 314 21 275.5 8.5 c 128,-1,27
 237 -4 237 -4 195 -4 c 0,28,29
 134 -4 134 -4 96.5 18 c 128,-1,30
 59 40 59 40 33 85 c 1,31,-1
 94 128 l 1,32,33
 115 95 115 95 142 73 c 128,-1,34
 169 51 169 51 207 51 c 0,35,36
 231 51 231 51 255 60.5 c 128,-1,37
 279 70 279 70 299.5 86 c 128,-1,38
 320 102 320 102 334.5 124 c 128,-1,39
 349 146 349 146 354 170 c 0,40,41
 357 186 357 186 354.5 200.5 c 128,-1,42
 352 215 352 215 343.5 226.5 c 128,-1,43
 335 238 335 238 322.5 245 c 128,-1,44
 310 252 310 252 294 252 c 2,45,-1
 188 252 l 1,46,-1
 200 307 l 1,0,-1
EndSplineSet
EndChar
StartChar: four
Encoding: 52 52 21
Width: 424
Flags: W
Fore
262 0 m 1,0,-1
 282 97 l 1,1,-1
 108 97 l 2,2,3
 49 97 49 97 59 147 c 1,4,-1
 369 484 l 1,5,-1
 437 484 l 1,6,-1
 367 152 l 1,7,-1
 430 152 l 1,8,-1
 418 97 l 1,9,-1
 355 97 l 1,10,-1
 335 0 l 1,11,-1
 262 0 l 1,0,-1
338 359 m 1,12,13
 313 332 313 332 290 306.5 c 128,-1,14
 267 281 267 281 244.5 256 c 128,-1,15
 222 231 222 231 198.5 205.5 c 128,-1,16
 175 180 175 180 150 152 c 1,17,-1
 294 152 l 1,18,-1
 338 359 l 1,12,13
EndSplineSet
EndChar
StartChar: five
Encoding: 53 53 22
Width: 436
Flags: W
Fore
467 430 m 1,0,-1
 236 430 l 1,1,-1
 210 307 l 1,2,-1
 329 307 l 2,3,4
 359 307 359 307 382 295 c 128,-1,5
 405 283 405 283 419 264 c 128,-1,6
 433 245 433 245 438 220 c 128,-1,7
 443 195 443 195 438 170 c 0,8,9
 430 131 430 131 408 99 c 128,-1,10
 386 67 386 67 355 44 c 128,-1,11
 324 21 324 21 285.5 8.5 c 128,-1,12
 247 -4 247 -4 206 -4 c 0,13,14
 146 -4 146 -4 108.5 18 c 128,-1,15
 71 40 71 40 45 85 c 1,16,-1
 105 128 l 1,17,18
 126 95 126 95 153 73 c 128,-1,19
 180 51 180 51 218 51 c 0,20,21
 242 51 242 51 266 60.5 c 128,-1,22
 290 70 290 70 310 86 c 128,-1,23
 330 102 330 102 344.5 124 c 128,-1,24
 359 146 359 146 364 170 c 0,25,26
 367 186 367 186 364.5 200.5 c 128,-1,27
 362 215 362 215 353.5 226.5 c 128,-1,28
 345 238 345 238 332.5 245 c 128,-1,29
 320 252 320 252 304 252 c 2,30,-1
 124 252 l 1,31,-1
 173 484 l 1,32,-1
 478 484 l 1,33,-1
 467 430 l 1,0,-1
EndSplineSet
EndChar
StartChar: six
Encoding: 54 54 23
Width: 431
Flags: W
Fore
304 310 m 2,0,1
 381 310 381 310 414 274 c 128,-1,2
 447 238 447 238 433 172 c 2,3,-1
 432 165 l 2,4,5
 425 132 425 132 404.5 101 c 128,-1,6
 384 70 384 70 354.5 47 c 128,-1,7
 325 24 325 24 290.5 10 c 128,-1,8
 256 -4 256 -4 220 -4 c 2,9,-1
 198 -4 l 2,10,11
 141 -4 141 -4 110.5 18 c 128,-1,12
 80 40 80 40 70 77 c 0,13,14
 63 102 63 102 65.5 135.5 c 128,-1,15
 68 169 68 169 73 197 c 2,16,-1
 96 302 l 2,17,18
 105 343 105 343 128.5 378.5 c 128,-1,19
 152 414 152 414 186 440.5 c 128,-1,20
 220 467 220 467 260.5 482.5 c 128,-1,21
 301 498 301 498 344 498 c 0,22,23
 412 498 412 498 457 459 c 1,24,-1
 407 407 l 1,25,26
 391 421 391 421 372 432 c 128,-1,27
 353 443 353 443 333 443 c 0,28,29
 306 443 306 443 279 432 c 128,-1,30
 252 421 252 421 229.5 402 c 128,-1,31
 207 383 207 383 191 357.5 c 128,-1,32
 175 332 175 332 169 303 c 2,33,-1
 162 270 l 1,34,35
 188 291 188 291 215.5 300.5 c 128,-1,36
 243 310 243 310 277 310 c 2,37,-1
 304 310 l 2,0,1
146 140 m 0,38,39
 138 98 138 98 153 74.5 c 128,-1,40
 168 51 168 51 208 51 c 2,41,-1
 226 51 l 2,42,43
 247 51 247 51 269 61 c 128,-1,44
 291 71 291 71 309 87 c 128,-1,45
 327 103 327 103 340 123.5 c 128,-1,46
 353 144 353 144 358 165 c 2,47,-1
 359 172 l 2,48,49
 367 211 367 211 351 233 c 128,-1,50
 335 255 335 255 295 255 c 2,51,-1
 277 255 l 2,52,53
 255 255 255 255 234 245.5 c 128,-1,54
 213 236 213 236 195 220 c 128,-1,55
 177 204 177 204 164 183 c 128,-1,56
 151 162 151 162 146 140 c 0,38,39
EndSplineSet
EndChar
StartChar: seven
Encoding: 55 55 24
Width: 400
Flags: W
Fore
123 486 m 1,0,-1
 478 486 l 1,1,-1
 470 447 l 1,2,-1
 255 144 l 2,3,4
 234 112 234 112 218.5 75 c 128,-1,5
 203 38 203 38 195 0 c 1,6,-1
 120 0 l 1,7,8
 130 36 130 36 143.5 75 c 128,-1,9
 157 114 157 114 180 149 c 0,10,11
 190 164 190 164 202 182.5 c 128,-1,12
 214 201 214 201 235 232 c 128,-1,13
 256 263 256 263 289 310 c 128,-1,14
 322 357 322 357 375 431 c 1,15,-1
 111 431 l 1,16,-1
 123 486 l 1,0,-1
EndSplineSet
KernsSLIFO: 15 -70 0 0 13 -70 0 0
EndChar
StartChar: eight
Encoding: 56 56 25
Width: 427
Flags: W
Fore
451 361 m 0,0,1
 446 336 446 336 424 309.5 c 128,-1,2
 402 283 402 283 378 266 c 1,3,4
 406 249 406 249 419 217.5 c 128,-1,5
 432 186 432 186 425 151 c 0,6,7
 416 112 416 112 395 82.5 c 128,-1,8
 374 53 374 53 343 33.5 c 128,-1,9
 312 14 312 14 274.5 4.5 c 128,-1,10
 237 -5 237 -5 195 -5 c 2,11,-1
 182 -5 l 2,12,13
 149 -5 149 -5 122.5 4.5 c 128,-1,14
 96 14 96 14 78.5 31.5 c 128,-1,15
 61 49 61 49 54.5 74 c 128,-1,16
 48 99 48 99 55 131 c 0,17,18
 62 162 62 162 88.5 196.5 c 128,-1,19
 115 231 115 231 150 255 c 1,20,21
 130 271 130 271 122 293 c 128,-1,22
 114 315 114 315 121 345 c 0,23,24
 127 375 127 375 145.5 401.5 c 128,-1,25
 164 428 164 428 189.5 448 c 128,-1,26
 215 468 215 468 245.5 479.5 c 128,-1,27
 276 491 276 491 307 491 c 2,28,-1
 333 491 l 2,29,30
 403 491 403 491 433.5 456.5 c 128,-1,31
 464 422 464 422 451 361 c 0,0,1
257 234 m 2,32,33
 235 234 235 234 213.5 223.5 c 128,-1,34
 192 213 192 213 174 197.5 c 128,-1,35
 156 182 156 182 143.5 164 c 128,-1,36
 131 146 131 146 128 131 c 0,37,38
 120 93 120 93 139 71.5 c 128,-1,39
 158 50 158 50 193 50 c 2,40,-1
 206 50 l 2,41,42
 256 50 256 50 298 76 c 128,-1,43
 340 102 340 102 351 151 c 0,44,45
 354 167 354 167 350.5 182 c 128,-1,46
 347 197 347 197 338 208.5 c 128,-1,47
 329 220 329 220 316.5 227 c 128,-1,48
 304 234 304 234 291 234 c 2,49,-1
 257 234 l 2,32,33
280 289 m 2,50,51
 296 290 296 290 312.5 297 c 128,-1,52
 329 304 329 304 342.5 314.5 c 128,-1,53
 356 325 356 325 365 337.5 c 128,-1,54
 374 350 374 350 376 361 c 0,55,56
 384 395 384 395 370 415.5 c 128,-1,57
 356 436 356 436 321 436 c 2,58,-1
 306 436 l 2,59,60
 287 436 287 436 269 429 c 128,-1,61
 251 422 251 422 236 410 c 128,-1,62
 221 398 221 398 210 381.5 c 128,-1,63
 199 365 199 365 195 346 c 0,64,65
 191 328 191 328 196 317 c 128,-1,66
 201 306 201 306 209.5 300 c 128,-1,67
 218 294 218 294 228 291.5 c 128,-1,68
 238 289 238 289 244 289 c 2,69,-1
 280 289 l 2,50,51
EndSplineSet
EndChar
StartChar: nine
Encoding: 57 57 26
Width: 427
Flags: W
Fore
224 185 m 2,0,1
 148 185 148 185 115 220.5 c 128,-1,2
 82 256 82 256 96 322 c 2,3,-1
 97 328 l 2,4,5
 104 362 104 362 124.5 392.5 c 128,-1,6
 145 423 145 423 174 446.5 c 128,-1,7
 203 470 203 470 237.5 484 c 128,-1,8
 272 498 272 498 307 498 c 2,9,-1
 330 498 l 2,10,11
 387 498 387 498 417.5 476 c 128,-1,12
 448 454 448 454 458 416 c 1,13,-1
 458 417 l 1,14,15
 465 393 465 393 463 358.5 c 128,-1,16
 461 324 461 324 456 297 c 2,17,-1
 433 191 l 2,18,19
 424 150 424 150 400.5 114.5 c 128,-1,20
 377 79 377 79 343 52.5 c 128,-1,21
 309 26 309 26 268 11 c 128,-1,22
 227 -4 227 -4 184 -4 c 0,23,24
 149 -4 149 -4 121 6.5 c 128,-1,25
 93 17 93 17 71 35 c 1,26,-1
 122 86 l 1,27,28
 138 73 138 73 157 62 c 128,-1,29
 176 51 176 51 195 51 c 0,30,31
 222 51 222 51 249 62 c 128,-1,32
 276 73 276 73 298.5 92 c 128,-1,33
 321 111 321 111 337 136.5 c 128,-1,34
 353 162 353 162 359 191 c 2,35,-1
 366 223 l 1,36,37
 316 185 316 185 252 185 c 2,38,-1
 224 185 l 2,0,1
383 355 m 0,39,40
 391 395 391 395 375.5 419 c 128,-1,41
 360 443 360 443 320 443 c 2,42,-1
 303 443 l 2,43,44
 282 443 282 443 260 433 c 128,-1,45
 238 423 238 423 219.5 407 c 128,-1,46
 201 391 201 391 187.5 370 c 128,-1,47
 174 349 174 349 170 328 c 2,48,-1
 169 322 l 2,49,50
 152 240 152 240 235 240 c 2,51,-1
 252 240 l 2,52,53
 274 240 274 240 295 249.5 c 128,-1,54
 316 259 316 259 334 275 c 128,-1,55
 352 291 352 291 365 312 c 128,-1,56
 378 333 378 333 383 355 c 0,39,40
EndSplineSet
EndChar
StartChar: colon
Encoding: 58 58 27
Width: 222
Flags: W
Fore
78 60 m 256,0,1
 82 77 82 77 98.5 90 c 128,-1,2
 115 103 115 103 136 103 c 0,3,4
 158 103 158 103 169.5 90 c 128,-1,5
 181 77 181 77 177 60 c 256,6,7
 173 43 173 43 156.5 30 c 128,-1,8
 140 17 140 17 118 17 c 0,9,10
 97 17 97 17 85.5 30 c 128,-1,11
 74 43 74 43 78 60 c 256,0,1
130 302 m 0,12,13
 134 320 134 320 150.5 332.5 c 128,-1,14
 167 345 167 345 188 345 c 0,15,16
 210 345 210 345 221.5 332.5 c 128,-1,17
 233 320 233 320 229 302 c 0,18,19
 225 285 225 285 208.5 272.5 c 128,-1,20
 192 260 192 260 170 260 c 0,21,22
 149 260 149 260 137.5 272.5 c 128,-1,23
 126 285 126 285 130 302 c 0,12,13
EndSplineSet
EndChar
StartChar: semicolon
Encoding: 59 59 28
Width: 222
Flags: W
Fore
130 302 m 0,0,1
 134 320 134 320 150.5 332.5 c 128,-1,2
 167 345 167 345 188 345 c 0,3,4
 210 345 210 345 221 332.5 c 128,-1,5
 232 320 232 320 228 302 c 0,6,7
 224 285 224 285 208 272.5 c 128,-1,8
 192 260 192 260 170 260 c 0,9,10
 149 260 149 260 137.5 272.5 c 128,-1,11
 126 285 126 285 130 302 c 0,0,1
111 109 m 1,12,-1
 180 109 l 1,13,-1
 172 74 l 2,14,15
 166 44 166 44 153.5 24.5 c 128,-1,16
 141 5 141 5 125.5 -8.5 c 128,-1,17
 110 -22 110 -22 92.5 -32 c 128,-1,18
 75 -42 75 -42 59 -52 c 2,19,-1
 56 -54 l 1,20,-1
 31 -7 l 1,21,22
 42 2 42 2 52.5 8 c 128,-1,23
 63 14 63 14 73 22 c 128,-1,24
 83 30 83 30 90.5 42 c 128,-1,25
 98 54 98 54 103 74 c 2,26,-1
 111 109 l 1,12,-1
EndSplineSet
EndChar
StartChar: less
Encoding: 60 60 29
Width: 447
Flags: W
Fore
503 429 m 1,0,-1
 489 363 l 1,1,-1
 183 205 l 1,2,-1
 422 48 l 1,3,-1
 408 -17 l 1,4,-1
 66 205 l 1,5,-1
 503 429 l 1,0,-1
EndSplineSet
EndChar
StartChar: equal
Encoding: 61 61 30
Width: 381
Flags: W
Fore
48 121 m 1,0,-1
 61 182 l 1,1,-1
 375 182 l 1,2,-1
 362 121 l 1,3,-1
 48 121 l 1,0,-1
75 248 m 1,4,-1
 88 309 l 1,5,-1
 402 309 l 1,6,-1
 389 248 l 1,7,-1
 75 248 l 1,4,-1
EndSplineSet
EndChar
StartChar: greater
Encoding: 62 62 31
Width: 448
Flags: W
Fore
460 205 m 1,0,-1
 24 -17 l 1,1,-1
 38 48 l 1,2,-1
 342 205 l 1,3,-1
 105 363 l 1,4,-1
 119 429 l 1,5,-1
 460 205 l 1,0,-1
EndSplineSet
EndChar
StartChar: question
Encoding: 63 63 32
Width: 389
Flags: W
Fore
124 38 m 0,0,1
 128 56 128 56 144.5 67.5 c 128,-1,2
 161 79 161 79 182 79 c 256,3,4
 203 79 203 79 215 67.5 c 128,-1,5
 227 56 227 56 223 38 c 0,6,7
 218 19 218 19 201.5 7 c 128,-1,8
 185 -5 185 -5 164 -5 c 256,9,10
 143 -5 143 -5 131 7 c 128,-1,11
 119 19 119 19 124 38 c 0,0,1
103 443 m 1,12,13
 124 461 124 461 160 473.5 c 128,-1,14
 196 486 196 486 239 486 c 2,15,-1
 296 486 l 2,16,17
 328 486 328 486 355.5 477.5 c 128,-1,18
 383 469 383 469 401 452 c 128,-1,19
 419 435 419 435 427 410.5 c 128,-1,20
 435 386 435 386 428 353 c 0,21,22
 420 315 420 315 385.5 282 c 128,-1,23
 351 249 351 249 279 221 c 0,24,25
 267 216 267 216 258.5 207.5 c 128,-1,26
 250 199 250 199 244.5 189 c 128,-1,27
 239 179 239 179 235.5 169.5 c 128,-1,28
 232 160 232 160 231 154 c 2,29,-1
 221 108 l 1,30,-1
 148 108 l 1,31,-1
 158 154 l 2,32,33
 161 166 161 166 168 182.5 c 128,-1,34
 175 199 175 199 188.5 216 c 128,-1,35
 202 233 202 233 223.5 249.5 c 128,-1,36
 245 266 245 266 277 278 c 1,37,-1
 276 278 l 1,38,39
 316 295 316 295 333 313.5 c 128,-1,40
 350 332 350 332 355 353 c 0,41,42
 359 371 359 371 354.5 385 c 128,-1,43
 350 399 350 399 340 408 c 128,-1,44
 330 417 330 417 315 422 c 128,-1,45
 300 427 300 427 283 427 c 2,46,-1
 226 427 l 2,47,48
 199 427 199 427 170.5 413.5 c 128,-1,49
 142 400 142 400 121 383 c 1,50,-1
 103 443 l 1,12,13
EndSplineSet
EndChar
StartChar: at
Encoding: 64 64 33
Width: 647
Flags: W
Fore
429 294 m 2,0,1
 431 312 431 312 420.5 324.5 c 128,-1,2
 410 337 410 337 393 337 c 2,3,-1
 359 337 l 2,4,5
 332 337 332 337 309.5 317.5 c 128,-1,6
 287 298 287 298 281 269 c 2,7,-1
 264 192 l 2,8,9
 260 172 260 172 269.5 158.5 c 128,-1,10
 279 145 279 145 297 145 c 2,11,-1
 332 145 l 2,12,13
 359 145 359 145 381.5 163 c 128,-1,14
 404 181 404 181 411 209 c 2,15,-1
 429 294 l 2,0,1
517 29 m 1,16,17
 482 7 482 7 444 -5 c 128,-1,18
 406 -17 406 -17 368 -17 c 2,19,-1
 222 -17 l 2,20,21
 183 -17 183 -17 151.5 -3.5 c 128,-1,22
 120 10 120 10 100 33 c 128,-1,23
 80 56 80 56 72.5 88 c 128,-1,24
 65 120 65 120 73 156 c 2,25,-1
 102 294 l 2,26,27
 111 338 111 338 137 376 c 128,-1,28
 163 414 163 414 199 442.5 c 128,-1,29
 235 471 235 471 279 487 c 128,-1,30
 323 503 323 503 369 503 c 2,31,-1
 514 503 l 2,32,33
 553 503 553 503 584.5 489.5 c 128,-1,34
 616 476 616 476 636 452 c 128,-1,35
 656 428 656 428 663.5 396 c 128,-1,36
 671 364 671 364 663 328 c 2,37,-1
 649 260 l 2,38,39
 639 214 639 214 624 182.5 c 128,-1,40
 609 151 609 151 589 131.5 c 128,-1,41
 569 112 569 112 544.5 103 c 128,-1,42
 520 94 520 94 492 94 c 0,43,44
 467 94 467 94 450 103.5 c 128,-1,45
 433 113 433 113 424 125 c 1,46,47
 400 106 400 106 371 98.5 c 128,-1,48
 342 91 342 91 321 91 c 2,49,-1
 286 91 l 2,50,51
 239 91 239 91 213 120 c 128,-1,52
 187 149 187 149 196 192 c 2,53,-1
 213 269 l 2,54,55
 219 295 219 295 234 317.5 c 128,-1,56
 249 340 249 340 270.5 356.5 c 128,-1,57
 292 373 292 373 318 382 c 128,-1,58
 344 391 344 391 371 391 c 2,59,-1
 405 391 l 2,60,61
 431 391 431 391 448 384 c 1,62,-1
 450 391 l 1,63,-1
 516 391 l 1,64,-1
 477 210 l 2,65,66
 472 185 472 185 478.5 167.5 c 128,-1,67
 485 150 485 150 504 150 c 0,68,69
 534 150 534 150 552 182.5 c 128,-1,70
 570 215 570 215 580 261 c 2,71,-1
 595 332 l 2,72,73
 600 356 600 356 596 377 c 128,-1,74
 592 398 592 398 580 413.5 c 128,-1,75
 568 429 568 429 549 438 c 128,-1,76
 530 447 530 447 506 447 c 2,77,-1
 356 447 l 2,78,79
 325 447 325 447 294.5 435.5 c 128,-1,80
 264 424 264 424 239 403.5 c 128,-1,81
 214 383 214 383 196 355.5 c 128,-1,82
 178 328 178 328 171 296 c 2,83,-1
 141 153 l 2,84,85
 136 129 136 129 140.5 108 c 128,-1,86
 145 87 145 87 157 71.5 c 128,-1,87
 169 56 169 56 187.5 47 c 128,-1,88
 206 38 206 38 230 38 c 2,89,-1
 382 38 l 2,90,91
 406 38 406 38 434.5 48.5 c 128,-1,92
 463 59 463 59 492 78 c 1,93,-1
 517 29 l 1,16,17
EndSplineSet
EndChar
StartChar: A
Encoding: 65 65 34
Width: 564
Flags: W
Fore
346 491 m 1,0,1
 378 491 378 491 400.5 480.5 c 128,-1,2
 423 470 423 470 429 450 c 2,3,-1
 542 0 l 1,4,-1
 462 0 l 1,5,-1
 429 133 l 1,6,-1
 185 133 l 1,7,8
 163 101 163 101 140 66.5 c 128,-1,9
 117 32 117 32 96 0 c 1,10,-1
 16 0 l 1,11,-1
 346 491 l 1,0,1
220 188 m 1,12,-1
 414 188 l 1,13,14
 407 216 407 216 401 241.5 c 128,-1,15
 395 267 395 267 388.5 291.5 c 128,-1,16
 382 316 382 316 376 342 c 128,-1,17
 370 368 370 368 363 397 c 1,18,-1
 220 188 l 1,12,-1
EndSplineSet
KernsSLIFO: 309 -50 0 0 306 -50 0 0 90 -10 0 0 88 -60 0 0 87 -60 0 0 86 -10 0 0 85 -10 0 0 58 -90 0 0 56 -110 0 0 55 -110 0 0 54 -20 0 0 53 -70 0 0 52 -30 0 0 14 -30 0 0
EndChar
StartChar: B
Encoding: 66 66 35
Width: 512
Flags: W
Fore
352 56 m 2,0,1
 365 56 365 56 378.5 64 c 128,-1,2
 392 72 392 72 404 85 c 128,-1,3
 416 98 416 98 424.5 113.5 c 128,-1,4
 433 129 433 129 436 143 c 256,5,6
 439 157 439 157 437 172 c 128,-1,7
 435 187 435 187 428.5 199.5 c 128,-1,8
 422 212 422 212 412 220 c 128,-1,9
 402 228 402 228 389 228 c 2,10,-1
 161 228 l 1,11,-1
 124 56 l 1,12,-1
 352 56 l 2,0,1
205 434 m 1,13,-1
 173 283 l 1,14,-1
 352 283 l 2,15,16
 365 283 365 283 378.5 289.5 c 128,-1,17
 392 296 392 296 403 306.5 c 128,-1,18
 414 317 414 317 421.5 330 c 128,-1,19
 429 343 429 343 432 357 c 256,20,21
 435 371 435 371 433 384.5 c 128,-1,22
 431 398 431 398 424.5 409 c 128,-1,23
 418 420 418 420 407.5 427 c 128,-1,24
 397 434 397 434 384 434 c 2,25,-1
 205 434 l 1,13,-1
143 489 m 1,26,-1
 395 489 l 2,27,28
 425 489 425 489 448.5 478 c 128,-1,29
 472 467 472 467 487 449 c 128,-1,30
 502 431 502 431 508 407 c 128,-1,31
 514 383 514 383 508 357 c 0,32,33
 503 334 503 334 489 313 c 128,-1,34
 475 292 475 292 455 273 c 1,35,36
 487 255 487 255 503.5 218.5 c 128,-1,37
 520 182 520 182 512 143 c 0,38,39
 506 116 506 116 489.5 90.5 c 128,-1,40
 473 65 473 65 450 45 c 128,-1,41
 427 25 427 25 398.5 12.5 c 128,-1,42
 370 0 370 0 341 0 c 2,43,-1
 97 0 l 2,44,45
 74 0 74 0 60 15.5 c 128,-1,46
 46 31 46 31 50 51 c 2,47,-1
 143 489 l 1,26,-1
EndSplineSet
KernsSLIFO: 53 -40 0 0
EndChar
StartChar: C
Encoding: 67 67 36
Width: 506
Flags: W
Fore
465 332 m 1,0,1
 470 354 470 354 466.5 374.5 c 128,-1,2
 463 395 463 395 453 410.5 c 128,-1,3
 443 426 443 426 426.5 435 c 128,-1,4
 410 444 410 444 389 444 c 2,5,-1
 332 444 l 2,6,7
 305 444 305 444 277.5 431 c 128,-1,8
 250 418 250 418 227.5 397 c 128,-1,9
 205 376 205 376 188.5 349 c 128,-1,10
 172 322 172 322 166 293 c 2,11,-1
 138 162 l 2,12,13
 133 141 133 141 136.5 120 c 128,-1,14
 140 99 140 99 150 82.5 c 128,-1,15
 160 66 160 66 176 56 c 128,-1,16
 192 46 192 46 212 46 c 2,17,-1
 271 46 l 2,18,19
 298 46 298 46 325 56.5 c 128,-1,20
 352 67 352 67 374.5 86 c 128,-1,21
 397 105 397 105 413.5 130 c 128,-1,22
 430 155 430 155 436 184 c 1,23,-1
 510 184 l 1,24,25
 501 141 501 141 476.5 105 c 128,-1,26
 452 69 452 69 418 43.5 c 128,-1,27
 384 18 384 18 343 4 c 128,-1,28
 302 -10 302 -10 259 -10 c 2,29,-1
 200 -10 l 2,30,31
 164 -10 164 -10 135.5 4 c 128,-1,32
 107 18 107 18 88.5 42 c 128,-1,33
 70 66 70 66 63 97 c 128,-1,34
 56 128 56 128 63 162 c 2,35,-1
 91 293 l 2,36,37
 100 334 100 334 124 371.5 c 128,-1,38
 148 409 148 409 182.5 437.5 c 128,-1,39
 217 466 217 466 259 483 c 128,-1,40
 301 500 301 500 344 500 c 2,41,-1
 401 500 l 2,42,43
 438 500 438 500 467 487 c 128,-1,44
 496 474 496 474 514.5 451.5 c 128,-1,45
 533 429 533 429 539.5 398.5 c 128,-1,46
 546 368 546 368 539 332 c 1,47,-1
 465 332 l 1,0,1
EndSplineSet
EndChar
StartChar: D
Encoding: 68 68 37
Width: 527
Flags: W
Fore
97 0 m 2,0,1
 74 0 74 0 60 15.5 c 128,-1,2
 46 31 46 31 50 51 c 2,3,-1
 143 489 l 1,4,-1
 409 489 l 2,5,6
 446 489 446 489 475.5 476 c 128,-1,7
 505 463 505 463 524 441 c 128,-1,8
 543 419 543 419 550.5 389.5 c 128,-1,9
 558 360 558 360 551 326 c 2,10,-1
 523 197 l 2,11,12
 514 156 514 156 490 120 c 128,-1,13
 466 84 466 84 431.5 57.5 c 128,-1,14
 397 31 397 31 356 15.5 c 128,-1,15
 315 0 315 0 272 0 c 2,16,-1
 97 0 l 2,0,1
124 56 m 1,17,-1
 283 56 l 2,18,19
 310 56 310 56 337.5 67 c 128,-1,20
 365 78 365 78 387.5 97 c 128,-1,21
 410 116 410 116 426.5 142 c 128,-1,22
 443 168 443 168 449 197 c 2,23,-1
 477 326 l 2,24,25
 481 348 481 348 477.5 367.5 c 128,-1,26
 474 387 474 387 463.5 402 c 128,-1,27
 453 417 453 417 436 425.5 c 128,-1,28
 419 434 419 434 398 434 c 2,29,-1
 205 434 l 1,30,-1
 124 56 l 1,17,-1
EndSplineSet
KernsSLIFO: 314 -40 0 0 59 -20 0 0 58 -20 0 0 57 -20 0 0 56 -20 0 0 53 -30 0 0 43 -20 0 0 15 -40 0 0 13 -40 0 0
EndChar
StartChar: E
Encoding: 69 69 38
Width: 506
Flags: W
Fore
97 0 m 2,0,1
 74 0 74 0 60 15.5 c 128,-1,2
 46 31 46 31 50 51 c 2,3,-1
 143 489 l 1,4,-1
 563 489 l 1,5,-1
 552 434 l 1,6,-1
 205 434 l 1,7,-1
 173 283 l 1,8,-1
 470 283 l 1,9,-1
 458 228 l 1,10,-1
 161 228 l 1,11,-1
 124 56 l 1,12,-1
 471 56 l 1,13,-1
 460 0 l 1,14,-1
 97 0 l 2,0,1
EndSplineSet
EndChar
StartChar: F
Encoding: 70 70 39
Width: 506
Flags: W
Fore
161 228 m 1,0,-1
 113 0 l 1,1,-1
 40 0 l 1,2,-1
 143 489 l 1,3,-1
 563 489 l 1,4,-1
 552 434 l 1,5,-1
 205 434 l 1,6,-1
 173 283 l 1,7,-1
 470 283 l 1,8,-1
 458 228 l 1,9,-1
 161 228 l 1,0,-1
EndSplineSet
KernsSLIFO: 314 -40 0 0 196 -50 0 0 185 -50 0 0 167 -50 0 0 135 -90 0 0 80 -50 0 0 70 -50 0 0 66 -50 0 0 43 -60 0 0 34 -90 0 0 15 -40 0 0 13 -40 0 0
EndChar
StartChar: G
Encoding: 71 71 40
Width: 506
Flags: W
Fore
508 176 m 2,0,1
 499 135 499 135 475 100.5 c 128,-1,2
 451 66 451 66 417.5 41.5 c 128,-1,3
 384 17 384 17 343 3.5 c 128,-1,4
 302 -10 302 -10 259 -10 c 2,5,-1
 200 -10 l 2,6,7
 164 -10 164 -10 135.5 4 c 128,-1,8
 107 18 107 18 88.5 42 c 128,-1,9
 70 66 70 66 63 97 c 128,-1,10
 56 128 56 128 63 162 c 2,11,-1
 91 293 l 2,12,13
 100 334 100 334 124 371.5 c 128,-1,14
 148 409 148 409 182.5 437.5 c 128,-1,15
 217 466 217 466 259 483 c 128,-1,16
 301 500 301 500 344 500 c 2,17,-1
 401 500 l 2,18,19
 438 500 438 500 467 487 c 128,-1,20
 496 474 496 474 514.5 451.5 c 128,-1,21
 533 429 533 429 539.5 398.5 c 128,-1,22
 546 368 546 368 539 332 c 1,23,-1
 465 332 l 1,24,25
 470 354 470 354 466.5 374.5 c 128,-1,26
 463 395 463 395 453 410.5 c 128,-1,27
 443 426 443 426 426.5 435 c 128,-1,28
 410 444 410 444 389 444 c 2,29,-1
 332 444 l 2,30,31
 305 444 305 444 277.5 431 c 128,-1,32
 250 418 250 418 227.5 397 c 128,-1,33
 205 376 205 376 188.5 349 c 128,-1,34
 172 322 172 322 166 293 c 2,35,-1
 138 162 l 2,36,37
 133 141 133 141 136.5 120 c 128,-1,38
 140 99 140 99 150 82.5 c 128,-1,39
 160 66 160 66 176 56 c 128,-1,40
 192 46 192 46 212 46 c 2,41,-1
 271 46 l 2,42,43
 297 46 297 46 323 55 c 128,-1,44
 349 64 349 64 370.5 80.5 c 128,-1,45
 392 97 392 97 408.5 119.5 c 128,-1,46
 425 142 425 142 432 168 c 1,47,-1
 285 168 l 1,48,-1
 297 224 l 1,49,-1
 518 224 l 1,50,-1
 508 176 l 2,0,1
EndSplineSet
EndChar
StartChar: H
Encoding: 72 72 41
Width: 506
Flags: W
Fore
435 228 m 1,0,-1
 161 228 l 1,1,-1
 113 0 l 1,2,-1
 40 0 l 1,3,-1
 143 489 l 1,4,-1
 216 489 l 1,5,-1
 173 283 l 1,6,-1
 447 283 l 1,7,-1
 490 489 l 1,8,-1
 563 489 l 1,9,-1
 460 0 l 1,10,-1
 387 0 l 1,11,-1
 435 228 l 1,0,-1
EndSplineSet
EndChar
StartChar: I
Encoding: 73 73 42
Width: 151
Flags: W
Fore
141 489 m 1,0,-1
 214 489 l 1,1,-1
 111 0 l 1,2,-1
 38 0 l 1,3,-1
 141 489 l 1,0,-1
EndSplineSet
KernsSLIFO: 84 -10 0 0 83 -10 0 0 81 -10 0 0 80 -10 0 0 79 -10 0 0 78 -10 0 0 72 -20 0 0 70 -20 0 0 69 -20 0 0 68 -10 0 0 66 -20 0 0
EndChar
StartChar: J
Encoding: 74 74 43
Width: 442
Flags: W
Fore
124 170 m 1,0,1
 119 147 119 147 122.5 125.5 c 128,-1,2
 126 104 126 104 135.5 87.5 c 128,-1,3
 145 71 145 71 161 61 c 128,-1,4
 177 51 177 51 198 51 c 0,5,6
 225 51 225 51 252 60.5 c 128,-1,7
 279 70 279 70 301.5 86.5 c 128,-1,8
 324 103 324 103 339.5 126 c 128,-1,9
 355 149 355 149 361 176 c 2,10,-1
 427 489 l 1,11,-1
 501 489 l 1,12,-1
 435 176 l 2,13,14
 426 135 426 135 402 100.5 c 128,-1,15
 378 66 378 66 344.5 41.5 c 128,-1,16
 311 17 311 17 269.5 3.5 c 128,-1,17
 228 -10 228 -10 185 -10 c 0,18,19
 149 -10 149 -10 120.5 5 c 128,-1,20
 92 20 92 20 74 45 c 128,-1,21
 56 70 56 70 49 102.5 c 128,-1,22
 42 135 42 135 50 170 c 1,23,-1
 124 170 l 1,0,1
EndSplineSet
KernsSLIFO: 135 -10 0 0 34 -20 0 0
EndChar
StartChar: K
Encoding: 75 75 44
Width: 485
Flags: W
Fore
373 0 m 1,0,-1
 229 176 l 2,1,2
 212 193 212 193 192 202.5 c 128,-1,3
 172 212 172 212 158 214 c 1,4,-1
 113 0 l 1,5,-1
 40 0 l 1,6,-1
 143 489 l 1,7,-1
 216 489 l 1,8,-1
 176 298 l 1,9,10
 249 346 249 346 324.5 394 c 128,-1,11
 400 442 400 442 474 489 c 1,12,-1
 574 489 l 1,13,-1
 224 260 l 1,14,15
 254 253 254 253 275 233 c 128,-1,16
 296 213 296 213 315 193 c 0,17,18
 316 192 316 192 321.5 184.5 c 128,-1,19
 327 177 327 177 343.5 156 c 128,-1,20
 360 135 360 135 389.5 98 c 128,-1,21
 419 61 419 61 469 0 c 1,22,-1
 373 0 l 1,0,-1
EndSplineSet
KernsSLIFO: 196 -25 0 0 195 -20 0 0 185 -25 0 0 167 -25 0 0 153 -20 0 0 90 -25 0 0 88 -50 0 0 87 -50 0 0 86 -25 0 0 80 -25 0 0 70 -25 0 0 66 -30 0 0 48 -20 0 0 14 -30 0 0
EndChar
StartChar: L
Encoding: 76 76 45
Width: 444
Flags: W
Fore
97 0 m 2,0,1
 74 0 74 0 60 15.5 c 128,-1,2
 46 31 46 31 50 51 c 2,3,-1
 143 489 l 1,4,-1
 216 489 l 1,5,-1
 124 56 l 1,6,-1
 430 56 l 1,7,-1
 419 0 l 1,8,-1
 97 0 l 2,0,1
EndSplineSet
KernsSLIFO: 309 -100 0 0 306 -100 0 0 195 -18 0 0 153 -18 0 0 136 -18 0 0 90 -20 0 0 87 -60 0 0 58 -100 0 0 56 -94 0 0 55 -104 0 0 53 -100 0 0 50 -18 0 0 48 -18 0 0 40 -18 0 0 36 -18 0 0 14 -40 0 0 8 -40 0 0
EndChar
StartChar: M
Encoding: 77 77 46
Width: 629
Flags: W
Fore
307 -23 m 1,0,-1
 184 332 l 1,1,-1
 114 0 l 1,2,-1
 41 0 l 1,3,-1
 145 491 l 1,4,-1
 214 491 l 1,5,-1
 340 133 l 1,6,-1
 616 491 l 1,7,-1
 685 491 l 1,8,-1
 581 0 l 1,9,-1
 508 0 l 1,10,-1
 578 330 l 1,11,-1
 307 -23 l 1,0,-1
EndSplineSet
EndChar
StartChar: N
Encoding: 78 78 47
Width: 527
Flags: W
Fore
431 119 m 1,0,-1
 510 491 l 1,1,-1
 586 491 l 1,2,-1
 482 0 l 1,3,-1
 413 0 l 1,4,-1
 192 372 l 1,5,-1
 113 0 l 1,6,-1
 40 0 l 1,7,-1
 144 491 l 1,8,-1
 213 491 l 1,9,-1
 431 119 l 1,0,-1
EndSplineSet
EndChar
StartChar: O
Encoding: 79 79 48
Width: 507
Flags: W
Fore
513 197 m 2,0,1
 504 156 504 156 479.5 118.5 c 128,-1,2
 455 81 455 81 420.5 52.5 c 128,-1,3
 386 24 386 24 344.5 7 c 128,-1,4
 303 -10 303 -10 260 -10 c 2,5,-1
 202 -10 l 2,6,7
 166 -10 166 -10 137 4 c 128,-1,8
 108 18 108 18 89.5 42 c 128,-1,9
 71 66 71 66 64 97.5 c 128,-1,10
 57 129 57 129 64 163 c 2,11,-1
 92 292 l 2,12,13
 101 334 101 334 125.5 371.5 c 128,-1,14
 150 409 150 409 184.5 437.5 c 128,-1,15
 219 466 219 466 261 483 c 128,-1,16
 303 500 303 500 346 500 c 2,17,-1
 403 500 l 2,18,19
 440 500 440 500 468.5 485.5 c 128,-1,20
 497 471 497 471 515.5 447 c 128,-1,21
 534 423 534 423 541 391.5 c 128,-1,22
 548 360 548 360 541 326 c 2,23,-1
 513 197 l 2,0,1
467 326 m 2,24,25
 471 348 471 348 468 369 c 128,-1,26
 465 390 465 390 454.5 406.5 c 128,-1,27
 444 423 444 423 428 433.5 c 128,-1,28
 412 444 412 444 391 444 c 2,29,-1
 334 444 l 2,30,31
 307 444 307 444 279.5 431 c 128,-1,32
 252 418 252 418 229 397 c 128,-1,33
 206 376 206 376 189.5 348.5 c 128,-1,34
 173 321 173 321 167 292 c 2,35,-1
 139 163 l 2,36,37
 134 142 134 142 137.5 121 c 128,-1,38
 141 100 141 100 151 83.5 c 128,-1,39
 161 67 161 67 177 56.5 c 128,-1,40
 193 46 193 46 214 46 c 2,41,-1
 272 46 l 2,42,43
 299 46 299 46 326 58.5 c 128,-1,44
 353 71 353 71 376.5 92 c 128,-1,45
 400 113 400 113 416.5 140.5 c 128,-1,46
 433 168 433 168 439 197 c 2,47,-1
 467 326 l 2,24,25
EndSplineSet
KernsSLIFO: 314 -29 0 0 59 -18 0 0 58 -18 0 0 57 -10 0 0 43 20 0 0 15 -29 0 0 13 -29 0 0
EndChar
StartChar: P
Encoding: 80 80 49
Width: 486
Flags: W
Fore
143 489 m 1,0,-1
 421 489 l 2,1,2
 451 489 451 489 474.5 478.5 c 128,-1,3
 498 468 498 468 513.5 450 c 128,-1,4
 529 432 529 432 535 408 c 128,-1,5
 541 384 541 384 535 357 c 256,6,7
 529 330 529 330 513 306 c 128,-1,8
 497 282 497 282 474.5 265 c 128,-1,9
 452 248 452 248 424 238 c 128,-1,10
 396 228 396 228 366 228 c 2,11,-1
 161 228 l 1,12,-1
 113 0 l 1,13,-1
 40 0 l 1,14,-1
 143 489 l 1,0,-1
205 434 m 1,15,-1
 173 283 l 1,16,-1
 378 283 l 2,17,18
 407 283 407 283 431.5 305 c 128,-1,19
 456 327 456 327 462 357 c 0,20,21
 469 387 469 387 454 410.5 c 128,-1,22
 439 434 439 434 410 434 c 2,23,-1
 205 434 l 1,15,-1
EndSplineSet
KernsSLIFO: 314 -100 0 0 196 -47 0 0 185 -47 0 0 167 -47 0 0 135 -100 0 0 80 -47 0 0 70 -47 0 0 66 -40 0 0 58 -30 0 0 43 -70 0 0 34 -100 0 0 15 -100 0 0 13 -100 0 0
EndChar
StartChar: Q
Encoding: 81 81 50
Width: 506
Flags: W
Fore
390 30 m 1,0,1
 361 11 361 11 327.5 0.5 c 128,-1,2
 294 -10 294 -10 259 -10 c 2,3,-1
 201 -10 l 2,4,5
 165 -10 165 -10 136 4 c 128,-1,6
 107 18 107 18 88.5 42 c 128,-1,7
 70 66 70 66 63 97.5 c 128,-1,8
 56 129 56 129 63 163 c 2,9,-1
 91 292 l 2,10,11
 100 334 100 334 124.5 371.5 c 128,-1,12
 149 409 149 409 183.5 437.5 c 128,-1,13
 218 466 218 466 260 483 c 128,-1,14
 302 500 302 500 346 500 c 2,15,-1
 402 500 l 2,16,17
 439 500 439 500 467.5 485.5 c 128,-1,18
 496 471 496 471 514.5 447 c 128,-1,19
 533 423 533 423 540 391.5 c 128,-1,20
 547 360 547 360 540 326 c 2,21,-1
 512 197 l 2,22,23
 498 133 498 133 447 77 c 1,24,25
 455 66 455 66 465 53.5 c 128,-1,26
 475 41 475 41 483 30 c 1,27,-1
 424 -16 l 1,28,-1
 390 30 l 1,0,1
466 326 m 2,29,30
 470 348 470 348 467 369 c 128,-1,31
 464 390 464 390 453.5 406.5 c 128,-1,32
 443 423 443 423 427 433.5 c 128,-1,33
 411 444 411 444 390 444 c 2,34,-1
 334 444 l 2,35,36
 306 444 306 444 278.5 431 c 128,-1,37
 251 418 251 418 228 397 c 128,-1,38
 205 376 205 376 188.5 348.5 c 128,-1,39
 172 321 172 321 166 292 c 2,40,-1
 138 163 l 2,41,42
 133 142 133 142 136.5 121 c 128,-1,43
 140 100 140 100 150 83.5 c 128,-1,44
 160 67 160 67 176 56.5 c 128,-1,45
 192 46 192 46 213 46 c 2,46,-1
 271 46 l 2,47,48
 310 46 310 46 352 74 c 1,49,-1
 295 147 l 1,50,-1
 355 193 l 1,51,-1
 407 127 l 1,52,53
 430 159 430 159 438 197 c 2,54,-1
 466 326 l 2,29,30
EndSplineSet
KernsSLIFO: 314 -29 0 0 13 20 0 0
EndChar
StartChar: R
Encoding: 82 82 51
Width: 495
Flags: W
Fore
143 489 m 1,0,-1
 421 489 l 2,1,2
 451 489 451 489 474.5 478.5 c 128,-1,3
 498 468 498 468 514 450 c 128,-1,4
 530 432 530 432 536 408 c 128,-1,5
 542 384 542 384 536 357 c 256,6,7
 530 330 530 330 515 307.5 c 128,-1,8
 500 285 500 285 479 268 c 128,-1,9
 458 251 458 251 432 240.5 c 128,-1,10
 406 230 406 230 378 228 c 1,11,12
 381 223 381 223 385 216.5 c 128,-1,13
 389 210 389 210 392 202 c 2,14,-1
 487 0 l 1,15,-1
 403 0 l 1,16,-1
 312 195 l 1,17,-1
 313 194 l 1,18,19
 306 206 306 206 296.5 217 c 128,-1,20
 287 228 287 228 279 228 c 2,21,-1
 162 228 l 1,22,-1
 114 0 l 1,23,-1
 40 0 l 1,24,-1
 143 489 l 1,0,-1
206 434 m 1,25,-1
 174 283 l 1,26,-1
 378 283 l 2,27,28
 407 283 407 283 431.5 305 c 128,-1,29
 456 327 456 327 462 357 c 0,30,31
 469 387 469 387 454 410.5 c 128,-1,32
 439 434 439 434 410 434 c 2,33,-1
 206 434 l 1,25,-1
EndSplineSet
KernsSLIFO: 309 -10 0 0 306 -10 0 0 196 -55 0 0 185 -20 0 0 167 -20 0 0 90 -10 0 0 86 -10 0 0 80 -10 0 0 70 -10 0 0 66 -10 0 0 58 -40 0 0
EndChar
StartChar: S
Encoding: 83 83 52
Width: 548
Flags: W
Fore
138 164 m 1,0,1
 133 140 133 140 137 119 c 128,-1,2
 141 98 141 98 152 81.5 c 128,-1,3
 163 65 163 65 180.5 55.5 c 128,-1,4
 198 46 198 46 221 46 c 2,5,-1
 325 46 l 2,6,7
 350 46 350 46 374 54 c 128,-1,8
 398 62 398 62 417.5 76 c 128,-1,9
 437 90 437 90 450.5 108 c 128,-1,10
 464 126 464 126 469 146 c 0,11,12
 471 156 471 156 471 168.5 c 128,-1,13
 471 181 471 181 466 193 c 128,-1,14
 461 205 461 205 450.5 214.5 c 128,-1,15
 440 224 440 224 421 228 c 2,16,-1
 220 252 l 2,17,18
 178 259 178 259 157.5 273.5 c 128,-1,19
 137 288 137 288 129.5 304.5 c 128,-1,20
 122 321 122 321 123.5 338 c 128,-1,21
 125 355 125 355 128 368 c 0,22,23
 135 404 135 404 159.5 429.5 c 128,-1,24
 184 455 184 455 215 470.5 c 128,-1,25
 246 486 246 486 277.5 493.5 c 128,-1,26
 309 501 309 501 331 501 c 2,27,-1
 436 501 l 2,28,29
 469 501 469 501 495.5 490 c 128,-1,30
 522 479 522 479 540 459 c 128,-1,31
 558 439 558 439 564.5 411 c 128,-1,32
 571 383 571 383 564 348 c 1,33,-1
 490 348 l 1,34,35
 494 368 494 368 491 386 c 128,-1,36
 488 404 488 404 479 417.5 c 128,-1,37
 470 431 470 431 456 438.5 c 128,-1,38
 442 446 442 446 424 446 c 2,39,-1
 319 446 l 2,40,41
 307 446 307 446 288.5 441 c 128,-1,42
 270 436 270 436 252 426 c 128,-1,43
 234 416 234 416 220 401.5 c 128,-1,44
 206 387 206 387 202 368 c 0,45,46
 200 362 200 362 200 353.5 c 128,-1,47
 200 345 200 345 204 337 c 128,-1,48
 208 329 208 329 217.5 322.5 c 128,-1,49
 227 316 227 316 245 313 c 2,50,-1
 443 287 l 2,51,52
 485 281 485 281 507 264.5 c 128,-1,53
 529 248 529 248 538 228 c 128,-1,54
 547 208 547 208 546.5 186 c 128,-1,55
 546 164 546 164 542 146 c 0,56,57
 535 113 535 113 513.5 84.5 c 128,-1,58
 492 56 492 56 461.5 35 c 128,-1,59
 431 14 431 14 392.5 2 c 128,-1,60
 354 -10 354 -10 313 -10 c 2,61,-1
 209 -10 l 2,62,63
 171 -10 171 -10 140.5 3.5 c 128,-1,64
 110 17 110 17 90.5 40 c 128,-1,65
 71 63 71 63 63.5 95 c 128,-1,66
 56 127 56 127 64 164 c 1,67,-1
 138 164 l 1,0,1
EndSplineSet
KernsSLIFO: 314 -40 0 0 135 -18 0 0 90 -10 0 0 88 -18 0 0 87 -20 0 0 82 6 0 0 80 4 0 0 70 4 0 0 68 4 0 0 52 -10 0 0 34 -14 0 0 15 -30 0 0 13 -30 0 0
EndChar
StartChar: T
Encoding: 84 84 53
Width: 423
Flags: W
Fore
265 434 m 1,0,-1
 111 434 l 1,1,-1
 122 489 l 1,2,-1
 502 489 l 1,3,-1
 491 434 l 1,4,-1
 339 434 l 1,5,-1
 247 0 l 1,6,-1
 173 0 l 1,7,-1
 265 434 l 1,0,-1
EndSplineSet
KernsSLIFO: 314 -120 0 0 196 -100 0 0 195 -47 0 0 185 -100 0 0 167 -100 0 0 153 -47 0 0 136 -47 0 0 135 -100 0 0 91 -60 0 0 90 -60 0 0 88 -60 0 0 87 -60 0 0 86 -60 0 0 84 -60 0 0 83 -40 0 0 80 -100 0 0 72 -100 0 0 70 -100 0 0 68 -100 0 0 66 -100 0 0 53 10 0 0 52 -30 0 0 48 -47 0 0 43 -80 0 0 40 -39 0 0 36 -39 0 0 34 -115 0 0 32 20 0 0 28 -50 0 0 27 -50 0 0 15 -100 0 0 13 -40 0 0 10 20 0 0
EndChar
StartChar: U
Encoding: 85 85 54
Width: 517
Flags: W
Fore
212 489 m 1,0,-1
 143 163 l 2,1,2
 138 142 138 142 141.5 121 c 128,-1,3
 145 100 145 100 155 83.5 c 128,-1,4
 165 67 165 67 181.5 56.5 c 128,-1,5
 198 46 198 46 219 46 c 2,6,-1
 276 46 l 2,7,8
 303 46 303 46 330.5 58.5 c 128,-1,9
 358 71 358 71 381.5 92 c 128,-1,10
 405 113 405 113 421.5 140.5 c 128,-1,11
 438 168 438 168 444 197 c 2,12,-1
 506 489 l 1,13,-1
 579 489 l 1,14,-1
 517 197 l 2,15,16
 508 156 508 156 483.5 118.5 c 128,-1,17
 459 81 459 81 424.5 52.5 c 128,-1,18
 390 24 390 24 348.5 7 c 128,-1,19
 307 -10 307 -10 264 -10 c 2,20,-1
 207 -10 l 2,21,22
 170 -10 170 -10 141 4 c 128,-1,23
 112 18 112 18 93.5 42 c 128,-1,24
 75 66 75 66 68 97.5 c 128,-1,25
 61 129 61 129 68 163 c 2,26,-1
 137 489 l 1,27,-1
 212 489 l 1,0,-1
EndSplineSet
KernsSLIFO: 314 -40 0 0 135 -40 0 0 34 -40 0 0 15 -40 0 0 13 -40 0 0
EndChar
StartChar: V
Encoding: 86 86 55
Width: 510
Flags: W
Fore
514 489 m 1,0,-1
 591 489 l 1,1,-1
 287 -5 l 1,2,3
 244 -5 244 -5 225 9 c 128,-1,4
 206 23 206 23 200 50 c 2,5,-1
 120 489 l 1,6,-1
 197 489 l 1,7,-1
 269 93 l 1,8,-1
 514 489 l 1,0,-1
EndSplineSet
KernsSLIFO: 314 -100 0 0 196 -50 0 0 185 -94 0 0 167 -94 0 0 135 -140 0 0 90 -50 0 0 86 -50 0 0 80 -50 0 0 70 -50 0 0 66 -50 0 0 34 -140 0 0 28 -70 0 0 27 -70 0 0 15 -100 0 0 14 -47 0 0 13 -100 0 0
EndChar
StartChar: W
Encoding: 87 87 56
Width: 758
Flags: W
Fore
271 -5 m 1,0,1
 227 -5 227 -5 207 9 c 128,-1,2
 187 23 187 23 180 50 c 2,3,-1
 121 489 l 1,4,-1
 198 489 l 1,5,-1
 250 103 l 1,6,7
 299 205 299 205 346.5 299 c 128,-1,8
 394 393 394 393 444 495 c 1,9,10
 453 495 453 495 464.5 494 c 128,-1,11
 476 493 476 493 487 489.5 c 128,-1,12
 498 486 498 486 506.5 478.5 c 128,-1,13
 515 471 515 471 517 459 c 2,14,-1
 541 103 l 1,15,16
 596 202 596 202 649.5 296.5 c 128,-1,17
 703 391 703 391 757 489 c 1,18,-1
 835 489 l 1,19,-1
 589 50 l 2,20,21
 571 23 571 23 544.5 9 c 128,-1,22
 518 -5 518 -5 475 -5 c 1,23,-1
 454 367 l 1,24,-1
 271 -5 l 1,0,1
EndSplineSet
KernsSLIFO: 314 -100 0 0 196 -76 0 0 185 -76 0 0 167 -76 0 0 135 -120 0 0 90 -37 0 0 86 -37 0 0 83 -37 0 0 80 -76 0 0 70 -76 0 0 66 -76 0 0 34 -120 0 0 28 -76 0 0 27 -76 0 0 15 -100 0 0 14 -47 0 0 13 -100 0 0
EndChar
StartChar: X
Encoding: 88 88 57
Width: 500
Flags: W
Fore
102 0 m 1,0,-1
 13 0 l 1,1,-1
 253 244 l 1,2,3
 221 303 221 303 184.5 367 c 128,-1,4
 148 431 148 431 116 489 c 1,5,-1
 205 489 l 1,6,-1
 309 300 l 1,7,-1
 496 489 l 1,8,-1
 584 489 l 1,9,-1
 342 244 l 1,10,11
 376 186 376 186 412 122 c 128,-1,12
 448 58 448 58 481 0 c 1,13,-1
 393 0 l 1,14,-1
 286 188 l 1,15,-1
 102 0 l 1,0,-1
EndSplineSet
KernsSLIFO: 196 -30 0 0 195 -45 0 0 185 -30 0 0 167 -47 0 0 153 -30 0 0 136 -30 0 0 90 -45 0 0 86 -45 0 0 80 -45 0 0 70 -45 0 0 66 -37 0 0 48 -30 0 0 40 -30 0 0 36 -30 0 0 14 -40 0 0
EndChar
StartChar: Y
Encoding: 89 89 58
Width: 487
Flags: W
Fore
277 0 m 1,0,-1
 203 0 l 1,1,-1
 254 243 l 1,2,-1
 116 489 l 1,3,-1
 199 489 l 1,4,-1
 302 300 l 1,5,-1
 489 489 l 1,6,-1
 571 489 l 1,7,-1
 328 243 l 1,8,-1
 277 0 l 1,0,-1
EndSplineSet
KernsSLIFO: 314 -140 0 0 196 -123 0 0 195 -40 0 0 185 -123 0 0 167 -131 0 0 153 -40 0 0 135 -120 0 0 87 -94 0 0 86 -104 0 0 84 -104 0 0 83 -60 0 0 82 -123 0 0 81 -60 0 0 80 -123 0 0 79 -60 0 0 78 -60 0 0 72 -123 0 0 70 -123 0 0 69 -115 0 0 66 -131 0 0 48 -40 0 0 43 -120 0 0 34 -120 0 0 28 -70 0 0 27 -70 0 0 15 -100 0 0 14 -70 0 0 13 -100 0 0
EndChar
StartChar: Z
Encoding: 90 90 59
Width: 504
Flags: W
Fore
128 434 m 1,0,-1
 139 489 l 1,1,-1
 588 489 l 1,2,-1
 160 56 l 1,3,-1
 472 56 l 1,4,-1
 461 0 l 1,5,-1
 13 0 l 1,6,-1
 443 434 l 1,7,-1
 128 434 l 1,0,-1
EndSplineSet
KernsSLIFO: 196 -20 0 0 195 -40 0 0 185 -20 0 0 167 -47 0 0 153 -18 0 0 136 -18 0 0 88 -60 0 0 70 -20 0 0 59 10 0 0 48 -40 0 0 40 -40 0 0 36 -40 0 0 14 -55 0 0
EndChar
StartChar: bracketleft
Encoding: 91 91 60
Width: 216
Flags: W
Fore
89 -58 m 2,0,1
 85 -75 85 -75 98.5 -81.5 c 128,-1,2
 112 -88 112 -88 128 -88 c 2,3,-1
 167 -88 l 1,4,-1
 156 -141 l 1,5,-1
 117 -141 l 2,6,7
 94 -141 94 -141 74 -136.5 c 128,-1,8
 54 -132 54 -132 40 -122.5 c 128,-1,9
 26 -113 26 -113 19.5 -98 c 128,-1,10
 13 -83 13 -83 18 -61 c 2,11,-1
 128 459 l 2,12,13
 132 481 132 481 145 496.5 c 128,-1,14
 158 512 158 512 176 522 c 128,-1,15
 194 532 194 532 216 536.5 c 128,-1,16
 238 541 238 541 261 541 c 2,17,-1
 300 541 l 1,18,-1
 289 488 l 1,19,-1
 250 488 l 2,20,21
 234 488 234 488 218.5 481 c 128,-1,22
 203 474 203 474 198 456 c 2,23,-1
 89 -58 l 2,0,1
EndSplineSet
KernsSLIFO: 75 70 0 0
EndChar
StartChar: bracketright
Encoding: 93 93 62
Width: 216
Flags: W
Fore
211 456 m 2,0,1
 215 474 215 474 202 481 c 128,-1,2
 189 488 189 488 173 488 c 2,3,-1
 134 488 l 1,4,-1
 145 541 l 1,5,-1
 184 541 l 2,6,7
 207 541 207 541 227 536.5 c 128,-1,8
 247 532 247 532 261 522 c 128,-1,9
 275 512 275 512 281 496.5 c 128,-1,10
 287 481 287 481 283 459 c 2,11,-1
 173 -61 l 2,12,13
 168 -83 168 -83 155 -98 c 128,-1,14
 142 -113 142 -113 124 -122.5 c 128,-1,15
 106 -132 106 -132 84.5 -136.5 c 128,-1,16
 63 -141 63 -141 40 -141 c 2,17,-1
 1 -141 l 1,18,-1
 12 -88 l 1,19,-1
 51 -88 l 2,20,21
 67 -88 67 -88 82.5 -81.5 c 128,-1,22
 98 -75 98 -75 102 -58 c 2,23,-1
 211 456 l 2,0,1
EndSplineSet
EndChar
StartChar: asciicircum
Encoding: 94 94 63
Width: 489
Flags: W
Fore
327 422 m 1,0,-1
 174 245 l 1,1,-1
 99 245 l 1,2,-1
 353 543 l 1,3,-1
 484 245 l 1,4,-1
 409 245 l 1,5,-1
 327 422 l 1,0,-1
EndSplineSet
EndChar
StartChar: underscore
Encoding: 95 95 64
Width: 389
Flags: W
Fore
-26 -90 m 1,0,-1
 -14 -35 l 1,1,-1
 383 -35 l 1,2,-1
 371 -90 l 1,3,-1
 -26 -90 l 1,0,-1
EndSplineSet
EndChar
StartChar: grave
Encoding: 96 96 65
Width: 239
Flags: W
Fore
150 472 m 1,0,-1
 193 504 l 1,1,-1
 278 410 l 1,2,3
 262 398 l 0,4,5
 255 393 255 393 248 387.5 c 128,-1,6
 241 382 241 382 236 378 c 1,7,-1
 150 472 l 1,0,-1
EndSplineSet
EndChar
StartChar: a
Encoding: 97 97 66
Width: 383
Flags: W
Fore
279 25 m 1,0,1
 256 11 256 11 230 3 c 128,-1,2
 204 -5 204 -5 183 -5 c 2,3,-1
 142 -5 l 2,4,5
 115 -5 115 -5 95.5 5 c 128,-1,6
 76 15 76 15 64.5 31.5 c 128,-1,7
 53 48 53 48 49.5 70.5 c 128,-1,8
 46 93 46 93 51 117 c 2,9,-1
 71 209 l 2,10,11
 77 239 77 239 95 265.5 c 128,-1,12
 113 292 113 292 138 312.5 c 128,-1,13
 163 333 163 333 193 344.5 c 128,-1,14
 223 356 223 356 254 356 c 2,15,-1
 295 356 l 2,16,17
 315 356 315 356 325.5 347.5 c 128,-1,18
 336 339 336 339 344 333 c 1,19,-1
 348 351 l 1,20,-1
 422 351 l 1,21,-1
 347 -2 l 1,22,-1
 273 -2 l 1,23,-1
 279 25 l 1,0,1
322 227 m 2,24,25
 323 238 323 238 321 251 c 128,-1,26
 319 264 319 264 314 275 c 128,-1,27
 309 286 309 286 301 293 c 128,-1,28
 293 300 293 300 283 300 c 2,29,-1
 242 300 l 2,30,31
 226 300 226 300 210 292.5 c 128,-1,32
 194 285 194 285 181 272 c 128,-1,33
 168 259 168 259 158.5 243 c 128,-1,34
 149 227 149 227 145 209 c 2,35,-1
 125 117 l 2,36,37
 120 93 120 93 126.5 71.5 c 128,-1,38
 133 50 133 50 154 50 c 2,39,-1
 195 50 l 2,40,41
 211 50 211 50 228.5 57.5 c 128,-1,42
 246 65 246 65 261 77 c 128,-1,43
 276 89 276 89 287 105 c 128,-1,44
 298 121 298 121 303 138 c 2,45,-1
 322 227 l 2,24,25
EndSplineSet
KernsSLIFO: 90 -14 0 0 88 -10 0 0 87 -14 0 0
Substitution: 0 65534 'L026' uni0E38
Substitution: 0 65534 'L026' uni0E38
EndChar
StartChar: b
Encoding: 98 98 67
Width: 384
Flags: W
Fore
133 484 m 1,0,-1
 207 484 l 1,1,-1
 174 328 l 1,2,3
 191 339 191 339 212.5 347.5 c 128,-1,4
 234 356 234 356 260 356 c 2,5,-1
 302 356 l 2,6,7
 329 356 329 356 349.5 346 c 128,-1,8
 370 336 370 336 383 319 c 128,-1,9
 396 302 396 302 400.5 280 c 128,-1,10
 405 258 405 258 400 234 c 2,11,-1
 380 141 l 2,12,13
 374 111 374 111 357 84.5 c 128,-1,14
 340 58 340 58 315.5 38 c 128,-1,15
 291 18 291 18 261 6.5 c 128,-1,16
 231 -5 231 -5 200 -5 c 2,17,-1
 159 -5 l 2,18,19
 140 -5 140 -5 128 0 c 128,-1,20
 116 5 116 5 107 12 c 1,21,-1
 105 0 l 1,22,-1
 31 0 l 1,23,-1
 133 484 l 1,0,-1
327 235 m 2,24,25
 332 258 332 258 322 279 c 128,-1,26
 312 300 312 300 290 300 c 2,27,-1
 248 300 l 2,28,29
 234 300 234 300 219 293.5 c 128,-1,30
 204 287 204 287 191 276.5 c 128,-1,31
 178 266 178 266 168 252.5 c 128,-1,32
 158 239 158 239 152 225 c 1,33,-1
 128 109 l 1,34,35
 127 88 127 88 139 69 c 128,-1,36
 151 50 151 50 171 50 c 2,37,-1
 212 50 l 2,38,39
 228 50 228 50 243.5 58 c 128,-1,40
 259 66 259 66 272 79 c 128,-1,41
 285 92 285 92 294.5 109 c 128,-1,42
 304 126 304 126 308 143 c 2,43,-1
 327 235 l 2,24,25
EndSplineSet
KernsSLIFO: 314 -18 0 0 90 -4 0 0 15 -18 0 0 13 -29 0 0
Substitution: 0 65534 'L026' uni0E39
Substitution: 0 65534 'L026' uni0E39
EndChar
StartChar: c
Encoding: 99 99 68
Width: 380
Flags: W
Fore
322 235 m 1,0,1
 328 261 328 261 316.5 280.5 c 128,-1,2
 305 300 305 300 282 300 c 2,3,-1
 242 300 l 2,4,5
 226 300 226 300 210 292.5 c 128,-1,6
 194 285 194 285 181 272 c 128,-1,7
 168 259 168 259 158.5 243 c 128,-1,8
 149 227 149 227 145 209 c 2,9,-1
 125 117 l 2,10,11
 120 93 120 93 131 71.5 c 128,-1,12
 142 50 142 50 165 50 c 2,13,-1
 206 50 l 2,14,15
 238 50 238 50 266 73.5 c 128,-1,16
 294 97 294 97 302 135 c 1,17,-1
 376 135 l 1,18,19
 369 103 369 103 351.5 77 c 128,-1,20
 334 51 334 51 309.5 33 c 128,-1,21
 285 15 285 15 255 5 c 128,-1,22
 225 -5 225 -5 194 -5 c 2,23,-1
 153 -5 l 2,24,25
 126 -5 126 -5 105 5 c 128,-1,26
 84 15 84 15 70.5 31.5 c 128,-1,27
 57 48 57 48 51.5 70.5 c 128,-1,28
 46 93 46 93 51 117 c 2,29,-1
 71 209 l 2,30,31
 77 239 77 239 95 265.5 c 128,-1,32
 113 292 113 292 138 312.5 c 128,-1,33
 163 333 163 333 193 344.5 c 128,-1,34
 223 356 223 356 254 356 c 2,35,-1
 294 356 l 2,36,37
 321 356 321 356 342.5 347 c 128,-1,38
 364 338 364 338 377.5 322 c 128,-1,39
 391 306 391 306 396.5 283.5 c 128,-1,40
 402 261 402 261 396 235 c 1,41,-1
 322 235 l 1,0,1
EndSplineSet
KernsSLIFO: 168 -6 0 0 68 -6 0 0 53 -96 0 0 14 -18 0 0
Substitution: 0 65534 'L026' uni0E3A
Substitution: 0 65534 'L026' uni0E3A
EndChar
StartChar: d
Encoding: 100 100 69
Width: 385
Flags: W
Fore
279 25 m 1,0,1
 261 14 261 14 235 4.5 c 128,-1,2
 209 -5 209 -5 183 -5 c 2,3,-1
 142 -5 l 2,4,5
 115 -5 115 -5 95.5 5 c 128,-1,6
 76 15 76 15 64.5 31.5 c 128,-1,7
 53 48 53 48 49.5 70.5 c 128,-1,8
 46 93 46 93 51 117 c 2,9,-1
 71 209 l 2,10,11
 77 239 77 239 95 265.5 c 128,-1,12
 113 292 113 292 138 312.5 c 128,-1,13
 163 333 163 333 193 344.5 c 128,-1,14
 223 356 223 356 254 356 c 2,15,-1
 295 356 l 2,16,17
 315 356 315 356 327 353 c 128,-1,18
 339 350 339 350 347 345 c 1,19,-1
 376 484 l 1,20,-1
 450 484 l 1,21,-1
 347 -2 l 1,22,-1
 273 -2 l 1,23,-1
 279 25 l 1,0,1
324 237 m 2,24,25
 326 260 326 260 314.5 280 c 128,-1,26
 303 300 303 300 283 300 c 2,27,-1
 242 300 l 2,28,29
 226 300 226 300 210 292.5 c 128,-1,30
 194 285 194 285 181 272 c 128,-1,31
 168 259 168 259 158.5 243 c 128,-1,32
 149 227 149 227 145 209 c 2,33,-1
 125 117 l 2,34,35
 120 93 120 93 126.5 71.5 c 128,-1,36
 133 50 133 50 154 50 c 2,37,-1
 195 50 l 2,38,39
 211 50 211 50 228.5 57.5 c 128,-1,40
 246 65 246 65 261 77 c 128,-1,41
 276 89 276 89 287 105 c 128,-1,42
 298 121 298 121 303 138 c 2,43,-1
 324 237 l 2,24,25
EndSplineSet
EndChar
StartChar: e
Encoding: 101 101 70
Width: 381
Flags: W
Fore
125 117 m 2,0,1
 120 93 120 93 131 71.5 c 128,-1,2
 142 50 142 50 165 50 c 2,3,-1
 206 50 l 2,4,5
 222 50 222 50 237.5 56.5 c 128,-1,6
 253 63 253 63 266.5 75 c 128,-1,7
 280 87 280 87 289.5 103.5 c 128,-1,8
 299 120 299 120 303 139 c 1,9,-1
 377 139 l 1,10,11
 370 107 370 107 352.5 81 c 128,-1,12
 335 55 335 55 310 35.5 c 128,-1,13
 285 16 285 16 255 5.5 c 128,-1,14
 225 -5 225 -5 194 -5 c 2,15,-1
 153 -5 l 2,16,17
 126 -5 126 -5 105 5 c 128,-1,18
 84 15 84 15 70.5 31.5 c 128,-1,19
 57 48 57 48 51.5 70.5 c 128,-1,20
 46 93 46 93 51 117 c 2,21,-1
 71 209 l 2,22,23
 77 239 77 239 95 265.5 c 128,-1,24
 113 292 113 292 138 312.5 c 128,-1,25
 163 333 163 333 193 344.5 c 128,-1,26
 223 356 223 356 254 356 c 2,27,-1
 295 356 l 2,28,29
 322 356 322 356 343.5 346 c 128,-1,30
 365 336 365 336 378.5 319 c 128,-1,31
 392 302 392 302 397 280 c 128,-1,32
 402 258 402 258 397 234 c 2,33,-1
 385 175 l 1,34,-1
 138 175 l 1,35,-1
 125 117 l 2,0,1
242 300 m 2,36,37
 212 300 212 300 185.5 278 c 128,-1,38
 159 256 159 256 148 225 c 1,39,-1
 321 225 l 1,40,-1
 323 234 l 2,41,42
 328 257 328 257 316.5 278.5 c 128,-1,43
 305 300 305 300 283 300 c 2,44,-1
 242 300 l 2,36,37
EndSplineSet
KernsSLIFO: 53 -80 0 0
EndChar
StartChar: f
Encoding: 102 102 71
Width: 235
Flags: W
Fore
144 300 m 1,0,-1
 77 300 l 1,1,-1
 88 351 l 1,2,-1
 155 351 l 1,3,4
 163 379 163 379 182 403 c 128,-1,5
 201 427 201 427 227 445 c 128,-1,6
 253 463 253 463 284 473.5 c 128,-1,7
 315 484 315 484 348 484 c 1,8,-1
 336 424 l 1,9,10
 300 424 300 424 269.5 402.5 c 128,-1,11
 239 381 239 381 228 351 c 1,12,-1
 292 351 l 1,13,-1
 281 300 l 1,14,-1
 217 300 l 1,15,-1
 154 0 l 1,16,-1
 81 0 l 1,17,-1
 144 300 l 1,0,-1
EndSplineSet
KernsSLIFO: 314 -50 0 0 309 40 0 0 306 40 0 0 185 -20 0 0 175 80 0 0 170 -20 0 0 167 -25 0 0 97 40 0 0 94 40 0 0 90 -25 0 0 86 -20 0 0 84 -23 0 0 83 -10 0 0 82 -10 0 0 81 -10 0 0 80 -20 0 0 79 20 0 0 78 20 0 0 75 30 0 0 72 -10 0 0 71 -40 0 0 70 -20 0 0 68 -20 0 0 66 -25 0 0 62 30 0 0 61 60 0 0 32 50 0 0 15 -50 0 0 11 40 0 0 10 40 0 0 8 40 0 0
EndChar
StartChar: g
Encoding: 103 103 72
Width: 385
Flags: W
Fore
283 44 m 1,0,1
 263 32 263 32 243 25.5 c 128,-1,2
 223 19 223 19 200 19 c 2,3,-1
 159 19 l 2,4,5
 132 19 132 19 110.5 29 c 128,-1,6
 89 39 89 39 75.5 56 c 128,-1,7
 62 73 62 73 57 95.5 c 128,-1,8
 52 118 52 118 57 142 c 2,9,-1
 71 209 l 2,10,11
 77 239 77 239 95 265.5 c 128,-1,12
 113 292 113 292 138 312.5 c 128,-1,13
 163 333 163 333 193 344.5 c 128,-1,14
 223 356 223 356 254 356 c 2,15,-1
 295 356 l 2,16,17
 312 356 312 356 324.5 352 c 128,-1,18
 337 348 337 348 346 341 c 1,19,-1
 348 351 l 1,20,-1
 422 351 l 1,21,-1
 348 2 l 2,22,23
 342 -24 342 -24 323.5 -46.5 c 128,-1,24
 305 -69 305 -69 279 -85.5 c 128,-1,25
 253 -102 253 -102 224 -112 c 128,-1,26
 195 -122 195 -122 168 -122 c 2,27,-1
 126 -122 l 2,28,29
 84 -122 84 -122 55 -97 c 128,-1,30
 26 -72 26 -72 20 -34 c 1,31,-1
 101 -34 l 1,32,33
 107 -48 107 -48 117.5 -59 c 128,-1,34
 128 -70 128 -70 141 -70 c 2,35,-1
 182 -70 l 2,36,37
 197 -70 197 -70 212 -64.5 c 128,-1,38
 227 -59 227 -59 239.5 -49 c 128,-1,39
 252 -39 252 -39 261.5 -26 c 128,-1,40
 271 -13 271 -13 274 2 c 2,41,-1
 283 44 l 1,0,1
324 237 m 2,42,43
 326 260 326 260 314.5 279.5 c 128,-1,44
 303 299 303 299 283 299 c 2,45,-1
 242 299 l 2,46,47
 226 299 226 299 210 291.5 c 128,-1,48
 194 284 194 284 181 271.5 c 128,-1,49
 168 259 168 259 158.5 243 c 128,-1,50
 149 227 149 227 145 209 c 2,51,-1
 131 142 l 2,52,53
 126 118 126 118 136.5 96.5 c 128,-1,54
 147 75 147 75 170 75 c 2,55,-1
 211 75 l 2,56,57
 227 75 227 75 242.5 82.5 c 128,-1,58
 258 90 258 90 271 102 c 128,-1,59
 284 114 284 114 293.5 129.5 c 128,-1,60
 303 145 303 145 308 162 c 2,61,-1
 324 237 l 2,42,43
EndSplineSet
KernsSLIFO: 75 60 0 0
EndChar
StartChar: h
Encoding: 104 104 73
Width: 388
Flags: W
Fore
327 235 m 2,0,1
 332 258 332 258 322 279 c 128,-1,2
 312 300 312 300 290 300 c 2,3,-1
 248 300 l 2,4,5
 234 300 234 300 219 293.5 c 128,-1,6
 204 287 204 287 191 276.5 c 128,-1,7
 178 266 178 266 168 252.5 c 128,-1,8
 158 239 158 239 152 225 c 1,9,-1
 105 0 l 1,10,-1
 31 0 l 1,11,-1
 133 484 l 1,12,-1
 207 484 l 1,13,-1
 175 330 l 1,14,15
 194 341 194 341 215.5 348.5 c 128,-1,16
 237 356 237 356 260 356 c 2,17,-1
 302 356 l 2,18,19
 329 356 329 356 349.5 346 c 128,-1,20
 370 336 370 336 383 319 c 128,-1,21
 396 302 396 302 400.5 280 c 128,-1,22
 405 258 405 258 400 234 c 2,23,-1
 351 0 l 1,24,-1
 278 0 l 1,25,-1
 327 235 l 2,0,1
EndSplineSet
KernsSLIFO: 90 -18 0 0 88 -10 0 0 87 -18 0 0
EndChar
StartChar: i
Encoding: 105 105 74
Width: 185
Flags: W
Fore
129 351 m 1,0,-1
 201 351 l 1,1,-1
 127 0 l 1,2,-1
 55 0 l 1,3,-1
 129 351 l 1,0,-1
135 436 m 0,4,5
 139 454 139 454 155 465.5 c 128,-1,6
 171 477 171 477 193 477 c 256,7,8
 215 477 215 477 226.5 465.5 c 128,-1,9
 238 454 238 454 234 436 c 0,10,11
 230 417 230 417 213.5 405 c 128,-1,12
 197 393 197 393 175 393 c 256,13,14
 153 393 153 393 142 405 c 128,-1,15
 131 417 131 417 135 436 c 0,4,5
EndSplineSet
KernsSLIFO: 85 -20 0 0 77 2 0 0 74 2 0 0 71 -20 0 0
EndChar
StartChar: j
Encoding: 106 106 75
Width: 185
Flags: W
Fore
128 351 m 1,0,-1
 201 351 l 1,1,-1
 128 8 l 2,2,3
 122 -21 122 -21 104.5 -47 c 128,-1,4
 87 -73 87 -73 62.5 -92.5 c 128,-1,5
 38 -112 38 -112 8 -123 c 128,-1,6
 -22 -134 -22 -134 -53 -134 c 2,7,-1
 -108 -134 l 1,8,-1
 -95 -74 l 1,9,-1
 -40 -74 l 2,10,11
 -8 -74 -8 -74 19.5 -50.5 c 128,-1,12
 47 -27 47 -27 55 8 c 2,13,-1
 128 351 l 1,0,-1
135 436 m 0,14,15
 139 454 139 454 155 465.5 c 128,-1,16
 171 477 171 477 193 477 c 256,17,18
 215 477 215 477 226.5 465.5 c 128,-1,19
 238 454 238 454 234 436 c 0,20,21
 230 417 230 417 213.5 405 c 128,-1,22
 197 393 197 393 175 393 c 256,23,24
 153 393 153 393 142 405 c 128,-1,25
 131 417 131 417 135 436 c 0,14,15
EndSplineSet
EndChar
StartChar: k
Encoding: 107 107 76
Width: 366
Flags: W
Fore
204 208 m 1,0,1
 212 203 212 203 218.5 196 c 128,-1,2
 225 189 225 189 230 183 c 1,3,-1
 231 184 l 1,4,-1
 375 0 l 1,5,-1
 281 0 l 1,6,-1
 167 144 l 2,7,8
 154 160 154 160 140 165 c 1,9,-1
 105 0 l 1,10,-1
 31 0 l 1,11,-1
 133 484 l 1,12,-1
 207 484 l 1,13,-1
 156 243 l 1,14,15
 199 271 199 271 241.5 297.5 c 128,-1,16
 284 324 284 324 326 351 c 1,17,-1
 428 351 l 1,18,-1
 204 208 l 1,0,1
EndSplineSet
KernsSLIFO: 196 -18 0 0 185 -18 0 0 80 -18 0 0 70 -18 0 0 14 -40 0 0
EndChar
StartChar: l
Encoding: 108 108 77
Width: 185
Flags: W
Fore
157 484 m 1,0,-1
 229 484 l 1,1,-1
 127 0 l 1,2,-1
 55 0 l 1,3,-1
 157 484 l 1,0,-1
EndSplineSet
KernsSLIFO: 176 10 0 0 175 10 0 0 85 -20 0 0 77 6 0 0 74 2 0 0 71 -20 0 0
EndChar
StartChar: m
Encoding: 109 109 78
Width: 564
Flags: W
Fore
241 0 m 1,0,-1
 290 234 l 2,1,2
 295 257 295 257 283.5 278.5 c 128,-1,3
 272 300 272 300 250 300 c 0,4,5
 235 300 235 300 219.5 294 c 128,-1,6
 204 288 204 288 190.5 278 c 128,-1,7
 177 268 177 268 167 254.5 c 128,-1,8
 157 241 157 241 154 226 c 2,9,-1
 106 0 l 1,10,-1
 33 0 l 1,11,-1
 107 351 l 1,12,-1
 180 351 l 1,13,-1
 176 330 l 1,14,15
 195 341 195 341 217 348.5 c 128,-1,16
 239 356 239 356 262 356 c 0,17,18
 291 356 291 356 312 344 c 128,-1,19
 333 332 333 332 347 314 c 1,20,21
 372 331 372 331 405.5 343.5 c 128,-1,22
 439 356 439 356 471 356 c 0,23,24
 498 356 498 356 519 346 c 128,-1,25
 540 336 540 336 553.5 319 c 128,-1,26
 567 302 567 302 572 280 c 128,-1,27
 577 258 577 258 572 234 c 2,28,-1
 523 0 l 1,29,-1
 450 0 l 1,30,-1
 499 235 l 2,31,32
 504 258 504 258 492.5 279 c 128,-1,33
 481 300 481 300 459 300 c 0,34,35
 444 300 444 300 428.5 295 c 128,-1,36
 413 290 413 290 399.5 281 c 128,-1,37
 386 272 386 272 376.5 259.5 c 128,-1,38
 367 247 367 247 364 233 c 2,39,-1
 315 0 l 1,40,-1
 241 0 l 1,0,-1
EndSplineSet
KernsSLIFO: 88 -10 0 0 87 -18 0 0
EndChar
StartChar: n
Encoding: 110 110 79
Width: 392
Flags: W
Fore
330 235 m 2,0,1
 335 258 335 258 323.5 279 c 128,-1,2
 312 300 312 300 290 300 c 2,3,-1
 248 300 l 2,4,5
 234 300 234 300 219 293.5 c 128,-1,6
 204 287 204 287 191 276.5 c 128,-1,7
 178 266 178 266 168 252.5 c 128,-1,8
 158 239 158 239 152 225 c 1,9,-1
 105 0 l 1,10,-1
 31 0 l 1,11,-1
 105 351 l 1,12,-1
 179 351 l 1,13,-1
 175 330 l 1,14,15
 194 341 194 341 215.5 348.5 c 128,-1,16
 237 356 237 356 260 356 c 2,17,-1
 302 356 l 2,18,19
 329 356 329 356 350 346 c 128,-1,20
 371 336 371 336 384.5 319 c 128,-1,21
 398 302 398 302 403 280 c 128,-1,22
 408 258 408 258 403 234 c 2,23,-1
 354 0 l 1,24,-1
 281 0 l 1,25,-1
 330 235 l 2,0,1
EndSplineSet
KernsSLIFO: 90 -18 0 0 88 -10 0 0 87 -18 0 0
EndChar
StartChar: o
Encoding: 111 111 80
Width: 381
Flags: W
Fore
377 141 m 2,0,1
 371 111 371 111 353.5 84.5 c 128,-1,2
 336 58 336 58 311 38 c 128,-1,3
 286 18 286 18 255.5 6.5 c 128,-1,4
 225 -5 225 -5 194 -5 c 2,5,-1
 153 -5 l 2,6,7
 126 -5 126 -5 105 5 c 128,-1,8
 84 15 84 15 70.5 31.5 c 128,-1,9
 57 48 57 48 51.5 70.5 c 128,-1,10
 46 93 46 93 51 117 c 2,11,-1
 71 209 l 2,12,13
 77 239 77 239 95 265.5 c 128,-1,14
 113 292 113 292 138 312.5 c 128,-1,15
 163 333 163 333 193 344.5 c 128,-1,16
 223 356 223 356 254 356 c 2,17,-1
 295 356 l 2,18,19
 322 356 322 356 343.5 346 c 128,-1,20
 365 336 365 336 378.5 319 c 128,-1,21
 392 302 392 302 397 280 c 128,-1,22
 402 258 402 258 397 234 c 2,23,-1
 377 141 l 2,0,1
323 234 m 2,24,25
 328 257 328 257 316.5 278.5 c 128,-1,26
 305 300 305 300 283 300 c 2,27,-1
 242 300 l 2,28,29
 226 300 226 300 210 292.5 c 128,-1,30
 194 285 194 285 181 272 c 128,-1,31
 168 259 168 259 158.5 243 c 128,-1,32
 149 227 149 227 145 209 c 2,33,-1
 125 117 l 2,34,35
 120 93 120 93 131 71.5 c 128,-1,36
 142 50 142 50 165 50 c 2,37,-1
 206 50 l 2,38,39
 222 50 222 50 238 57.5 c 128,-1,40
 254 65 254 65 267.5 78 c 128,-1,41
 281 91 281 91 290.5 107.5 c 128,-1,42
 300 124 300 124 303 141 c 2,43,-1
 323 234 l 2,24,25
EndSplineSet
KernsSLIFO: 314 -40 0 0 90 -12 0 0 89 -18 0 0 87 -12 0 0 15 -40 0 0 13 -29 0 0
EndChar
StartChar: p
Encoding: 112 112 81
Width: 385
Flags: W
Fore
105 351 m 1,0,-1
 179 351 l 1,1,-1
 175 331 l 1,2,3
 192 342 192 342 213.5 349 c 128,-1,4
 235 356 235 356 258 356 c 2,5,-1
 300 356 l 2,6,7
 327 356 327 356 348 346 c 128,-1,8
 369 336 369 336 382.5 319 c 128,-1,9
 396 302 396 302 401 280 c 128,-1,10
 406 258 406 258 401 234 c 2,11,-1
 381 141 l 2,12,13
 375 111 375 111 357.5 84.5 c 128,-1,14
 340 58 340 58 315 38 c 128,-1,15
 290 18 290 18 259.5 6.5 c 128,-1,16
 229 -5 229 -5 198 -5 c 2,17,-1
 157 -5 l 2,18,19
 139 -5 139 -5 127.5 -1.5 c 128,-1,20
 116 2 116 2 107 10 c 1,21,-1
 78 -123 l 1,22,-1
 4 -123 l 1,23,-1
 105 351 l 1,0,-1
328 234 m 2,24,25
 331 246 331 246 329 257.5 c 128,-1,26
 327 269 327 269 321.5 278.5 c 128,-1,27
 316 288 316 288 307.5 294 c 128,-1,28
 299 300 299 300 288 300 c 2,29,-1
 246 300 l 2,30,31
 230 300 230 300 214.5 292.5 c 128,-1,32
 199 285 199 285 185.5 273 c 128,-1,33
 172 261 172 261 162.5 245.5 c 128,-1,34
 153 230 153 230 150 213 c 2,35,-1
 129 117 l 2,36,37
 127 105 127 105 129 93 c 128,-1,38
 131 81 131 81 136 71.5 c 128,-1,39
 141 62 141 62 149.5 56 c 128,-1,40
 158 50 158 50 169 50 c 2,41,-1
 210 50 l 2,42,43
 226 50 226 50 242 57.5 c 128,-1,44
 258 65 258 65 271.5 78 c 128,-1,45
 285 91 285 91 295 107.5 c 128,-1,46
 305 124 305 124 308 141 c 2,47,-1
 328 234 l 2,24,25
EndSplineSet
KernsSLIFO: 314 -18 0 0 90 -4 0 0 15 -18 0 0 13 -29 0 0
EndChar
StartChar: q
Encoding: 113 113 82
Width: 385
Flags: W
Fore
278 21 m 1,0,1
 259 10 259 10 236.5 2.5 c 128,-1,2
 214 -5 214 -5 194 -5 c 2,3,-1
 153 -5 l 2,4,5
 126 -5 126 -5 105 5 c 128,-1,6
 84 15 84 15 70.5 31.5 c 128,-1,7
 57 48 57 48 51.5 70.5 c 128,-1,8
 46 93 46 93 51 117 c 2,9,-1
 71 209 l 2,10,11
 77 239 77 239 95 265.5 c 128,-1,12
 113 292 113 292 138 312.5 c 128,-1,13
 163 333 163 333 193 344.5 c 128,-1,14
 223 356 223 356 254 356 c 2,15,-1
 295 356 l 2,16,17
 312 356 312 356 325 352 c 128,-1,18
 338 348 338 348 346 342 c 1,19,-1
 348 351 l 1,20,-1
 422 351 l 1,21,-1
 321 -123 l 1,22,-1
 247 -123 l 1,23,-1
 278 21 l 1,0,1
324 237 m 2,24,25
 326 260 326 260 314.5 279.5 c 128,-1,26
 303 299 303 299 283 299 c 2,27,-1
 242 299 l 2,28,29
 226 299 226 299 210 291.5 c 128,-1,30
 194 284 194 284 181 271.5 c 128,-1,31
 168 259 168 259 158.5 243 c 128,-1,32
 149 227 149 227 145 209 c 2,33,-1
 125 117 l 2,34,35
 120 93 120 93 131 71.5 c 128,-1,36
 142 50 142 50 165 50 c 2,37,-1
 206 50 l 2,38,39
 222 50 222 50 237.5 57.5 c 128,-1,40
 253 65 253 65 266 77 c 128,-1,41
 279 89 279 89 288.5 105 c 128,-1,42
 298 121 298 121 303 138 c 2,43,-1
 324 237 l 2,24,25
EndSplineSet
EndChar
StartChar: r
Encoding: 114 114 83
Width: 256
Flags: W
Fore
105 351 m 1,0,-1
 179 351 l 1,1,-1
 175 331 l 1,2,3
 192 341 192 341 215 348.5 c 128,-1,4
 238 356 238 356 258 356 c 2,5,-1
 314 356 l 1,6,-1
 302 300 l 1,7,-1
 246 300 l 2,8,9
 230 300 230 300 214.5 292 c 128,-1,10
 199 284 199 284 185.5 271 c 128,-1,11
 172 258 172 258 162 241.5 c 128,-1,12
 152 225 152 225 149 209 c 2,13,-1
 105 0 l 1,14,-1
 31 0 l 1,15,-1
 105 351 l 1,0,-1
EndSplineSet
KernsSLIFO: 314 -100 0 0 309 29 0 0 306 29 0 0 196 -10 0 0 185 -10 0 0 170 -10 0 0 168 -10 0 0 167 -39 0 0 82 -10 0 0 80 -10 0 0 72 -10 0 0 70 -10 0 0 69 -10 0 0 68 -10 0 0 66 -20 0 0 15 -80 0 0 14 -25 0 0 13 -60 0 0
EndChar
StartChar: s
Encoding: 115 115 84
Width: 413
Flags: W
Fore
170 161 m 2,0,1
 141 165 141 165 124.5 174.5 c 128,-1,2
 108 184 108 184 101 196.5 c 128,-1,3
 94 209 94 209 94 223 c 128,-1,4
 94 237 94 237 97 250 c 0,5,6
 103 276 103 276 120 296 c 128,-1,7
 137 316 137 316 159.5 329.5 c 128,-1,8
 182 343 182 343 207.5 349.5 c 128,-1,9
 233 356 233 356 256 356 c 2,10,-1
 326 356 l 2,11,12
 353 356 353 356 374.5 347 c 128,-1,13
 396 338 396 338 409.5 322 c 128,-1,14
 423 306 423 306 428.5 283.5 c 128,-1,15
 434 261 434 261 428 235 c 1,16,-1
 355 235 l 1,17,18
 361 261 361 261 348.5 280.5 c 128,-1,19
 336 300 336 300 314 300 c 2,20,-1
 244 300 l 2,21,22
 236 300 236 300 224.5 297 c 128,-1,23
 213 294 213 294 202 288 c 128,-1,24
 191 282 191 282 182.5 272.5 c 128,-1,25
 174 263 174 263 171 251 c 0,26,27
 169 243 169 243 172.5 232 c 128,-1,28
 176 221 176 221 196 216 c 0,29,30
 231 212 231 212 267 207.5 c 128,-1,31
 303 203 303 203 338 200 c 0,32,33
 368 195 368 195 383.5 183 c 128,-1,34
 399 171 399 171 405.5 157 c 128,-1,35
 412 143 412 143 412 128 c 128,-1,36
 412 113 412 113 409 101 c 0,37,38
 404 78 404 78 389.5 58.5 c 128,-1,39
 375 39 375 39 353 25 c 128,-1,40
 331 11 331 11 304.5 3 c 128,-1,41
 278 -5 278 -5 249 -5 c 2,42,-1
 153 -5 l 2,43,44
 99 -5 99 -5 70 29 c 128,-1,45
 41 63 41 63 52 115 c 1,46,-1
 125 115 l 1,47,48
 119 88 119 88 130.5 69 c 128,-1,49
 142 50 142 50 165 50 c 2,50,-1
 261 50 l 2,51,52
 269 50 269 50 280.5 53.5 c 128,-1,53
 292 57 292 57 303.5 63 c 128,-1,54
 315 69 315 69 324 78.5 c 128,-1,55
 333 88 333 88 336 100 c 0,56,57
 339 116 339 116 335.5 129 c 128,-1,58
 332 142 332 142 311 144 c 2,59,-1
 170 161 l 2,0,1
EndSplineSet
EndChar
StartChar: t
Encoding: 116 116 85
Width: 235
Flags: W
Fore
143 300 m 1,0,-1
 77 300 l 1,1,-1
 88 351 l 1,2,-1
 154 351 l 1,3,-1
 182 484 l 1,4,-1
 256 484 l 1,5,-1
 228 351 l 1,6,-1
 292 351 l 1,7,-1
 281 300 l 1,8,-1
 217 300 l 1,9,-1
 154 0 l 1,10,-1
 80 0 l 1,11,-1
 143 300 l 1,0,-1
EndSplineSet
KernsSLIFO: 309 18 0 0 306 18 0 0 85 -40 0 0
EndChar
StartChar: u
Encoding: 117 117 86
Width: 388
Flags: W
Fore
129 115 m 2,0,1
 124 91 124 91 133.5 70.5 c 128,-1,2
 143 50 143 50 166 50 c 2,3,-1
 207 50 l 2,4,5
 221 50 221 50 236 56.5 c 128,-1,6
 251 63 251 63 264 73.5 c 128,-1,7
 277 84 277 84 287.5 97.5 c 128,-1,8
 298 111 298 111 304 125 c 1,9,-1
 352 351 l 1,10,-1
 425 351 l 1,11,-1
 351 0 l 1,12,-1
 278 0 l 1,13,-1
 282 21 l 1,14,15
 263 10 263 10 240 2.5 c 128,-1,16
 217 -5 217 -5 195 -5 c 2,17,-1
 154 -5 l 2,18,19
 127 -5 127 -5 106.5 5 c 128,-1,20
 86 15 86 15 73 31.5 c 128,-1,21
 60 48 60 48 55 70.5 c 128,-1,22
 50 93 50 93 55 117 c 2,23,-1
 105 351 l 1,24,-1
 179 351 l 1,25,-1
 129 115 l 2,0,1
EndSplineSet
EndChar
StartChar: v
Encoding: 118 118 87
Width: 380
Flags: W
Fore
221 -5 m 1,0,1
 189 -5 189 -5 166.5 5.5 c 128,-1,2
 144 16 144 16 139 36 c 2,3,-1
 86 351 l 1,4,-1
 161 351 l 1,5,-1
 205 92 l 1,6,7
 243 156 243 156 283 221.5 c 128,-1,8
 323 287 323 287 361 351 c 1,9,-1
 437 351 l 1,10,-1
 221 -5 l 1,0,1
EndSplineSet
KernsSLIFO: 314 -100 0 0 306 31 0 0 196 -12 0 0 185 -16 0 0 167 -39 0 0 80 -16 0 0 70 -16 0 0 66 -39 0 0 15 -100 0 0 13 -80 0 0
EndChar
StartChar: w
Encoding: 119 119 88
Width: 605
Flags: W
Fore
349 245 m 1,0,1
 314 183 314 183 277.5 120 c 128,-1,2
 241 57 241 57 206 -5 c 1,3,4
 181 -5 181 -5 163.5 3.5 c 128,-1,5
 146 12 146 12 142 27 c 2,6,-1
 87 351 l 1,7,-1
 164 351 l 1,8,-1
 200 100 l 1,9,-1
 343 357 l 1,10,11
 368 357 368 357 387 348.5 c 128,-1,12
 406 340 406 340 409 323 c 2,13,-1
 438 101 l 1,14,-1
 580 351 l 1,15,-1
 655 351 l 1,16,-1
 465 27 l 2,17,18
 455 11 455 11 432.5 3 c 128,-1,19
 410 -5 410 -5 386 -5 c 1,20,-1
 349 245 l 1,0,1
EndSplineSet
KernsSLIFO: 314 -68 0 0 306 20 0 0 167 -18 0 0 66 -18 0 0 15 -68 0 0 14 -18 0 0 13 -68 0 0
EndChar
StartChar: x
Encoding: 120 120 89
Width: 405
Flags: W
Fore
366 351 m 1,0,-1
 452 351 l 1,1,-1
 284 185 l 1,2,3
 310 141 310 141 341 92.5 c 128,-1,4
 372 44 372 44 399 0 c 1,5,-1
 310 0 l 1,6,-1
 227 133 l 1,7,8
 192 100 192 100 157 66.5 c 128,-1,9
 122 33 122 33 89 0 c 1,10,-1
 1 0 l 1,11,-1
 192 185 l 1,12,13
 169 223 169 223 142 268 c 128,-1,14
 115 313 115 313 95 351 c 1,15,-1
 181 351 l 1,16,-1
 249 236 l 1,17,-1
 366 351 l 1,0,-1
EndSplineSet
KernsSLIFO: 196 -18 0 0 185 -25 0 0 168 -18 0 0 80 -25 0 0 72 -10 0 0 70 -25 0 0 69 -10 0 0 68 -18 0 0 14 -20 0 0
EndChar
StartChar: y
Encoding: 121 121 90
Width: 389
Flags: W
Fore
104 -34 m 1,0,1
 109 -48 109 -48 119.5 -59 c 128,-1,2
 130 -70 130 -70 144 -70 c 2,3,-1
 185 -70 l 2,4,5
 200 -70 200 -70 215 -64.5 c 128,-1,6
 230 -59 230 -59 243 -49 c 128,-1,7
 256 -39 256 -39 265.5 -26 c 128,-1,8
 275 -13 275 -13 278 2 c 2,9,-1
 287 45 l 1,10,11
 268 34 268 34 246 26.5 c 128,-1,12
 224 19 224 19 201 19 c 2,13,-1
 160 19 l 2,14,15
 133 19 133 19 112 29 c 128,-1,16
 91 39 91 39 78 56 c 128,-1,17
 65 73 65 73 60.5 95.5 c 128,-1,18
 56 118 56 118 61 142 c 2,19,-1
 105 351 l 1,20,-1
 179 351 l 1,21,-1
 134 141 l 2,22,23
 129 117 129 117 139 96.5 c 128,-1,24
 149 76 149 76 172 76 c 2,25,-1
 213 76 l 2,26,27
 227 76 227 76 242 82 c 128,-1,28
 257 88 257 88 270 98.5 c 128,-1,29
 283 109 283 109 293 122.5 c 128,-1,30
 303 136 303 136 309 150 c 1,31,-1
 352 351 l 1,32,-1
 425 351 l 1,33,-1
 351 2 l 2,34,35
 345 -24 345 -24 326.5 -46.5 c 128,-1,36
 308 -69 308 -69 282 -85.5 c 128,-1,37
 256 -102 256 -102 227 -112 c 128,-1,38
 198 -122 198 -122 171 -122 c 2,39,-1
 130 -122 l 2,40,41
 87 -122 87 -122 58 -97 c 128,-1,42
 29 -72 29 -72 23 -34 c 1,43,-1
 104 -34 l 1,0,1
EndSplineSet
KernsSLIFO: 314 -40 0 0 306 31 0 0 196 -12 0 0 185 -16 0 0 168 -16 0 0 167 -20 0 0 80 -16 0 0 15 -30 0 0
EndChar
StartChar: z
Encoding: 122 122 91
Width: 407
Flags: W
Fore
367 0 m 1,0,-1
 21 0 l 1,1,-1
 314 300 l 1,2,-1
 101 300 l 1,3,-1
 112 351 l 1,4,-1
 455 351 l 1,5,-1
 159 50 l 1,6,-1
 377 50 l 1,7,-1
 367 0 l 1,0,-1
EndSplineSet
KernsSLIFO: 185 -10 0 0 168 -10 0 0 82 -10 0 0 80 -10 0 0 72 -10 0 0 70 -10 0 0 69 -10 0 0 68 -10 0 0 14 -18 0 0
EndChar
StartChar: braceleft
Encoding: 123 123 92
Width: 311
Flags: W
Fore
172 -58 m 2,0,1
 168 -75 168 -75 181 -81.5 c 128,-1,2
 194 -88 194 -88 211 -88 c 2,3,-1
 249 -88 l 1,4,-1
 238 -141 l 1,5,-1
 200 -141 l 2,6,7
 177 -141 177 -141 157 -136.5 c 128,-1,8
 137 -132 137 -132 123 -122.5 c 128,-1,9
 109 -113 109 -113 102.5 -98 c 128,-1,10
 96 -83 96 -83 101 -61 c 2,11,-1
 132 86 l 2,12,13
 135 101 135 101 128.5 117 c 128,-1,14
 122 133 122 133 111 146 c 128,-1,15
 100 159 100 159 87 167.5 c 128,-1,16
 74 176 74 176 63 176 c 1,17,-1
 66 192 l 1,18,19
 77 192 77 192 93.5 199 c 128,-1,20
 110 206 110 206 126.5 218.5 c 128,-1,21
 143 231 143 231 156.5 247.5 c 128,-1,22
 170 264 170 264 174 283 c 2,23,-1
 211 459 l 2,24,25
 215 481 215 481 228 496.5 c 128,-1,26
 241 512 241 512 259 522 c 128,-1,27
 277 532 277 532 299 536.5 c 128,-1,28
 321 541 321 541 344 541 c 2,29,-1
 382 541 l 1,30,-1
 371 488 l 1,31,-1
 333 488 l 2,32,33
 316 488 316 488 301 481 c 128,-1,34
 286 474 286 474 281 456 c 2,35,-1
 245 283 l 2,36,37
 241 264 241 264 232 248 c 128,-1,38
 223 232 223 232 211.5 219 c 128,-1,39
 200 206 200 206 187.5 197 c 128,-1,40
 175 188 175 188 164 182 c 1,41,42
 172 175 172 175 180.5 165 c 128,-1,43
 189 155 189 155 195 143 c 128,-1,44
 201 131 201 131 203.5 116.5 c 128,-1,45
 206 102 206 102 203 86 c 2,46,-1
 172 -58 l 2,0,1
EndSplineSet
KernsSLIFO: 75 80 0 0
EndChar
StartChar: bar
Encoding: 124 124 93
Width: 184
Flags: W
Fore
178 583 m 1,0,-1
 250 583 l 1,1,-1
 105 -99 l 1,2,-1
 33 -99 l 1,3,-1
 178 583 l 1,0,-1
EndSplineSet
EndChar
StartChar: braceright
Encoding: 125 125 94
Width: 311
Flags: W
Fore
139 86 m 2,0,1
 142 102 142 102 151 117 c 128,-1,2
 160 132 160 132 171 144.5 c 128,-1,3
 182 157 182 157 194.5 166.5 c 128,-1,4
 207 176 207 176 217 183 c 1,5,6
 201 194 201 194 187 220 c 128,-1,7
 173 246 173 246 181 283 c 2,8,-1
 217 456 l 2,9,10
 222 474 222 474 208.5 481 c 128,-1,11
 195 488 195 488 178 488 c 2,12,-1
 140 488 l 1,13,-1
 151 541 l 1,14,-1
 189 541 l 2,15,16
 212 541 212 541 232 536.5 c 128,-1,17
 252 532 252 532 266.5 522 c 128,-1,18
 281 512 281 512 287 496.5 c 128,-1,19
 293 481 293 481 289 459 c 2,20,-1
 252 283 l 2,21,22
 248 264 248 264 254 247.5 c 128,-1,23
 260 231 260 231 271 218.5 c 128,-1,24
 282 206 282 206 295.5 199 c 128,-1,25
 309 192 309 192 320 192 c 1,26,-1
 317 176 l 1,27,28
 306 176 306 176 289 167.5 c 128,-1,29
 272 159 272 159 255.5 146 c 128,-1,30
 239 133 239 133 226 117 c 128,-1,31
 213 101 213 101 210 86 c 2,32,-1
 179 -61 l 2,33,34
 174 -83 174 -83 161 -98 c 128,-1,35
 148 -113 148 -113 130 -122.5 c 128,-1,36
 112 -132 112 -132 90 -136.5 c 128,-1,37
 68 -141 68 -141 45 -141 c 2,38,-1
 7 -141 l 1,39,-1
 18 -88 l 1,40,-1
 56 -88 l 2,41,42
 73 -88 73 -88 88.5 -81.5 c 128,-1,43
 104 -75 104 -75 108 -58 c 2,44,-1
 139 86 l 2,0,1
EndSplineSet
EndChar
StartChar: asciitilde
Encoding: 126 126 95
Width: 424
Flags: W
Fore
335 230 m 0,0,1
 352 230 352 230 370.5 251.5 c 128,-1,2
 389 273 389 273 401 306 c 1,3,-1
 464 306 l 1,4,5
 456 271 456 271 439.5 245.5 c 128,-1,6
 423 220 423 220 402.5 203 c 128,-1,7
 382 186 382 186 360.5 178 c 128,-1,8
 339 170 339 170 323 170 c 0,9,10
 301 170 301 170 285.5 175 c 128,-1,11
 270 180 270 180 259 187.5 c 128,-1,12
 248 195 248 195 240.5 204.5 c 128,-1,13
 233 214 233 214 227 223 c 0,14,15
 218 234 218 234 209.5 243.5 c 128,-1,16
 201 253 201 253 189 253 c 0,17,18
 172 253 172 253 153.5 231.5 c 128,-1,19
 135 210 135 210 124 177 c 1,20,-1
 61 177 l 1,21,22
 68 211 68 211 85 237 c 128,-1,23
 102 263 102 263 122.5 279.5 c 128,-1,24
 143 296 143 296 164.5 304.5 c 128,-1,25
 186 313 186 313 202 313 c 0,26,27
 238 313 238 313 254 298.5 c 128,-1,28
 270 284 270 284 282 267 c 0,29,30
 293 253 293 253 304 241.5 c 128,-1,31
 315 230 315 230 335 230 c 0,0,1
EndSplineSet
EndChar
StartChar: quotedbl
Encoding: 34 34 97
Width: 256
Flags: W
Fore
139 515 m 1,0,-1
 215 515 l 1,1,-1
 181 355 l 1,2,-1
 105 355 l 1,3,-1
 139 515 l 1,0,-1
254 515 m 1,4,-1
 330 515 l 1,5,-1
 296 355 l 1,6,-1
 220 355 l 1,7,-1
 254 515 l 1,4,-1
EndSplineSet
EndChar
StartChar: exclam
Encoding: 33 33 98
Width: 202
Flags: W
Fore
169 486 m 1,0,-1
 242 486 l 1,1,-1
 161 108 l 1,2,-1
 88 108 l 1,3,-1
 169 486 l 1,0,-1
69 38 m 0,4,5
 65 21 65 21 74.5 10 c 128,-1,6
 84 -1 84 -1 102 -1 c 256,7,8
 120 -1 120 -1 134.5 10 c 128,-1,9
 149 21 149 21 153 38 c 0,10,11
 156 55 156 55 146.5 66 c 128,-1,12
 137 77 137 77 119 77 c 256,13,14
 101 77 101 77 86.5 66 c 128,-1,15
 72 55 72 55 69 38 c 0,4,5
EndSplineSet
EndChar
StartChar: cent
Encoding: 162 162 101
Width: 415
Flags: W
Fore
256 118 m 2,0,1
 285 122 285 122 308.5 145 c 128,-1,2
 332 168 332 168 340 203 c 1,3,-1
 413 203 l 1,4,5
 407 176 407 176 392 152.5 c 128,-1,6
 377 129 377 129 356.5 111.5 c 128,-1,7
 336 94 336 94 311 82 c 128,-1,8
 286 70 286 70 260 65 c 1,9,-1
 244 -14 l 1,10,-1
 170 -14 l 1,11,-1
 186 63 l 1,12,13
 160 64 160 64 139.5 74 c 128,-1,14
 119 84 119 84 105.5 101 c 128,-1,15
 92 118 92 118 87.5 140 c 128,-1,16
 83 162 83 162 88 186 c 2,17,-1
 107 277 l 2,18,19
 113 304 113 304 127.5 328.5 c 128,-1,20
 142 353 142 353 162 372 c 128,-1,21
 182 391 182 391 207.5 404 c 128,-1,22
 233 417 233 417 262 421 c 1,23,-1
 279 502 l 1,24,-1
 353 502 l 1,25,-1
 336 423 l 1,26,27
 361 422 361 422 381.5 413 c 128,-1,28
 402 404 402 404 415 388 c 128,-1,29
 428 372 428 372 433 350 c 128,-1,30
 438 328 438 328 433 303 c 1,31,-1
 360 303 l 1,32,33
 366 330 366 330 354 349 c 128,-1,34
 342 368 342 368 320 368 c 2,35,-1
 266 368 l 1,36,37
 238 361 238 361 213 335 c 128,-1,38
 188 309 188 309 181 277 c 2,39,-1
 162 186 l 2,40,41
 157 162 157 162 168.5 140 c 128,-1,42
 180 118 180 118 202 118 c 2,43,-1
 256 118 l 2,0,1
EndSplineSet
EndChar
StartChar: sterling
Encoding: 163 163 102
Width: 415
Flags: W
Fore
257 206 m 1,0,1
 257 189 257 189 256 171.5 c 128,-1,2
 255 154 255 154 254 137 c 1,3,4
 249 116 249 116 231.5 93 c 128,-1,5
 214 70 214 70 194 55 c 1,6,-1
 396 55 l 1,7,-1
 385 0 l 1,8,-1
 41 0 l 1,9,-1
 52 55 l 1,10,11
 67 55 67 55 87.5 62 c 128,-1,12
 108 69 108 69 127.5 80 c 128,-1,13
 147 91 147 91 162 106 c 128,-1,14
 177 121 177 121 181 137 c 1,15,-1
 181 143 l 1,16,-1
 183 206 l 1,17,-1
 82 206 l 1,18,-1
 95 266 l 1,19,-1
 185 266 l 1,20,21
 187 292 187 292 190 306.5 c 128,-1,22
 193 321 193 321 198 344 c 0,23,24
 204 373 204 373 221.5 399.5 c 128,-1,25
 239 426 239 426 263.5 446 c 128,-1,26
 288 466 288 466 318.5 478 c 128,-1,27
 349 490 349 490 381 490 c 0,28,29
 406 490 406 490 427.5 480 c 128,-1,30
 449 470 449 470 464 453 c 1,31,-1
 408 400 l 1,32,33
 398 414 398 414 387.5 422 c 128,-1,34
 377 430 377 430 368 430 c 0,35,36
 351 430 351 430 335.5 423 c 128,-1,37
 320 416 320 416 306.5 404.5 c 128,-1,38
 293 393 293 393 283.5 377.5 c 128,-1,39
 274 362 274 362 270 344 c 0,40,41
 266 327 266 327 263 308 c 128,-1,42
 260 289 260 289 259 266 c 1,43,-1
 394 266 l 1,44,-1
 381 206 l 1,45,-1
 257 206 l 1,0,1
EndSplineSet
EndChar
StartChar: currency
Encoding: 164 164 103
Width: 525
Flags: W
Fore
117 122 m 1,0,1
 103 146 103 146 99.5 176 c 128,-1,2
 96 206 96 206 102 235 c 0,3,4
 109 266 109 266 124.5 295 c 128,-1,5
 140 324 140 324 166 350 c 1,6,-1
 134 391 l 1,7,-1
 189 436 l 1,8,-1
 225 393 l 1,9,10
 283 427 283 427 349 427 c 0,11,12
 381 427 381 427 409 418 c 128,-1,13
 437 409 437 409 459 392 c 1,14,-1
 514 436 l 1,15,-1
 550 391 l 1,16,-1
 498 349 l 1,17,18
 514 323 514 323 516.5 293.5 c 128,-1,19
 519 264 519 264 512 235 c 0,20,21
 506 206 506 206 490 177 c 128,-1,22
 474 148 474 148 450 123 c 1,23,-1
 484 80 l 1,24,-1
 428 36 l 1,25,-1
 393 79 l 1,26,27
 364 62 364 62 331.5 53 c 128,-1,28
 299 44 299 44 267 44 c 0,29,30
 234 44 234 44 205.5 52.5 c 128,-1,31
 177 61 177 61 157 79 c 1,32,-1
 104 36 l 1,33,-1
 68 80 l 1,34,-1
 117 122 l 1,0,1
336 369 m 0,35,36
 307 369 307 369 281 357.5 c 128,-1,37
 255 346 255 346 233.5 327 c 128,-1,38
 212 308 212 308 197 284 c 128,-1,39
 182 260 182 260 176 235 c 0,40,41
 170 208 170 208 175.5 184 c 128,-1,42
 181 160 181 160 194.5 141.5 c 128,-1,43
 208 123 208 123 230 112.5 c 128,-1,44
 252 102 252 102 279 102 c 256,45,46
 306 102 306 102 332 112.5 c 128,-1,47
 358 123 358 123 380 141.5 c 128,-1,48
 402 160 402 160 417 184 c 128,-1,49
 432 208 432 208 438 235 c 256,50,51
 444 262 444 262 439 286 c 128,-1,52
 434 310 434 310 420 328.5 c 128,-1,53
 406 347 406 347 384.5 358 c 128,-1,54
 363 369 363 369 336 369 c 0,35,36
EndSplineSet
EndChar
StartChar: yen
Encoding: 165 165 104
Width: 415
Flags: W
Fore
196 172 m 1,0,-1
 84 172 l 1,1,-1
 96 230 l 1,2,-1
 208 230 l 1,3,-1
 211 240 l 1,4,-1
 94 484 l 1,5,-1
 175 484 l 1,6,-1
 259 300 l 1,7,-1
 423 484 l 1,8,-1
 503 484 l 1,9,-1
 284 241 l 1,10,-1
 281 230 l 1,11,-1
 395 230 l 1,12,-1
 383 172 l 1,13,-1
 269 172 l 1,14,-1
 233 0 l 1,15,-1
 160 0 l 1,16,-1
 196 172 l 1,0,-1
EndSplineSet
EndChar
StartChar: brokenbar
Encoding: 166 166 105
Width: 177
Flags: W
Fore
117 292 m 1,0,-1
 178 583 l 1,1,-1
 250 583 l 1,2,-1
 189 292 l 1,3,-1
 117 292 l 1,0,-1
173 218 m 1,4,-1
 105 -99 l 1,5,-1
 33 -99 l 1,6,-1
 101 218 l 1,7,-1
 173 218 l 1,4,-1
EndSplineSet
EndChar
StartChar: section
Encoding: 167 167 106
Width: 433
Flags: W
Fore
144 398 m 0,0,1
 150 424 150 424 167 444 c 128,-1,2
 184 464 184 464 206.5 477.5 c 128,-1,3
 229 491 229 491 254.5 497.5 c 128,-1,4
 280 504 280 504 303 504 c 2,5,-1
 374 504 l 2,6,7
 401 504 401 504 422.5 495 c 128,-1,8
 444 486 444 486 457.5 470 c 128,-1,9
 471 454 471 454 476.5 432 c 128,-1,10
 482 410 482 410 476 384 c 1,11,-1
 402 384 l 1,12,13
 408 410 408 410 396 429.5 c 128,-1,14
 384 449 384 449 362 449 c 2,15,-1
 291 449 l 2,16,17
 283 449 283 449 271.5 446 c 128,-1,18
 260 443 260 443 248.5 436.5 c 128,-1,19
 237 430 237 430 228 420.5 c 128,-1,20
 219 411 219 411 216 399 c 0,21,22
 214 392 214 392 219.5 382 c 128,-1,23
 225 372 225 372 245 364 c 2,24,-1
 381 316 l 2,25,26
 408 307 408 307 423 295 c 128,-1,27
 438 283 438 283 445 269.5 c 128,-1,28
 452 256 452 256 452.5 242.5 c 128,-1,29
 453 229 453 229 450 217 c 0,30,31
 444 191 444 191 427 171 c 128,-1,32
 410 151 410 151 384 137 c 1,33,34
 398 120 398 120 400 103 c 128,-1,35
 402 86 402 86 399 71 c 0,36,37
 394 48 394 48 379.5 28.5 c 128,-1,38
 365 9 365 9 343.5 -5 c 128,-1,39
 322 -19 322 -19 295 -27 c 128,-1,40
 268 -35 268 -35 240 -35 c 2,41,-1
 143 -35 l 2,42,43
 89 -35 89 -35 60 -1 c 128,-1,44
 31 33 31 33 42 85 c 1,45,-1
 114 85 l 1,46,47
 108 59 108 59 120.5 39.5 c 128,-1,48
 133 20 133 20 155 20 c 2,49,-1
 252 20 l 2,50,51
 259 20 259 20 270.5 23.5 c 128,-1,52
 282 27 282 27 293.5 33.5 c 128,-1,53
 305 40 305 40 314 49 c 128,-1,54
 323 58 323 58 325 70 c 0,55,56
 329 87 329 87 324 97 c 128,-1,57
 319 107 319 107 300 114 c 2,58,-1
 163 163 l 2,59,60
 137 172 137 172 121.5 182.5 c 128,-1,61
 106 193 106 193 99 204.5 c 128,-1,62
 92 216 92 216 91 228 c 128,-1,63
 90 240 90 240 93 252 c 0,64,65
 99 279 99 279 119 300 c 128,-1,66
 139 321 139 321 165 335 c 1,67,68
 145 350 145 350 142.5 365.5 c 128,-1,69
 140 381 140 381 144 398 c 0,0,1
376 216 m 0,70,71
 380 233 380 233 374.5 243.5 c 128,-1,72
 369 254 369 254 350 261 c 0,73,74
 322 271 322 271 292 282 c 128,-1,75
 262 293 262 293 234 302 c 1,76,77
 225 300 225 300 214.5 296.5 c 128,-1,78
 204 293 204 293 194 287 c 128,-1,79
 184 281 184 281 176 272.5 c 128,-1,80
 168 264 168 264 166 253 c 0,81,82
 164 245 164 245 168 235.5 c 128,-1,83
 172 226 172 226 195 218 c 2,84,-1
 324 171 l 1,85,86
 339 177 339 177 356.5 189.5 c 128,-1,87
 374 202 374 202 376 216 c 0,70,71
EndSplineSet
EndChar
StartChar: dieresis
Encoding: 168 168 107
Width: 255
Flags: W
Fore
94 440 m 0,0,1
 98 458 98 458 114.5 470 c 128,-1,2
 131 482 131 482 153 482 c 256,3,4
 175 482 175 482 186.5 470 c 128,-1,5
 198 458 198 458 194 440 c 0,6,7
 190 421 190 421 173.5 409 c 128,-1,8
 157 397 157 397 135 397 c 256,9,10
 113 397 113 397 101.5 409 c 128,-1,11
 90 421 90 421 94 440 c 0,0,1
241 440 m 0,12,13
 245 458 245 458 262 470 c 128,-1,14
 279 482 279 482 300 482 c 256,15,16
 321 482 321 482 332.5 470 c 128,-1,17
 344 458 344 458 340 440 c 0,18,19
 336 421 336 421 319.5 409 c 128,-1,20
 303 397 303 397 282 397 c 256,21,22
 261 397 261 397 249 409 c 128,-1,23
 237 421 237 421 241 440 c 0,12,13
EndSplineSet
EndChar
StartChar: copyright
Encoding: 169 169 108
Width: 526
Flags: W
Fore
360 469 m 0,0,1
 409 469 409 469 448 450 c 128,-1,2
 487 431 487 431 512.5 399.5 c 128,-1,3
 538 368 538 368 547.5 327 c 128,-1,4
 557 286 557 286 548 241 c 0,5,6
 538 195 538 195 511 154 c 128,-1,7
 484 113 484 113 445.5 82 c 128,-1,8
 407 51 407 51 360 33 c 128,-1,9
 313 15 313 15 264 15 c 0,10,11
 214 15 214 15 175 33 c 128,-1,12
 136 51 136 51 110.5 82 c 128,-1,13
 85 113 85 113 75.5 154 c 128,-1,14
 66 195 66 195 76 241 c 0,15,16
 85 284 85 284 111 325 c 128,-1,17
 137 366 137 366 175 398 c 128,-1,18
 213 430 213 430 260.5 449.5 c 128,-1,19
 308 469 308 469 360 469 c 0,0,1
349 418 m 0,20,21
 311 418 311 418 276 403 c 128,-1,22
 241 388 241 388 213 363 c 128,-1,23
 185 338 185 338 165.5 306 c 128,-1,24
 146 274 146 274 139 241 c 0,25,26
 131 205 131 205 138 173.5 c 128,-1,27
 145 142 145 142 163.5 118 c 128,-1,28
 182 94 182 94 210.5 80 c 128,-1,29
 239 66 239 66 275 66 c 256,30,31
 311 66 311 66 345.5 80 c 128,-1,32
 380 94 380 94 408.5 118 c 128,-1,33
 437 142 437 142 457 173.5 c 128,-1,34
 477 205 477 205 485 241 c 0,35,36
 492 276 492 276 485.5 308 c 128,-1,37
 479 340 479 340 460.5 364.5 c 128,-1,38
 442 389 442 389 413.5 403.5 c 128,-1,39
 385 418 385 418 349 418 c 0,20,21
369 285 m 1,40,41
 373 302 373 302 367 314 c 128,-1,42
 361 326 361 326 349 326 c 2,43,-1
 321 326 l 2,44,45
 302 326 302 326 284.5 307.5 c 128,-1,46
 267 289 267 289 262 266 c 2,47,-1
 249 207 l 2,48,49
 246 193 246 193 252 179 c 128,-1,50
 258 165 258 165 271 165 c 2,51,-1
 299 165 l 2,52,53
 319 165 319 165 335.5 179.5 c 128,-1,54
 352 194 352 194 357 220 c 1,55,-1
 422 220 l 1,56,57
 412 172 412 172 373.5 144 c 128,-1,58
 335 116 335 116 288 116 c 2,59,-1
 259 116 l 2,60,61
 239 116 239 116 224 123.5 c 128,-1,62
 209 131 209 131 199 143 c 128,-1,63
 189 155 189 155 185 171 c 128,-1,64
 181 187 181 187 185 204 c 2,65,-1
 198 268 l 2,66,67
 203 290 203 290 215.5 309 c 128,-1,68
 228 328 228 328 246 342.5 c 128,-1,69
 264 357 264 357 286 365.5 c 128,-1,70
 308 374 308 374 331 374 c 2,71,-1
 360 374 l 2,72,73
 401 374 401 374 421.5 348.5 c 128,-1,74
 442 323 442 323 434 285 c 1,75,-1
 369 285 l 1,40,41
EndSplineSet
EndChar
StartChar: logicalnot
Encoding: 172 172 111
Width: 465
Flags: W
Fore
377 92 m 1,0,-1
 409 243 l 1,1,-1
 75 243 l 1,2,-1
 88 303 l 1,3,-1
 496 303 l 1,4,-1
 451 92 l 1,5,-1
 377 92 l 1,0,-1
EndSplineSet
EndChar
StartChar: registered
Encoding: 174 174 112
Width: 399
Flags: W
Fore
304 503 m 0,0,1
 341 503 341 503 371.5 489 c 128,-1,2
 402 475 402 475 421.5 451 c 128,-1,3
 441 427 441 427 448.5 395.5 c 128,-1,4
 456 364 456 364 449 330 c 0,5,6
 441 296 441 296 420.5 265 c 128,-1,7
 400 234 400 234 370.5 210.5 c 128,-1,8
 341 187 341 187 305 173 c 128,-1,9
 269 159 269 159 231 159 c 256,10,11
 193 159 193 159 163 173 c 128,-1,12
 133 187 133 187 113.5 210.5 c 128,-1,13
 94 234 94 234 86.5 265 c 128,-1,14
 79 296 79 296 87 330 c 0,15,16
 94 362 94 362 114 393 c 128,-1,17
 134 424 134 424 163 448.5 c 128,-1,18
 192 473 192 473 228.5 488 c 128,-1,19
 265 503 265 503 304 503 c 0,0,1
296 464 m 0,20,21
 268 464 268 464 241.5 452.5 c 128,-1,22
 215 441 215 441 194 422 c 128,-1,23
 173 403 173 403 158 379 c 128,-1,24
 143 355 143 355 138 330 c 0,25,26
 132 303 132 303 137 278.5 c 128,-1,27
 142 254 142 254 156 236 c 128,-1,28
 170 218 170 218 191 207 c 128,-1,29
 212 196 212 196 239 196 c 256,30,31
 266 196 266 196 292.5 207 c 128,-1,32
 319 218 319 218 341 236 c 128,-1,33
 363 254 363 254 378.5 278.5 c 128,-1,34
 394 303 394 303 400 330 c 256,35,36
 406 357 406 357 400.5 381.5 c 128,-1,37
 395 406 395 406 381 424 c 128,-1,38
 367 442 367 442 345 453 c 128,-1,39
 323 464 323 464 296 464 c 0,20,21
216 415 m 1,40,-1
 309 415 l 2,41,42
 332 415 332 415 344 400 c 128,-1,43
 356 385 356 385 351 365 c 0,44,45
 348 350 348 350 335 337.5 c 128,-1,46
 322 325 322 325 305 322 c 1,47,48
 305 321 305 321 305.5 320.5 c 128,-1,49
 306 320 306 320 306 319 c 1,50,-1
 306 320 l 1,51,-1
 340 250 l 1,52,-1
 286 250 l 1,53,-1
 256 312 l 1,54,-1
 257 311 l 1,55,56
 251 319 251 319 249 319 c 2,57,-1
 244 319 l 1,58,-1
 230 250 l 1,59,-1
 181 250 l 1,60,-1
 216 415 l 1,40,-1
255 384 m 1,61,-1
 248 352 l 1,62,-1
 295 352 l 2,63,64
 299 352 299 352 303 356 c 128,-1,65
 307 360 307 360 308 366 c 1,66,67
 310 372 310 372 308 378 c 128,-1,68
 306 384 306 384 302 384 c 2,69,-1
 255 384 l 1,61,-1
EndSplineSet
EndChar
StartChar: macron
Encoding: 175 175 113
Width: 261
Flags: W
Fore
110 417 m 1,0,-1
 122 472 l 1,1,-1
 334 472 l 1,2,-1
 322 417 l 1,3,-1
 110 417 l 1,0,-1
EndSplineSet
EndChar
StartChar: degree
Encoding: 176 176 114
Width: 239
Flags: W
Fore
101 412 m 0,0,1
 105 431 105 431 117 448.5 c 128,-1,2
 129 466 129 466 145.5 479 c 128,-1,3
 162 492 162 492 182.5 499.5 c 128,-1,4
 203 507 203 507 224 507 c 0,5,6
 268 507 268 507 292.5 479 c 128,-1,7
 317 451 317 451 309 412 c 0,8,9
 305 392 305 392 293 374.5 c 128,-1,10
 281 357 281 357 264 344.5 c 128,-1,11
 247 332 247 332 226.5 324.5 c 128,-1,12
 206 317 206 317 184 317 c 0,13,14
 141 317 141 317 117 344.5 c 128,-1,15
 93 372 93 372 101 412 c 0,0,1
159 412 m 0,16,17
 154 392 154 392 164.5 377 c 128,-1,18
 175 362 175 362 193 362 c 0,19,20
 212 362 212 362 229 377 c 128,-1,21
 246 392 246 392 251 412 c 0,22,23
 256 433 256 433 244.5 447 c 128,-1,24
 233 461 233 461 214 461 c 0,25,26
 196 461 196 461 180 447 c 128,-1,27
 164 433 164 433 159 412 c 0,16,17
EndSplineSet
EndChar
StartChar: plusminus
Encoding: 177 177 115
Width: 465
Flags: W
Fore
309 220 m 1,0,-1
 281 89 l 1,1,-1
 212 89 l 1,2,-1
 240 220 l 1,3,-1
 103 220 l 1,4,-1
 115 277 l 1,5,-1
 252 277 l 1,6,-1
 280 409 l 1,7,-1
 349 409 l 1,8,-1
 321 277 l 1,9,-1
 458 277 l 1,10,-1
 446 220 l 1,11,-1
 309 220 l 1,0,-1
57 4 m 1,12,-1
 69 59 l 1,13,-1
 412 59 l 1,14,-1
 400 4 l 1,15,-1
 57 4 l 1,12,-1
EndSplineSet
EndChar
StartChar: twosuperior
Encoding: 178 178 116
Width: 285
Flags: W
Fore
250 498 m 2,0,1
 298 498 298 498 318.5 474.5 c 128,-1,2
 339 451 339 451 330 409 c 0,3,4
 325 387 325 387 314 371.5 c 128,-1,5
 303 356 303 356 273 337 c 2,6,-1
 157 265 l 2,7,8
 145 258 145 258 139.5 250.5 c 128,-1,9
 134 243 134 243 131 234 c 1,10,-1
 298 234 l 1,11,-1
 289 189 l 1,12,-1
 64 189 l 1,13,-1
 72 227 l 2,14,15
 77 250 77 250 91 268 c 128,-1,16
 105 286 105 286 125 299 c 2,17,-1
 259 382 l 2,18,19
 264 385 264 385 268.5 393 c 128,-1,20
 273 401 273 401 275 409 c 0,21,22
 280 430 280 430 271.5 442 c 128,-1,23
 263 454 263 454 242 454 c 2,24,-1
 232 454 l 2,25,26
 215 454 215 454 195 442 c 128,-1,27
 175 430 175 430 157 413 c 1,28,-1
 122 444 l 1,29,30
 148 470 148 470 179 484 c 128,-1,31
 210 498 210 498 241 498 c 2,32,-1
 250 498 l 2,0,1
EndSplineSet
EndChar
StartChar: threesuperior
Encoding: 179 179 117
Width: 270
Flags: W
Fore
163 384 m 1,0,-1
 234 384 l 2,1,2
 244 385 244 385 252 391 c 128,-1,3
 260 397 260 397 262 408 c 0,4,5
 271 453 271 453 229 453 c 2,6,-1
 218 453 l 2,7,8
 201 453 201 453 180.5 441.5 c 128,-1,9
 160 430 160 430 142 414 c 1,10,-1
 109 444 l 1,11,12
 134 469 134 469 164.5 483.5 c 128,-1,13
 195 498 195 498 227 498 c 2,14,-1
 238 498 l 2,15,16
 286 498 286 498 306.5 474 c 128,-1,17
 327 450 327 450 318 408 c 0,18,19
 316 396 316 396 309 384.5 c 128,-1,20
 302 373 302 373 293 364 c 1,21,22
 305 351 305 351 309.5 333 c 128,-1,23
 314 315 314 315 310 297 c 0,24,25
 304 272 304 272 290 251.5 c 128,-1,26
 276 231 276 231 256.5 217 c 128,-1,27
 237 203 237 203 213 195 c 128,-1,28
 189 187 189 187 163 187 c 0,29,30
 125 187 125 187 101 202 c 128,-1,31
 77 217 77 217 59 247 c 1,32,-1
 107 280 l 1,33,34
 121 259 121 259 137.5 245 c 128,-1,35
 154 231 154 231 174 231 c 0,36,37
 200 231 200 231 224 250.5 c 128,-1,38
 248 270 248 270 254 297 c 0,39,40
 257 313 257 313 248.5 326.5 c 128,-1,41
 240 340 240 340 223 340 c 2,42,-1
 154 340 l 1,43,-1
 163 384 l 1,0,-1
EndSplineSet
EndChar
StartChar: acute
Encoding: 180 180 118
Width: 126
Flags: W
Fore
169 495 m 1,0,-1
 245 495 l 1,1,-1
 133 370 l 1,2,-1
 56 370 l 1,3,-1
 169 495 l 1,0,-1
EndSplineSet
EndChar
StartChar: mu
Encoding: 956 181 119
AltUni: 956
Width: 393
Flags: W
Fore
5 -122 m 1,0,-1
 105 351 l 1,1,-1
 179 351 l 1,2,-1
 129 115 l 2,3,4
 124 91 124 91 133.5 70.5 c 128,-1,5
 143 50 143 50 166 50 c 2,6,-1
 207 50 l 2,7,8
 221 50 221 50 236 56.5 c 128,-1,9
 251 63 251 63 264 73.5 c 128,-1,10
 277 84 277 84 287.5 97.5 c 128,-1,11
 298 111 298 111 304 125 c 1,12,-1
 352 351 l 1,13,-1
 425 351 l 1,14,-1
 351 0 l 1,15,-1
 278 0 l 1,16,-1
 282 21 l 1,17,18
 263 10 263 10 240 2.5 c 128,-1,19
 217 -5 217 -5 195 -5 c 2,20,-1
 154 -5 l 2,21,22
 141 -5 141 -5 128.5 -2 c 128,-1,23
 116 1 116 1 106 6 c 1,24,-1
 79 -122 l 1,25,-1
 5 -122 l 1,0,-1
EndSplineSet
EndChar
StartChar: paragraph
Encoding: 182 182 120
Width: 446
Flags: W
Fore
532 486 m 1,0,-1
 420 -39 l 1,1,-1
 352 -39 l 1,2,-1
 451 426 l 1,3,-1
 403 426 l 1,4,-1
 304 -39 l 1,5,-1
 237 -39 l 1,6,-1
 285 186 l 1,7,-1
 206 186 l 2,8,9
 177 186 177 186 154 198.5 c 128,-1,10
 131 211 131 211 116 231.5 c 128,-1,11
 101 252 101 252 95.5 278.5 c 128,-1,12
 90 305 90 305 96 334 c 256,13,14
 102 363 102 363 119 390 c 128,-1,15
 136 417 136 417 159.5 438 c 128,-1,16
 183 459 183 459 211.5 471.5 c 128,-1,17
 240 484 240 484 269 484 c 2,18,-1
 532 486 l 1,0,-1
EndSplineSet
EndChar
StartChar: periodcentered
Encoding: 183 183 121
Width: 254
Flags: W
Fore
109 235 m 256,0,1
 114 260 114 260 136 276.5 c 128,-1,2
 158 293 158 293 187 293 c 256,3,4
 216 293 216 293 230 276.5 c 128,-1,5
 244 260 244 260 239 235 c 256,6,7
 234 210 234 210 212.5 194 c 128,-1,8
 191 178 191 178 162 178 c 256,9,10
 133 178 133 178 118.5 194 c 128,-1,11
 104 210 104 210 109 235 c 256,0,1
EndSplineSet
EndChar
StartChar: cedilla
Encoding: 184 184 122
Width: 229
Flags: W
Fore
83 -92 m 0,0,1
 91 -94 91 -94 101.5 -90.5 c 128,-1,2
 112 -87 112 -87 114 -77 c 0,3,4
 117 -62 117 -62 101 -54 c 0,5,6
 79 -43 79 -43 72 -33 c 128,-1,7
 65 -23 65 -23 70 -3 c 2,8,-1
 75 19 l 1,9,-1
 140 19 l 1,10,-1
 135 -3 l 1,11,-1
 134 -1 l 1,12,13
 135 -12 135 -12 138.5 -15 c 128,-1,14
 142 -18 142 -18 147 -21 c 1,15,-1
 143 -20 l 1,16,17
 147 -22 147 -22 148 -22 c 1,18,19
 158 -30 158 -30 166.5 -42 c 128,-1,20
 175 -54 175 -54 171 -71 c 0,21,22
 164 -103 164 -103 138.5 -115 c 128,-1,23
 113 -127 113 -127 81 -127 c 2,24,-1
 72 -127 l 2,25,26
 40 -123 40 -123 24 -106 c 128,-1,27
 8 -89 8 -89 16 -53 c 1,28,-1
 65 -53 l 1,29,30
 62 -68 62 -68 65.5 -78 c 128,-1,31
 69 -88 69 -88 83 -92 c 0,0,1
EndSplineSet
EndChar
StartChar: onesuperior
Encoding: 185 185 123
Width: 239
Flags: W
Fore
139 189 m 1,0,-1
 181 389 l 1,1,2
 155 379 155 379 113 379 c 1,3,-1
 122 423 l 1,4,5
 135 423 135 423 148 428 c 128,-1,6
 161 433 161 433 172 441.5 c 128,-1,7
 183 450 183 450 190.5 461 c 128,-1,8
 198 472 198 472 201 484 c 1,9,-1
 255 484 l 1,10,-1
 193 189 l 1,11,-1
 139 189 l 1,0,-1
EndSplineSet
EndChar
StartChar: onequarter
Encoding: 188 188 126
Width: 590
Flags: W
Fore
499 8 m 1,0,-1
 511 64 l 1,1,-1
 548 64 l 1,2,-1
 557 108 l 1,3,-1
 520 108 l 1,4,-1
 562 303 l 1,5,-1
 513 303 l 1,6,-1
 327 102 l 1,7,8
 319 64 319 64 360 64 c 2,9,-1
 457 64 l 1,10,-1
 445 8 l 1,11,-1
 499 8 l 1,0,-1
466 108 m 1,12,-1
 397 108 l 1,13,-1
 487 204 l 1,14,-1
 466 108 l 1,12,-1
178 191 m 1,15,-1
 241 486 l 1,16,-1
 186 486 l 1,17,18
 180 462 180 462 157 443.5 c 128,-1,19
 134 425 134 425 108 425 c 1,20,-1
 98 381 l 1,21,22
 139 381 139 381 166 391 c 1,23,-1
 123 191 l 1,24,-1
 178 191 l 1,15,-1
89 -16 m 1,25,-1
 470 500 l 1,26,-1
 543 500 l 1,27,-1
 164 -16 l 1,28,-1
 89 -16 l 1,25,-1
EndSplineSet
Ligature: 0 0 'frac' one fraction four
Ligature: 0 0 'frac' one slash four
EndChar
StartChar: onehalf
Encoding: 189 189 127
Width: 590
Flags: W
Fore
522 304 m 2,0,1
 569 304 569 304 588.5 281 c 128,-1,2
 608 258 608 258 600 218 c 0,3,4
 595 197 595 197 583.5 182 c 128,-1,5
 572 167 572 167 544 149 c 1,6,-1
 545 149 l 1,7,-1
 432 79 l 2,8,9
 416 68 416 68 408 51 c 1,10,-1
 569 51 l 1,11,-1
 560 8 l 1,12,-1
 343 8 l 1,13,-1
 351 43 l 2,14,15
 356 66 356 66 369.5 83.5 c 128,-1,16
 383 101 383 101 402 113 c 2,17,-1
 529 192 l 2,18,19
 534 195 534 195 539 202.5 c 128,-1,20
 544 210 544 210 546 218 c 0,21,22
 556 261 556 261 514 261 c 2,23,-1
 505 261 l 2,24,25
 488 261 488 261 469 249.5 c 128,-1,26
 450 238 450 238 433 223 c 1,27,-1
 399 252 l 1,28,29
 425 275 425 275 454.5 289.5 c 128,-1,30
 484 304 484 304 514 304 c 2,31,-1
 522 304 l 2,0,1
178 191 m 1,32,-1
 241 486 l 1,33,-1
 186 486 l 1,34,35
 180 462 180 462 157 443.5 c 128,-1,36
 134 425 134 425 108 425 c 1,37,-1
 98 381 l 1,38,39
 139 381 139 381 166 391 c 1,40,-1
 123 191 l 1,41,-1
 178 191 l 1,32,-1
80 -16 m 1,42,-1
 461 500 l 1,43,-1
 534 500 l 1,44,-1
 155 -16 l 1,45,-1
 80 -16 l 1,42,-1
EndSplineSet
Ligature: 0 0 'frac' one fraction two
Ligature: 0 0 'frac' one slash two
EndChar
StartChar: threequarters
Encoding: 190 190 128
Width: 590
Flags: W
Fore
178 386 m 1,0,-1
 249 386 l 2,1,2
 270 388 270 388 276 410 c 0,3,4
 285 455 285 455 242 455 c 2,5,-1
 232 455 l 2,6,7
 214 455 214 455 194 443.5 c 128,-1,8
 174 432 174 432 156 415 c 1,9,-1
 122 446 l 1,10,11
 148 471 148 471 179 485.5 c 128,-1,12
 210 500 210 500 242 500 c 2,13,-1
 252 500 l 2,14,15
 300 500 300 500 321 476 c 128,-1,16
 342 452 342 452 333 410 c 0,17,18
 330 398 330 398 323.5 386 c 128,-1,19
 317 374 317 374 307 365 c 1,20,21
 319 351 319 351 323.5 333 c 128,-1,22
 328 315 328 315 324 298 c 0,23,24
 319 273 319 273 305 252.5 c 128,-1,25
 291 232 291 232 271 218 c 128,-1,26
 251 204 251 204 227 196 c 128,-1,27
 203 188 203 188 177 188 c 0,28,29
 139 188 139 188 115.5 203 c 128,-1,30
 92 218 92 218 72 248 c 1,31,-1
 120 281 l 1,32,33
 134 260 134 260 150.5 246 c 128,-1,34
 167 232 167 232 188 232 c 0,35,36
 214 232 214 232 238 251.5 c 128,-1,37
 262 271 262 271 268 298 c 0,38,39
 272 315 272 315 263 328 c 128,-1,40
 254 341 254 341 237 341 c 2,41,-1
 168 341 l 1,42,-1
 178 386 l 1,0,-1
494 8 m 1,43,-1
 506 64 l 1,44,-1
 409 64 l 2,45,46
 368 64 368 64 376 102 c 1,47,-1
 562 303 l 1,48,-1
 611 303 l 1,49,-1
 569 108 l 1,50,-1
 606 108 l 1,51,-1
 597 64 l 1,52,-1
 560 64 l 1,53,-1
 548 8 l 1,54,-1
 494 8 l 1,43,-1
536 204 m 1,55,-1
 446 108 l 1,56,-1
 515 108 l 1,57,-1
 536 204 l 1,55,-1
162 -16 m 1,58,-1
 543 500 l 1,59,-1
 616 500 l 1,60,-1
 237 -16 l 1,61,-1
 162 -16 l 1,58,-1
EndSplineSet
Ligature: 0 0 'frac' three fraction four
Ligature: 0 0 'frac' three slash four
EndChar
StartChar: Aring
Encoding: 197 197 134
Width: 572
Flags: W
Fore
331 467 m 1,0,1
 316 478 316 478 308 496 c 128,-1,2
 300 514 300 514 305 534 c 0,3,4
 312 566 312 566 342 589 c 128,-1,5
 372 612 372 612 410 612 c 0,6,7
 446 612 446 612 466 589 c 128,-1,8
 486 566 486 566 479 534 c 0,9,10
 474 511 474 511 457.5 493.5 c 128,-1,11
 441 476 441 476 419 465 c 1,12,13
 428 456 428 456 429 450 c 2,14,-1
 542 0 l 1,15,-1
 462 0 l 1,16,-1
 429 133 l 1,17,-1
 185 133 l 1,18,19
 163 101 163 101 140 66.5 c 128,-1,20
 117 32 117 32 96 0 c 1,21,-1
 16 0 l 1,22,-1
 331 467 l 1,0,1
220 188 m 1,23,-1
 414 188 l 1,24,25
 407 216 407 216 401 241.5 c 128,-1,26
 395 267 395 267 388.5 291.5 c 128,-1,27
 382 316 382 316 376 342 c 128,-1,28
 370 368 370 368 363 397 c 1,29,-1
 220 188 l 1,23,-1
367 534 m 0,30,31
 365 522 365 522 370.5 513.5 c 128,-1,32
 376 505 376 505 387 505 c 0,33,34
 397 505 397 505 405.5 513.5 c 128,-1,35
 414 522 414 522 416 534 c 0,36,37
 418 545 418 545 413.5 553.5 c 128,-1,38
 409 562 409 562 399 562 c 0,39,40
 388 562 388 562 378.5 553.5 c 128,-1,41
 369 545 369 545 367 534 c 0,30,31
EndSplineSet
EndChar
StartChar: AE
Encoding: 198 198 135
Width: 682
Flags: W
Fore
339 491 m 1,0,1
 344 491 344 491 353 491 c 128,-1,2
 362 491 362 491 365 490 c 2,3,4
 367 490 367 490 367 489.5 c 128,-1,5
 367 489 367 489 369 489 c 2,6,-1
 667 489 l 1,7,-1
 656 434 l 1,8,-1
 411 434 l 1,9,10
 411 398 411 398 412.5 358.5 c 128,-1,11
 414 319 414 319 415 283 c 1,12,-1
 668 283 l 1,13,-1
 656 228 l 1,14,-1
 416 228 l 1,15,-1
 419 56 l 1,16,-1
 670 56 l 1,17,-1
 659 0 l 1,18,-1
 345 0 l 1,19,-1
 342 133 l 1,20,-1
 177 133 l 1,21,22
 155 101 155 101 132 66.5 c 128,-1,23
 109 32 109 32 89 0 c 1,24,-1
 9 0 l 1,25,-1
 339 491 l 1,0,1
212 188 m 1,26,-1
 341 188 l 1,27,28
 341 216 341 216 340.5 239 c 128,-1,29
 340 262 340 262 339 284 c 128,-1,30
 338 306 338 306 337.5 329 c 128,-1,31
 337 352 337 352 337 382 c 1,32,-1
 212 188 l 1,26,-1
EndSplineSet
EndChar
StartChar: Ccedilla
Encoding: 199 199 136
Width: 499
Flags: W
Fore
465 332 m 1,0,1
 470 354 470 354 466.5 374.5 c 128,-1,2
 463 395 463 395 453 410.5 c 128,-1,3
 443 426 443 426 426.5 435 c 128,-1,4
 410 444 410 444 389 444 c 2,5,-1
 332 444 l 2,6,7
 305 444 305 444 277.5 431 c 128,-1,8
 250 418 250 418 227.5 397 c 128,-1,9
 205 376 205 376 188.5 349 c 128,-1,10
 172 322 172 322 166 293 c 2,11,-1
 138 162 l 2,12,13
 133 141 133 141 136.5 120 c 128,-1,14
 140 99 140 99 150 82.5 c 128,-1,15
 160 66 160 66 176 56 c 128,-1,16
 192 46 192 46 212 46 c 2,17,-1
 271 46 l 2,18,19
 298 46 298 46 325 56.5 c 128,-1,20
 352 67 352 67 374.5 86 c 128,-1,21
 397 105 397 105 413.5 130 c 128,-1,22
 430 155 430 155 436 184 c 1,23,-1
 510 184 l 1,24,25
 501 143 501 143 478.5 109 c 128,-1,26
 456 75 456 75 425 50 c 128,-1,27
 394 25 394 25 356 9.5 c 128,-1,28
 318 -6 318 -6 278 -9 c 1,29,30
 280 -14 280 -14 282.5 -16.5 c 128,-1,31
 285 -19 285 -19 290 -21 c 1,32,-1
 286 -20 l 1,33,34
 290 -22 290 -22 291 -22 c 1,35,36
 301 -30 301 -30 309.5 -42 c 128,-1,37
 318 -54 318 -54 314 -71 c 0,38,39
 307 -103 307 -103 281.5 -115 c 128,-1,40
 256 -127 256 -127 224 -127 c 2,41,-1
 215 -127 l 2,42,43
 183 -123 183 -123 167 -106 c 128,-1,44
 151 -89 151 -89 159 -53 c 1,45,-1
 208 -53 l 1,46,47
 205 -68 205 -68 208.5 -78 c 128,-1,48
 212 -88 212 -88 226 -92 c 0,49,50
 234 -94 234 -94 244.5 -90.5 c 128,-1,51
 255 -87 255 -87 257 -77 c 0,52,53
 260 -62 260 -62 244 -54 c 0,54,55
 224 -43 224 -43 216 -35 c 128,-1,56
 208 -27 208 -27 211 -10 c 1,57,-1
 200 -10 l 2,58,59
 164 -10 164 -10 135.5 4 c 128,-1,60
 107 18 107 18 88.5 42 c 128,-1,61
 70 66 70 66 63 97 c 128,-1,62
 56 128 56 128 63 162 c 2,63,-1
 91 293 l 2,64,65
 100 334 100 334 124 371.5 c 128,-1,66
 148 409 148 409 182.5 437.5 c 128,-1,67
 217 466 217 466 259 483 c 128,-1,68
 301 500 301 500 344 500 c 2,69,-1
 401 500 l 2,70,71
 438 500 438 500 467 487 c 128,-1,72
 496 474 496 474 514.5 451.5 c 128,-1,73
 533 429 533 429 539.5 398.5 c 128,-1,74
 546 368 546 368 539 332 c 1,75,-1
 465 332 l 1,0,1
EndSplineSet
EndChar
StartChar: Eth
Encoding: 208 208 145
Width: 575
Flags: W
Fore
143 0 m 2,0,1
 120 0 120 0 106 15.5 c 128,-1,2
 92 31 92 31 96 51 c 2,3,-1
 132 221 l 1,4,-1
 86 221 l 1,5,-1
 99 279 l 1,6,-1
 145 279 l 1,7,-1
 189 489 l 1,8,-1
 456 489 l 2,9,10
 493 489 493 489 522 476 c 128,-1,11
 551 463 551 463 570 441 c 128,-1,12
 589 419 589 419 596.5 389.5 c 128,-1,13
 604 360 604 360 597 326 c 2,14,-1
 569 197 l 2,15,16
 560 156 560 156 536 120 c 128,-1,17
 512 84 512 84 478 57.5 c 128,-1,18
 444 31 444 31 403 15.5 c 128,-1,19
 362 0 362 0 319 0 c 2,20,-1
 143 0 l 2,0,1
220 279 m 1,21,-1
 394 279 l 1,22,-1
 381 221 l 1,23,-1
 207 221 l 1,24,-1
 172 56 l 1,25,-1
 330 56 l 2,26,27
 357 56 357 56 384.5 67 c 128,-1,28
 412 78 412 78 434.5 97 c 128,-1,29
 457 116 457 116 473.5 142 c 128,-1,30
 490 168 490 168 496 197 c 2,31,-1
 524 326 l 2,32,33
 528 348 528 348 524.5 367.5 c 128,-1,34
 521 387 521 387 510.5 402 c 128,-1,35
 500 417 500 417 483 425.5 c 128,-1,36
 466 434 466 434 445 434 c 2,37,-1
 253 434 l 1,38,-1
 220 279 l 1,21,-1
EndSplineSet
EndChar
StartChar: multiply
Encoding: 215 215 152
Width: 465
Flags: W
Fore
323 225 m 1,0,1
 327 219 327 219 334.5 210 c 128,-1,2
 342 201 342 201 350.5 190.5 c 128,-1,3
 359 180 359 180 368.5 169 c 128,-1,4
 378 158 378 158 386 149 c 2,5,-1
 397 137 l 1,6,7
 401 127 401 127 410 120 c 1,8,-1
 354 78 l 1,9,-1
 267 182 l 1,10,-1
 138 78 l 1,11,-1
 106 113 l 1,12,-1
 101 121 l 1,13,-1
 231 226 l 1,14,15
 223 234 223 234 211 249 c 128,-1,16
 199 264 199 264 186 279.5 c 128,-1,17
 173 295 173 295 162 309.5 c 128,-1,18
 151 324 151 324 145 331 c 1,19,-1
 201 374 l 1,20,-1
 286 270 l 1,21,-1
 418 375 l 1,22,-1
 445 342 l 1,23,-1
 441 343 l 1,24,-1
 455 332 l 1,25,-1
 323 225 l 1,0,1
EndSplineSet
EndChar
StartChar: Oslash
Encoding: 216 216 153
Width: 518
Flags: W
Fore
24 -17 m 1,0,-1
 85 48 l 1,1,2
 69 71 69 71 63.5 102 c 128,-1,3
 58 133 58 133 64 163 c 2,4,-1
 92 292 l 2,5,6
 101 334 101 334 125.5 371.5 c 128,-1,7
 150 409 150 409 184.5 437.5 c 128,-1,8
 219 466 219 466 261 483 c 128,-1,9
 303 500 303 500 346 500 c 2,10,-1
 403 500 l 2,11,12
 428 500 428 500 446 494.5 c 128,-1,13
 464 489 464 489 481 478 c 1,14,-1
 506 504 l 1,15,-1
 580 504 l 1,16,-1
 520 440 l 1,17,18
 554 390 554 390 541 326 c 2,19,-1
 513 197 l 2,20,21
 504 156 504 156 479.5 118.5 c 128,-1,22
 455 81 455 81 420.5 52.5 c 128,-1,23
 386 24 386 24 344.5 7 c 128,-1,24
 303 -10 303 -10 260 -10 c 2,25,-1
 202 -10 l 2,26,27
 182 -10 182 -10 161.5 -4.5 c 128,-1,28
 141 1 141 1 125 10 c 1,29,30
 111 -4 111 -4 101 -17 c 1,31,-1
 24 -17 l 1,0,-1
139 163 m 2,32,33
 137 151 137 151 137 135.5 c 128,-1,34
 137 120 137 120 140 109 c 1,35,36
 215 190 215 190 287.5 268 c 128,-1,37
 360 346 360 346 435 427 c 1,38,39
 415 444 415 444 391 444 c 2,40,-1
 334 444 l 2,41,42
 307 444 307 444 279.5 431 c 128,-1,43
 252 418 252 418 229 397 c 128,-1,44
 206 376 206 376 189.5 348.5 c 128,-1,45
 173 321 173 321 167 292 c 2,46,-1
 139 163 l 2,32,33
467 326 m 2,47,48
 473 353 473 353 465 379 c 1,49,50
 427 337 427 337 390.5 297.5 c 128,-1,51
 354 258 354 258 318 219 c 128,-1,52
 282 180 282 180 245.5 141 c 128,-1,53
 209 102 209 102 170 60 c 1,54,55
 189 46 189 46 214 46 c 2,56,-1
 272 46 l 2,57,58
 299 46 299 46 326 58.5 c 128,-1,59
 353 71 353 71 376.5 92 c 128,-1,60
 400 113 400 113 416.5 140.5 c 128,-1,61
 433 168 433 168 439 197 c 2,62,-1
 467 326 l 2,47,48
EndSplineSet
KernsSLIFO: 314 -60 0 0 59 -18 0 0 58 -20 0 0 57 -20 0 0 53 -20 0 0 15 -50 0 0 13 -50 0 0
EndChar
StartChar: Thorn
Encoding: 222 222 159
Width: 429
Flags: W
Fore
295 405 m 2,0,1
 332 405 332 405 362.5 396 c 128,-1,2
 393 387 393 387 414 369.5 c 128,-1,3
 435 352 435 352 444 325.5 c 128,-1,4
 453 299 453 299 446 265 c 0,5,6
 437 223 437 223 414 193.5 c 128,-1,7
 391 164 391 164 359 145.5 c 128,-1,8
 327 127 327 127 287 118.5 c 128,-1,9
 247 110 247 110 204 110 c 2,10,-1
 153 110 l 1,11,-1
 130 0 l 1,12,-1
 56 0 l 1,13,-1
 162 501 l 1,14,-1
 236 501 l 1,15,-1
 216 405 l 1,16,-1
 295 405 l 2,0,1
165 166 m 1,17,-1
 216 166 l 2,18,19
 244 166 244 166 269.5 171 c 128,-1,20
 295 176 295 176 316 187.5 c 128,-1,21
 337 199 337 199 351.5 218 c 128,-1,22
 366 237 366 237 372 265 c 0,23,24
 376 286 376 286 370 302 c 128,-1,25
 364 318 364 318 351 328.5 c 128,-1,26
 338 339 338 339 320 344 c 128,-1,27
 302 349 302 349 283 349 c 2,28,-1
 204 349 l 1,29,-1
 165 166 l 1,17,-1
EndSplineSet
EndChar
StartChar: uni00DF
Encoding: 223 223 160
Width: 436
Flags: W
Fore
13 -125 m 1,0,-1
 113 347 l 2,1,2
 119 376 119 376 137 402.5 c 128,-1,3
 155 429 155 429 179.5 449 c 128,-1,4
 204 469 204 469 234 481 c 128,-1,5
 264 493 264 493 296 493 c 2,6,-1
 337 493 l 2,7,8
 364 493 364 493 385.5 483 c 128,-1,9
 407 473 407 473 420.5 456 c 128,-1,10
 434 439 434 439 439 417 c 128,-1,11
 444 395 444 395 439 370 c 2,12,-1
 429 320 l 1,13,14
 414 315 414 315 399.5 309 c 128,-1,15
 385 303 385 303 372.5 296.5 c 128,-1,16
 360 290 360 290 351.5 282.5 c 128,-1,17
 343 275 343 275 341 266 c 0,18,19
 337 247 337 247 343.5 237 c 128,-1,20
 350 227 350 227 362 214 c 1,21,-1
 361 215 l 1,22,-1
 368 208 l 2,23,24
 374 202 374 202 379 196.5 c 128,-1,25
 384 191 384 191 388 187 c 0,26,27
 405 172 405 172 414.5 156 c 128,-1,28
 424 140 424 140 418 110 c 0,29,30
 413 86 413 86 399 64.5 c 128,-1,31
 385 43 385 43 364 26.5 c 128,-1,32
 343 10 343 10 314.5 0.5 c 128,-1,33
 286 -9 286 -9 252 -9 c 0,34,35
 228 -9 228 -9 197 0 c 128,-1,36
 166 9 166 9 145 22 c 1,37,-1
 185 78 l 1,38,39
 208 65 208 65 228 58 c 128,-1,40
 248 51 248 51 264 51 c 0,41,42
 296 51 296 51 317.5 69 c 128,-1,43
 339 87 339 87 343 108 c 0,44,45
 348 126 348 126 344 133 c 128,-1,46
 340 140 340 140 330 148 c 0,47,48
 326 152 326 152 321 156.5 c 128,-1,49
 316 161 316 161 311 166 c 0,50,51
 285 194 285 194 274 217 c 128,-1,52
 263 240 263 240 268 266 c 256,53,54
 273 292 273 292 298.5 315 c 128,-1,55
 324 338 324 338 362 356 c 1,56,-1
 365 370 l 2,57,58
 370 394 370 394 359 416 c 128,-1,59
 348 438 348 438 326 438 c 2,60,-1
 285 438 l 2,61,62
 269 438 269 438 253 430 c 128,-1,63
 237 422 237 422 223.5 409.5 c 128,-1,64
 210 397 210 397 200 380.5 c 128,-1,65
 190 364 190 364 186 347 c 2,66,-1
 86 -125 l 1,67,-1
 13 -125 l 1,0,-1
EndSplineSet
EndChar
StartChar: ae
Encoding: 230 230 167
Width: 647
Flags: W
Fore
136 321 m 1,0,1
 163 338 163 338 188.5 347.5 c 128,-1,2
 214 357 214 357 240 357 c 2,3,-1
 303 357 l 2,4,5
 331 357 331 357 354 343.5 c 128,-1,6
 377 330 377 330 391 311 c 1,7,8
 415 330 415 330 446 343 c 128,-1,9
 477 356 477 356 509 356 c 2,10,-1
 550 356 l 2,11,12
 577 356 577 356 598.5 346 c 128,-1,13
 620 336 620 336 633.5 319 c 128,-1,14
 647 302 647 302 652 280 c 128,-1,15
 657 258 657 258 652 234 c 2,16,-1
 640 175 l 1,17,-1
 392 175 l 1,18,-1
 379 117 l 2,19,20
 377 106 377 106 378.5 94 c 128,-1,21
 380 82 380 82 385.5 72.5 c 128,-1,22
 391 63 391 63 399.5 56.5 c 128,-1,23
 408 50 408 50 419 50 c 2,24,-1
 461 50 l 2,25,26
 477 50 477 50 492.5 57 c 128,-1,27
 508 64 508 64 521.5 76 c 128,-1,28
 535 88 535 88 544.5 104 c 128,-1,29
 554 120 554 120 558 139 c 1,30,-1
 632 139 l 1,31,32
 625 108 625 108 607 81.5 c 128,-1,33
 589 55 589 55 564.5 36 c 128,-1,34
 540 17 540 17 510 6 c 128,-1,35
 480 -5 480 -5 449 -5 c 2,36,-1
 407 -5 l 2,37,38
 374 -5 374 -5 351 8.5 c 128,-1,39
 328 22 328 22 316 45 c 1,40,41
 290 23 290 23 257.5 9.5 c 128,-1,42
 225 -4 225 -4 192 -4 c 2,43,-1
 150 -4 l 2,44,45
 126 -4 126 -4 106.5 4 c 128,-1,46
 87 12 87 12 74.5 26.5 c 128,-1,47
 62 41 62 41 56.5 60 c 128,-1,48
 51 79 51 79 56 101 c 0,49,50
 62 128 62 128 80 151 c 128,-1,51
 98 174 98 174 123 190.5 c 128,-1,52
 148 207 148 207 177 216 c 128,-1,53
 206 225 206 225 233 225 c 2,54,-1
 329 225 l 1,55,-1
 332 238 l 2,56,57
 334 259 334 259 323 280 c 128,-1,58
 312 301 312 301 291 301 c 2,59,-1
 228 301 l 2,60,61
 202 301 202 301 164 271 c 1,62,-1
 136 321 l 1,0,1
223 175 m 2,63,64
 210 175 210 175 195 169 c 128,-1,65
 180 163 180 163 166.5 153 c 128,-1,66
 153 143 153 143 143 130 c 128,-1,67
 133 117 133 117 130 103 c 0,68,69
 126 83 126 83 134 67 c 128,-1,70
 142 51 142 51 161 51 c 2,71,-1
 203 51 l 2,72,73
 219 51 219 51 236.5 58.5 c 128,-1,74
 254 66 254 66 269 78.5 c 128,-1,75
 284 91 284 91 295 107 c 128,-1,76
 306 123 306 123 311 140 c 2,77,-1
 319 175 l 1,78,-1
 223 175 l 2,63,64
497 300 m 2,79,80
 467 300 467 300 440 278 c 128,-1,81
 413 256 413 256 402 225 c 1,82,-1
 576 225 l 1,83,-1
 578 234 l 2,84,85
 580 245 580 245 578.5 256.5 c 128,-1,86
 577 268 577 268 571.5 278 c 128,-1,87
 566 288 566 288 557.5 294 c 128,-1,88
 549 300 549 300 538 300 c 2,89,-1
 497 300 l 2,79,80
EndSplineSet
EndChar
StartChar: ccedilla
Encoding: 231 231 168
Width: 380
Flags: W
Fore
322 235 m 1,0,1
 328 261 328 261 316.5 280.5 c 128,-1,2
 305 300 305 300 282 300 c 2,3,-1
 242 300 l 2,4,5
 226 300 226 300 210 292.5 c 128,-1,6
 194 285 194 285 181 272 c 128,-1,7
 168 259 168 259 158.5 243 c 128,-1,8
 149 227 149 227 145 209 c 2,9,-1
 125 117 l 2,10,11
 120 93 120 93 131 71.5 c 128,-1,12
 142 50 142 50 165 50 c 2,13,-1
 206 50 l 2,14,15
 238 50 238 50 266 73.5 c 128,-1,16
 294 97 294 97 302 135 c 1,17,-1
 376 135 l 1,18,19
 363 76 363 76 318 39.5 c 128,-1,20
 273 3 273 3 216 -3 c 1,21,22
 217 -12 217 -12 220.5 -15 c 128,-1,23
 224 -18 224 -18 229 -21 c 1,24,-1
 225 -20 l 1,25,26
 229 -22 229 -22 230 -22 c 1,27,28
 240 -30 240 -30 248.5 -42 c 128,-1,29
 257 -54 257 -54 253 -71 c 0,30,31
 246 -103 246 -103 220.5 -115 c 128,-1,32
 195 -127 195 -127 163 -127 c 2,33,-1
 154 -127 l 2,34,35
 122 -123 122 -123 106 -106 c 128,-1,36
 90 -89 90 -89 98 -53 c 1,37,-1
 147 -53 l 1,38,39
 144 -68 144 -68 147.5 -78 c 128,-1,40
 151 -88 151 -88 165 -92 c 0,41,42
 173 -94 173 -94 183.5 -90.5 c 128,-1,43
 194 -87 194 -87 196 -77 c 0,44,45
 199 -62 199 -62 183 -54 c 0,46,47
 161 -43 161 -43 153.5 -33.5 c 128,-1,48
 146 -24 146 -24 151 -5 c 1,49,50
 124 -5 124 -5 103.5 5 c 128,-1,51
 83 15 83 15 69.5 32 c 128,-1,52
 56 49 56 49 51 71 c 128,-1,53
 46 93 46 93 51 117 c 2,54,-1
 71 209 l 2,55,56
 77 239 77 239 95 265.5 c 128,-1,57
 113 292 113 292 138 312.5 c 128,-1,58
 163 333 163 333 193 344.5 c 128,-1,59
 223 356 223 356 254 356 c 2,60,-1
 294 356 l 2,61,62
 321 356 321 356 342.5 347 c 128,-1,63
 364 338 364 338 377.5 322 c 128,-1,64
 391 306 391 306 396.5 283.5 c 128,-1,65
 402 261 402 261 396 235 c 1,66,-1
 322 235 l 1,0,1
EndSplineSet
EndChar
StartChar: eth
Encoding: 240 240 177
Width: 451
Flags: W
Fore
454 189 m 0,0,1
 443 137 443 137 417.5 99.5 c 128,-1,2
 392 62 392 62 359 38 c 128,-1,3
 326 14 326 14 288 2.5 c 128,-1,4
 250 -9 250 -9 214 -9 c 0,5,6
 172 -9 172 -9 139.5 5 c 128,-1,7
 107 19 107 19 87 43.5 c 128,-1,8
 67 68 67 68 60.5 101.5 c 128,-1,9
 54 135 54 135 62 174 c 0,10,11
 72 219 72 219 96.5 255 c 128,-1,12
 121 291 121 291 153.5 315.5 c 128,-1,13
 186 340 186 340 223.5 353.5 c 128,-1,14
 261 367 261 367 297 367 c 0,15,16
 332 367 332 367 363 356 c 1,17,18
 352 373 352 373 339 389.5 c 128,-1,19
 326 406 326 406 312 420 c 1,20,-1
 296 412 l 1,21,-1
 177 363 l 1,22,-1
 165 412 l 1,23,-1
 265 453 l 1,24,25
 249 462 249 462 232 470 c 128,-1,26
 215 478 215 478 191 486 c 1,27,-1
 228 539 l 1,28,29
 257 525 257 525 285.5 511 c 128,-1,30
 314 497 314 497 334 482 c 1,31,32
 345 486 345 486 354.5 489.5 c 128,-1,33
 364 493 364 493 374 498 c 0,34,35
 387 503 387 503 405.5 511.5 c 128,-1,36
 424 520 424 520 448 531 c 1,37,-1
 462 480 l 1,38,-1
 376 446 l 1,39,40
 426 395 426 395 448 332 c 128,-1,41
 470 269 470 269 454 189 c 0,0,1
381 184 m 0,42,43
 387 217 387 217 384 240.5 c 128,-1,44
 381 264 381 264 369 279 c 128,-1,45
 357 294 357 294 335.5 302.5 c 128,-1,46
 314 311 314 311 283 315 c 0,47,48
 251 315 251 315 225.5 302 c 128,-1,49
 200 289 200 289 180.5 269 c 128,-1,50
 161 249 161 249 148.5 224 c 128,-1,51
 136 199 136 199 131 175 c 0,52,53
 124 143 124 143 129.5 118.5 c 128,-1,54
 135 94 135 94 148.5 77.5 c 128,-1,55
 162 61 162 61 182 52.5 c 128,-1,56
 202 44 202 44 224 44 c 0,57,58
 251 44 251 44 276 53 c 128,-1,59
 301 62 301 62 322 79.5 c 128,-1,60
 343 97 343 97 358 123 c 128,-1,61
 373 149 373 149 381 184 c 0,42,43
EndSplineSet
EndChar
StartChar: divide
Encoding: 247 247 184
Width: 465
Flags: W
Fore
73 197 m 1,0,-1
 85 254 l 1,1,-1
 429 254 l 1,2,-1
 417 197 l 1,3,-1
 73 197 l 1,0,-1
228 321 m 0,4,5
 232 340 232 340 249 351.5 c 128,-1,6
 266 363 266 363 287 363 c 256,7,8
 308 363 308 363 319.5 351.5 c 128,-1,9
 331 340 331 340 327 321 c 0,10,11
 323 303 323 303 306.5 291 c 128,-1,12
 290 279 290 279 269 279 c 256,13,14
 248 279 248 279 236 291 c 128,-1,15
 224 303 224 303 228 321 c 0,4,5
186 123 m 0,16,17
 190 142 190 142 207 154 c 128,-1,18
 224 166 224 166 245 166 c 256,19,20
 266 166 266 166 277.5 154 c 128,-1,21
 289 142 289 142 285 123 c 0,22,23
 281 105 281 105 264.5 93 c 128,-1,24
 248 81 248 81 227 81 c 256,25,26
 206 81 206 81 194 93 c 128,-1,27
 182 105 182 105 186 123 c 0,16,17
EndSplineSet
EndChar
StartChar: oslash
Encoding: 248 248 185
Width: 391
Flags: W
Fore
11 -16 m 1,0,-1
 67 44 l 1,1,2
 56 61 56 61 53.5 79 c 128,-1,3
 51 97 51 97 55 117 c 2,4,-1
 75 209 l 2,5,6
 81 239 81 239 99 265.5 c 128,-1,7
 117 292 117 292 142 312.5 c 128,-1,8
 167 333 167 333 197 344.5 c 128,-1,9
 227 356 227 356 258 356 c 2,10,-1
 300 356 l 2,11,12
 331 356 331 356 349 345 c 1,13,14
 355 351 355 351 360 356.5 c 128,-1,15
 365 362 365 362 371 367 c 1,16,-1
 446 367 l 1,17,-1
 390 307 l 1,18,19
 410 275 410 275 401 234 c 2,20,-1
 381 141 l 2,21,22
 375 111 375 111 357.5 84.5 c 128,-1,23
 340 58 340 58 315 38 c 128,-1,24
 290 18 290 18 259.5 6.5 c 128,-1,25
 229 -5 229 -5 198 -5 c 2,26,-1
 157 -5 l 2,27,28
 143 -5 143 -5 130.5 -2.5 c 128,-1,29
 118 0 118 0 108 5 c 1,30,31
 102 0 102 0 97 -5.5 c 128,-1,32
 92 -11 92 -11 87 -16 c 1,33,-1
 11 -16 l 1,0,-1
328 234 m 2,34,35
 330 240 330 240 329 243 c 1,36,-1
 154 54 l 1,37,38
 159 50 159 50 169 50 c 2,39,-1
 210 50 l 2,40,41
 226 50 226 50 242 57.5 c 128,-1,42
 258 65 258 65 271.5 78 c 128,-1,43
 285 91 285 91 295 107.5 c 128,-1,44
 305 124 305 124 308 141 c 2,45,-1
 328 234 l 2,34,35
129 117 m 2,46,47
 127 109 127 109 126 112.5 c 128,-1,48
 125 116 125 116 127 108 c 1,49,-1
 303 296 l 1,50,51
 295 300 295 300 288 300 c 2,52,-1
 246 300 l 2,53,54
 230 300 230 300 214 292.5 c 128,-1,55
 198 285 198 285 185 272 c 128,-1,56
 172 259 172 259 162.5 243 c 128,-1,57
 153 227 153 227 149 209 c 2,58,-1
 129 117 l 2,46,47
EndSplineSet
KernsSLIFO: 314 -40 0 0 90 -12 0 0 89 -18 0 0 87 -12 0 0 15 -18 0 0 13 -29 0 0
EndChar
StartChar: thorn
Encoding: 254 254 191
Width: 477
Flags: W
Fore
432 141 m 2,0,1
 426 111 426 111 408.5 84.5 c 128,-1,2
 391 58 391 58 366 38 c 128,-1,3
 341 18 341 18 310.5 6.5 c 128,-1,4
 280 -5 280 -5 249 -5 c 2,5,-1
 208 -5 l 2,6,7
 194 -5 194 -5 181 -2 c 128,-1,8
 168 1 168 1 157 6 c 1,9,-1
 124 -149 l 1,10,-1
 50 -149 l 1,11,-1
 184 484 l 1,12,-1
 258 484 l 1,13,-1
 226 334 l 1,14,15
 265 356 265 356 310 356 c 2,16,-1
 351 356 l 2,17,18
 378 356 378 356 399 346 c 128,-1,19
 420 336 420 336 433.5 319 c 128,-1,20
 447 302 447 302 452 280 c 128,-1,21
 457 258 457 258 452 234 c 2,22,-1
 432 141 l 2,0,1
379 234 m 2,23,24
 382 246 382 246 380 257.5 c 128,-1,25
 378 269 378 269 372.5 278.5 c 128,-1,26
 367 288 367 288 358.5 294 c 128,-1,27
 350 300 350 300 339 300 c 2,28,-1
 298 300 l 2,29,30
 282 300 282 300 266 292.5 c 128,-1,31
 250 285 250 285 236.5 273 c 128,-1,32
 223 261 223 261 213.5 245.5 c 128,-1,33
 204 230 204 230 201 213 c 2,34,-1
 180 117 l 2,35,36
 178 105 178 105 180 93 c 128,-1,37
 182 81 182 81 187 71.5 c 128,-1,38
 192 62 192 62 200.5 56 c 128,-1,39
 209 50 209 50 220 50 c 2,40,-1
 261 50 l 2,41,42
 277 50 277 50 293.5 57.5 c 128,-1,43
 310 65 310 65 323.5 78 c 128,-1,44
 337 91 337 91 346.5 107.5 c 128,-1,45
 356 124 356 124 359 141 c 2,46,-1
 379 234 l 2,23,24
EndSplineSet
EndChar
StartChar: Lslash
Encoding: 321 321 193
Width: 475
Flags: W
Fore
49 209 m 1,0,-1
 113 249 l 1,1,-1
 164 489 l 1,2,-1
 239 489 l 1,3,-1
 199 300 l 1,4,-1
 286 356 l 1,5,-1
 270 279 l 1,6,-1
 184 226 l 1,7,-1
 147 56 l 1,8,-1
 452 56 l 1,9,-1
 441 0 l 1,10,-1
 61 0 l 1,11,-1
 97 172 l 1,12,-1
 33 132 l 1,13,-1
 49 209 l 1,0,-1
EndSplineSet
EndChar
StartChar: lslash
Encoding: 322 322 194
Width: 215
Flags: W
Fore
59 208 m 1,0,-1
 123 253 l 1,1,-1
 172 484 l 1,2,-1
 245 484 l 1,3,-1
 209 313 l 1,4,-1
 270 355 l 1,5,-1
 253 273 l 1,6,-1
 192 232 l 1,7,-1
 143 0 l 1,8,-1
 70 0 l 1,9,-1
 106 172 l 1,10,-1
 45 130 l 1,11,-1
 59 208 l 1,0,-1
EndSplineSet
EndChar
StartChar: OE
Encoding: 338 338 195
Width: 806
Flags: W
Fore
209 0 m 2,0,1
 172 0 172 0 142.5 12.5 c 128,-1,2
 113 25 113 25 94 47 c 128,-1,3
 75 69 75 69 67.5 99 c 128,-1,4
 60 129 60 129 67 163 c 2,5,-1
 95 292 l 2,6,7
 104 334 104 334 128 370 c 128,-1,8
 152 406 152 406 186 432.5 c 128,-1,9
 220 459 220 459 261.5 474 c 128,-1,10
 303 489 303 489 347 489 c 2,11,-1
 862 489 l 1,12,-1
 850 429 l 1,13,-1
 521 429 l 1,14,-1
 490 284 l 1,15,-1
 768 284 l 1,16,-1
 755 224 l 1,17,-1
 477 224 l 1,18,-1
 442 61 l 1,19,-1
 771 61 l 1,20,-1
 759 0 l 1,21,-1
 209 0 l 2,0,1
278 61 m 2,22,23
 303 61 303 61 327.5 69 c 128,-1,24
 352 77 352 77 376 95 c 1,25,-1
 443 412 l 1,26,27
 431 420 431 420 418 424.5 c 128,-1,28
 405 429 405 429 391 429 c 2,29,-1
 335 429 l 2,30,31
 307 429 307 429 280 418.5 c 128,-1,32
 253 408 253 408 230.5 389.5 c 128,-1,33
 208 371 208 371 191.5 346 c 128,-1,34
 175 321 175 321 169 292 c 2,35,-1
 141 163 l 2,36,37
 132 120 132 120 155 90.5 c 128,-1,38
 178 61 178 61 221 61 c 2,39,-1
 278 61 l 2,22,23
EndSplineSet
EndChar
StartChar: oe
Encoding: 339 339 196
Width: 657
Flags: W
Fore
377 117 m 2,0,1
 375 105 375 105 377 93 c 128,-1,2
 379 81 379 81 384 71.5 c 128,-1,3
 389 62 389 62 397.5 56 c 128,-1,4
 406 50 406 50 417 50 c 2,5,-1
 459 50 l 2,6,7
 475 50 475 50 490.5 56.5 c 128,-1,8
 506 63 506 63 519.5 75 c 128,-1,9
 533 87 533 87 542.5 103.5 c 128,-1,10
 552 120 552 120 556 139 c 1,11,-1
 630 139 l 1,12,13
 623 107 623 107 605.5 81 c 128,-1,14
 588 55 588 55 563 35.5 c 128,-1,15
 538 16 538 16 508 5.5 c 128,-1,16
 478 -5 478 -5 447 -5 c 2,17,-1
 405 -5 l 2,18,19
 375 -5 375 -5 352.5 7 c 128,-1,20
 330 19 330 19 317 39 c 1,21,22
 291 19 291 19 261 7 c 128,-1,23
 231 -5 231 -5 199 -5 c 2,24,-1
 158 -5 l 2,25,26
 131 -5 131 -5 110 5 c 128,-1,27
 89 15 89 15 75.5 31.5 c 128,-1,28
 62 48 62 48 56.5 70.5 c 128,-1,29
 51 93 51 93 56 117 c 2,30,-1
 76 209 l 2,31,32
 82 239 82 239 100 265.5 c 128,-1,33
 118 292 118 292 143 312.5 c 128,-1,34
 168 333 168 333 198 344.5 c 128,-1,35
 228 356 228 356 259 356 c 2,36,-1
 301 356 l 2,37,38
 331 356 331 356 353 343 c 128,-1,39
 375 330 375 330 388 310 c 1,40,41
 414 333 414 333 443 344.5 c 128,-1,42
 472 356 472 356 507 356 c 2,43,-1
 548 356 l 2,44,45
 575 356 575 356 596.5 346 c 128,-1,46
 618 336 618 336 631.5 319 c 128,-1,47
 645 302 645 302 650 280 c 128,-1,48
 655 258 655 258 650 234 c 2,49,-1
 638 175 l 1,50,-1
 390 175 l 1,51,-1
 377 117 l 2,0,1
329 234 m 2,52,53
 332 246 332 246 330 257.5 c 128,-1,54
 328 269 328 269 322.5 278.5 c 128,-1,55
 317 288 317 288 308.5 294 c 128,-1,56
 300 300 300 300 289 300 c 2,57,-1
 247 300 l 2,58,59
 231 300 231 300 215 292.5 c 128,-1,60
 199 285 199 285 186 272 c 128,-1,61
 173 259 173 259 163.5 243 c 128,-1,62
 154 227 154 227 150 209 c 2,63,-1
 130 117 l 2,64,65
 128 105 128 105 130 93 c 128,-1,66
 132 81 132 81 137 71.5 c 128,-1,67
 142 62 142 62 150.5 56 c 128,-1,68
 159 50 159 50 170 50 c 2,69,-1
 211 50 l 2,70,71
 227 50 227 50 243 57.5 c 128,-1,72
 259 65 259 65 272.5 78 c 128,-1,73
 286 91 286 91 296 107.5 c 128,-1,74
 306 124 306 124 309 141 c 2,75,-1
 329 234 l 2,52,53
495 300 m 2,76,77
 465 300 465 300 438 278 c 128,-1,78
 411 256 411 256 400 225 c 1,79,-1
 574 225 l 1,80,-1
 576 234 l 2,81,82
 579 246 579 246 577 257.5 c 128,-1,83
 575 269 575 269 569.5 278.5 c 128,-1,84
 564 288 564 288 555.5 294 c 128,-1,85
 547 300 547 300 536 300 c 2,86,-1
 495 300 l 2,76,77
EndSplineSet
EndChar
StartChar: florin
Encoding: 402 402 202
Width: 525
Flags: W
Fore
290 49 m 0,0,1
 275 1 275 1 244.5 -35 c 128,-1,2
 214 -71 214 -71 173.5 -96 c 128,-1,3
 133 -121 133 -121 86.5 -133.5 c 128,-1,4
 40 -146 40 -146 -7 -146 c 1,5,-1
 10 -86 l 1,6,7
 45 -86 45 -86 78 -77 c 128,-1,8
 111 -68 111 -68 139 -50.5 c 128,-1,9
 167 -33 167 -33 187 -7.5 c 128,-1,10
 207 18 207 18 217 51 c 2,11,-1
 294 305 l 1,12,-1
 217 305 l 1,13,-1
 229 351 l 1,14,-1
 308 351 l 1,15,16
 323 397 323 397 354 432 c 128,-1,17
 385 467 385 467 424.5 491 c 128,-1,18
 464 515 464 515 510 527.5 c 128,-1,19
 556 540 556 540 603 540 c 1,20,-1
 586 480 l 1,21,22
 552 480 552 480 520 471.5 c 128,-1,23
 488 463 488 463 461 446.5 c 128,-1,24
 434 430 434 430 413.5 406 c 128,-1,25
 393 382 393 382 381 351 c 1,26,-1
 454 351 l 1,27,-1
 442 305 l 1,28,-1
 367 305 l 1,29,30
 348 242 348 242 329 177 c 128,-1,31
 310 112 310 112 290 49 c 0,0,1
EndSplineSet
EndChar
StartChar: circumflex
Encoding: 710 710 203
Width: 340
Flags: W
Fore
276 619 m 1,0,-1
 333 619 l 1,1,-1
 401 488 l 1,2,-1
 327 488 l 1,3,-1
 292 560 l 1,4,-1
 226 488 l 1,5,-1
 152 488 l 1,6,-1
 276 619 l 1,0,-1
EndSplineSet
EndChar
StartChar: caron
Encoding: 711 711 204
Width: 340
Flags: W
Fore
180 619 m 1,0,-1
 254 619 l 1,1,-1
 289 547 l 1,2,-1
 355 619 l 1,3,-1
 429 619 l 1,4,-1
 305 488 l 1,5,-1
 248 488 l 1,6,-1
 180 619 l 1,0,-1
EndSplineSet
EndChar
StartChar: breve
Encoding: 728 728 205
Width: 328
Flags: W
Fore
399 538 m 1,0,1
 393 512 393 512 379 490 c 128,-1,2
 365 468 365 468 344.5 451 c 128,-1,3
 324 434 324 434 299.5 424.5 c 128,-1,4
 275 415 275 415 250 415 c 0,5,6
 224 415 224 415 203.5 424.5 c 128,-1,7
 183 434 183 434 169.5 451 c 128,-1,8
 156 468 156 468 151 490 c 128,-1,9
 146 512 146 512 152 538 c 1,10,-1
 215 538 l 1,11,12
 208 507 208 507 220.5 484.5 c 128,-1,13
 233 462 233 462 260 462 c 0,14,15
 286 462 286 462 307.5 484.5 c 128,-1,16
 329 507 329 507 336 538 c 1,17,-1
 399 538 l 1,0,1
EndSplineSet
EndChar
StartChar: dotaccent
Encoding: 729 729 206
Width: 177
Flags: W
Fore
136 465 m 0,0,1
 141 484 141 484 157.5 496 c 128,-1,2
 174 508 174 508 195 508 c 256,3,4
 216 508 216 508 228 496 c 128,-1,5
 240 484 240 484 235 465 c 0,6,7
 231 447 231 447 214.5 435 c 128,-1,8
 198 423 198 423 177 423 c 256,9,10
 156 423 156 423 144 435 c 128,-1,11
 132 447 132 447 136 465 c 0,0,1
EndSplineSet
EndChar
StartChar: ring
Encoding: 730 730 207
Width: 305
Flags: W
Fore
163 472 m 256,0,1
 170 504 170 504 199.5 527 c 128,-1,2
 229 550 229 550 266 550 c 0,3,4
 302 550 302 550 322.5 527 c 128,-1,5
 343 504 343 504 336 472 c 0,6,7
 333 456 333 456 323 442 c 128,-1,8
 313 428 313 428 299 417.5 c 128,-1,9
 285 407 285 407 268 401 c 128,-1,10
 251 395 251 395 233 395 c 0,11,12
 196 395 196 395 176 417.5 c 128,-1,13
 156 440 156 440 163 472 c 256,0,1
224 472 m 0,14,15
 221 459 221 459 227 451 c 128,-1,16
 233 443 233 443 244 443 c 256,17,18
 255 443 255 443 264 451 c 128,-1,19
 273 459 273 459 276 472 c 0,20,21
 278 485 278 485 272.5 494 c 128,-1,22
 267 503 267 503 256 503 c 256,23,24
 245 503 245 503 235.5 494 c 128,-1,25
 226 485 226 485 224 472 c 0,14,15
EndSplineSet
EndChar
StartChar: tilde
Encoding: 732 732 209
Width: 211
Flags: W
Fore
258 455 m 0,0,1
 269 455 269 455 283.5 472 c 128,-1,2
 298 489 298 489 306 516 c 1,3,-1
 362 516 l 1,4,5
 356 487 356 487 342 466.5 c 128,-1,6
 328 446 328 446 311.5 432 c 128,-1,7
 295 418 295 418 278 411.5 c 128,-1,8
 261 405 261 405 248 405 c 0,9,10
 230 405 230 405 217 408.5 c 128,-1,11
 204 412 204 412 195 418 c 128,-1,12
 186 424 186 424 180 431.5 c 128,-1,13
 174 439 174 439 169 447 c 0,14,15
 162 456 162 456 156 463.5 c 128,-1,16
 150 471 150 471 142 471 c 0,17,18
 131 471 131 471 117 454 c 128,-1,19
 103 437 103 437 94 410 c 1,20,-1
 39 410 l 1,21,22
 45 438 45 438 58.5 459 c 128,-1,23
 72 480 72 480 88.5 493.5 c 128,-1,24
 105 507 105 507 122 513.5 c 128,-1,25
 139 520 139 520 152 520 c 0,26,27
 181 520 181 520 195 508.5 c 128,-1,28
 209 497 209 497 218 484 c 0,29,30
 226 473 226 473 234.5 464 c 128,-1,31
 243 455 243 455 258 455 c 0,0,1
EndSplineSet
EndChar
StartChar: uni0E01
Encoding: 3585 3585 212
Width: 428
Flags: W
Fore
360 300 m 1,0,1
 364 320 364 320 352 336 c 128,-1,2
 340 352 340 352 311 352 c 2,3,-1
 261 352 l 2,4,5
 245 352 245 352 229 346.5 c 128,-1,6
 213 341 213 341 199 331.5 c 128,-1,7
 185 322 185 322 173.5 310 c 128,-1,8
 162 298 162 298 154 286 c 1,9,10
 164 282 164 282 170.5 273 c 128,-1,11
 177 264 177 264 181 253.5 c 128,-1,12
 185 243 185 243 185.5 232 c 128,-1,13
 186 221 186 221 185 212 c 2,14,-1
 140 0 l 1,15,-1
 66 0 l 1,16,-1
 111 212 l 2,17,18
 114 229 114 229 104 243 c 128,-1,19
 94 257 94 257 76 259 c 1,20,21
 85 290 85 290 106 317 c 128,-1,22
 127 344 127 344 154 364 c 128,-1,23
 181 384 181 384 212.5 395.5 c 128,-1,24
 244 407 244 407 276 407 c 2,25,-1
 356 407 l 2,26,27
 374 407 374 407 390 398 c 128,-1,28
 406 389 406 389 416.5 374.5 c 128,-1,29
 427 360 427 360 431.5 340.5 c 128,-1,30
 436 321 436 321 432 300 c 2,31,-1
 369 0 l 1,32,-1
 297 0 l 1,33,-1
 360 300 l 1,34,-1
 360 300 l 1,0,1
EndSplineSet
EndChar
StartChar: uni0E02
Encoding: 3586 3586 213
Width: 403
Flags: W
Fore
252 55 m 1,0,1
 259 55 259 55 268.5 59 c 128,-1,2
 278 63 278 63 286.5 69 c 128,-1,3
 295 75 295 75 301.5 83.5 c 128,-1,4
 308 92 308 92 310 101 c 2,5,-1
 375 407 l 1,6,-1
 438 407 l 1,7,-1
 374 108 l 2,8,9
 370 88 370 88 357 68.5 c 128,-1,10
 344 49 344 49 325.5 34 c 128,-1,11
 307 19 307 19 285 10 c 128,-1,12
 263 1 263 1 241 1 c 2,13,-1
 224 1 l 2,14,15
 201 1 201 1 186.5 16.5 c 128,-1,16
 172 32 172 32 177 53 c 2,17,-1
 202 171 l 2,18,19
 206 189 206 189 213 203 c 128,-1,20
 220 217 220 217 228 230 c 128,-1,21
 236 243 236 243 243 257 c 128,-1,22
 250 271 250 271 254 289 c 0,23,24
 257 304 257 304 254 317 c 128,-1,25
 251 330 251 330 243.5 340.5 c 128,-1,26
 236 351 236 351 225 357 c 128,-1,27
 214 363 214 363 202 363 c 0,28,29
 191 363 191 363 184.5 360 c 128,-1,30
 178 357 178 357 176 355 c 1,31,32
 205 355 205 355 218 333 c 128,-1,33
 231 311 231 311 225 285 c 0,34,35
 219 257 219 257 195.5 235.5 c 128,-1,36
 172 214 172 214 141 214 c 0,37,38
 121 214 121 214 107.5 221.5 c 128,-1,39
 94 229 94 229 85.5 241 c 128,-1,40
 77 253 77 253 75 268 c 128,-1,41
 73 283 73 283 76 298 c 0,42,43
 81 325 81 325 100 352 c 0,44,45
 121 378 121 378 149 392.5 c 128,-1,46
 177 407 177 407 211 407 c 0,47,48
 266 406 266 406 288.5 373 c 128,-1,49
 311 340 311 340 300 290 c 2,50,-1
 252 55 l 1,0,1
119 285 m 256,51,52
 116 270 116 270 124 259.5 c 128,-1,53
 132 249 132 249 147 249 c 256,54,55
 162 249 162 249 175 259.5 c 128,-1,56
 188 270 188 270 191 285 c 256,57,58
 194 300 194 300 186 310.5 c 128,-1,59
 178 321 178 321 163 321 c 256,60,61
 148 321 148 321 135 310.5 c 128,-1,62
 122 300 122 300 119 285 c 256,51,52
EndSplineSet
EndChar
StartChar: uni0E03
Encoding: 3587 3587 214
Width: 415
Flags: W
Fore
193 362 m 1,0,1
 173 360 173 360 160.5 352 c 128,-1,2
 148 344 148 344 142 337 c 1,3,-1
 155 337 l 2,4,5
 165 337 165 337 175.5 332 c 128,-1,6
 186 327 186 327 194 318 c 128,-1,7
 202 309 202 309 205.5 297 c 128,-1,8
 209 285 209 285 206 271 c 0,9,10
 200 241 200 241 177.5 222.5 c 128,-1,11
 155 204 155 204 126 204 c 0,12,13
 107 204 107 204 94 212 c 128,-1,14
 81 220 81 220 73.5 232.5 c 128,-1,15
 66 245 66 245 64.5 261 c 128,-1,16
 63 277 63 277 66 294 c 0,17,18
 71 318 71 318 85.5 338.5 c 128,-1,19
 100 359 100 359 120.5 374.5 c 128,-1,20
 141 390 141 390 165 399.5 c 128,-1,21
 189 409 189 409 213 409 c 1,22,-1
 255 366 l 1,23,-1
 310 409 l 1,24,25
 336 396 336 396 343 370 c 128,-1,26
 350 344 350 344 343 314 c 0,27,28
 340 299 340 299 332 284 c 128,-1,29
 324 269 324 269 315 253.5 c 128,-1,30
 306 238 306 238 298 222 c 128,-1,31
 290 206 290 206 287 190 c 2,32,-1
 258 55 l 1,33,34
 265 56 265 56 275 59.5 c 128,-1,35
 285 63 285 63 294 69 c 128,-1,36
 303 75 303 75 309.5 83.5 c 128,-1,37
 316 92 316 92 318 101 c 2,38,-1
 383 407 l 1,39,-1
 446 407 l 1,40,-1
 382 108 l 2,41,42
 378 87 378 87 364.5 67.5 c 128,-1,43
 351 48 351 48 332.5 33 c 128,-1,44
 314 18 314 18 292 9 c 128,-1,45
 270 0 270 0 248 0 c 2,46,-1
 231 0 l 2,47,48
 209 0 209 0 194 15.5 c 128,-1,49
 179 31 179 31 184 52 c 2,50,-1
 211 180 l 2,51,52
 215 199 215 199 219.5 211 c 128,-1,53
 224 223 224 223 230.5 231.5 c 128,-1,54
 237 240 237 240 246 248 c 128,-1,55
 255 256 255 256 268 268 c 0,56,57
 281 279 281 279 290.5 295 c 128,-1,58
 300 311 300 311 303 326 c 0,59,60
 306 343 306 343 300 354 c 1,61,-1
 243 311 l 1,62,-1
 193 362 l 1,0,1
104 271 m 256,63,64
 101 256 101 256 109 245.5 c 128,-1,65
 117 235 117 235 132 235 c 256,66,67
 147 235 147 235 160 245.5 c 128,-1,68
 173 256 173 256 176 271 c 256,69,70
 179 286 179 286 171 296.5 c 128,-1,71
 163 307 163 307 148 307 c 256,72,73
 133 307 133 307 120 296.5 c 128,-1,74
 107 286 107 286 104 271 c 256,63,64
EndSplineSet
EndChar
StartChar: uni0E04
Encoding: 3588 3588 215
Width: 456
Flags: W
Fore
371 407 m 2,0,1
 421 407 421 407 448 377 c 128,-1,2
 475 347 475 347 465 300 c 2,3,-1
 402 0 l 1,4,-1
 328 0 l 1,5,-1
 391 300 l 2,6,7
 396 319 396 319 386 335.5 c 128,-1,8
 376 352 376 352 359 352 c 2,9,-1
 288 352 l 2,10,11
 271 352 271 352 253 343 c 128,-1,12
 235 334 235 334 219.5 320 c 128,-1,13
 204 306 204 306 192.5 288.5 c 128,-1,14
 181 271 181 271 177 254 c 2,15,-1
 151 130 l 1,16,-1
 197 225 l 2,17,18
 210 247 210 247 233.5 260.5 c 128,-1,19
 257 274 257 274 284 274 c 0,20,21
 318 274 318 274 335.5 252.5 c 128,-1,22
 353 231 353 231 347 203 c 0,23,24
 340 174 340 174 312 154 c 128,-1,25
 284 134 284 134 254 134 c 0,26,27
 242 134 242 134 233.5 136 c 128,-1,28
 225 138 225 138 217 142 c 1,29,-1
 134 0 l 1,30,-1
 50 0 l 1,31,-1
 103 254 l 2,32,33
 109 282 109 282 128.5 309.5 c 128,-1,34
 148 337 148 337 175 358.5 c 128,-1,35
 202 380 202 380 234 393.5 c 128,-1,36
 266 407 266 407 297 407 c 2,37,-1
 371 407 l 2,0,1
233 203 m 0,38,39
 229 188 229 188 237.5 177.5 c 128,-1,40
 246 167 246 167 261 167 c 256,41,42
 276 167 276 167 288.5 177.5 c 128,-1,43
 301 188 301 188 305 203 c 0,44,45
 308 218 308 218 299.5 228.5 c 128,-1,46
 291 239 291 239 276 239 c 256,47,48
 261 239 261 239 248.5 228.5 c 128,-1,49
 236 218 236 218 233 203 c 0,38,39
EndSplineSet
EndChar
StartChar: uni0E05
Encoding: 3589 3589 216
Width: 459
Flags: W
Fore
104 255 m 2,0,1
 110 282 110 282 129 309 c 128,-1,2
 148 336 148 336 173.5 357.5 c 128,-1,3
 199 379 199 379 226.5 392.5 c 128,-1,4
 254 406 254 406 277 408 c 1,5,-1
 323 346 l 1,6,-1
 390 407 l 1,7,8
 403 406 403 406 418 397.5 c 128,-1,9
 433 389 433 389 445 374.5 c 128,-1,10
 457 360 457 360 463 341 c 128,-1,11
 469 322 469 322 465 301 c 2,12,-1
 402 0 l 1,13,-1
 328 0 l 1,14,-1
 391 301 l 2,15,16
 394 315 394 315 391.5 329 c 128,-1,17
 389 343 389 343 379 349 c 1,18,-1
 311 290 l 1,19,-1
 265 349 l 1,20,21
 250 345 250 345 235.5 335.5 c 128,-1,22
 221 326 221 326 209.5 313 c 128,-1,23
 198 300 198 300 189.5 285 c 128,-1,24
 181 270 181 270 178 255 c 2,25,-1
 151 131 l 1,26,-1
 198 226 l 2,27,28
 211 248 211 248 234 261.5 c 128,-1,29
 257 275 257 275 284 275 c 0,30,31
 318 275 318 275 335.5 253.5 c 128,-1,32
 353 232 353 232 347 204 c 0,33,34
 344 189 344 189 334.5 176.5 c 128,-1,35
 325 164 325 164 312.5 155 c 128,-1,36
 300 146 300 146 284.5 140.5 c 128,-1,37
 269 135 269 135 254 135 c 0,38,39
 242 135 242 135 233.5 137 c 128,-1,40
 225 139 225 139 217 143 c 1,41,-1
 134 1 l 1,42,-1
 50 1 l 1,43,-1
 104 255 l 2,0,1
233 204 m 256,44,45
 230 189 230 189 238 178.5 c 128,-1,46
 246 168 246 168 261 168 c 256,47,48
 276 168 276 168 289 178.5 c 128,-1,49
 302 189 302 189 305 204 c 256,50,51
 308 219 308 219 300 229.5 c 128,-1,52
 292 240 292 240 277 240 c 256,53,54
 262 240 262 240 249 229.5 c 128,-1,55
 236 219 236 219 233 204 c 256,44,45
EndSplineSet
EndChar
StartChar: uni0E06
Encoding: 3590 3590 217
Width: 512
Flags: W
Fore
282 164 m 1,0,1
 323 153 323 153 352.5 134 c 128,-1,2
 382 115 382 115 402 95 c 1,3,-1
 468 407 l 1,4,-1
 540 407 l 1,5,-1
 454 0 l 1,6,-1
 387 0 l 1,7,8
 367 37 367 37 336.5 61 c 128,-1,9
 306 85 306 85 270 97 c 1,10,-1
 257 36 l 1,11,12
 249 27 249 27 242.5 20.5 c 128,-1,13
 236 14 236 14 228 9 c 128,-1,14
 220 4 220 4 208.5 1.5 c 128,-1,15
 197 -1 197 -1 180 -1 c 256,16,17
 163 -1 163 -1 149.5 6 c 128,-1,18
 136 13 136 13 126.5 25 c 128,-1,19
 117 37 117 37 113 51.5 c 128,-1,20
 109 66 109 66 112 81 c 0,21,22
 115 95 115 95 124.5 109 c 128,-1,23
 134 123 134 123 147.5 134.5 c 128,-1,24
 161 146 161 146 177 153 c 128,-1,25
 193 160 193 160 208 160 c 1,26,-1
 212 180 l 2,27,28
 216 199 216 199 220.5 211 c 128,-1,29
 225 223 225 223 231.5 231.5 c 128,-1,30
 238 240 238 240 247 248 c 128,-1,31
 256 256 256 256 269 268 c 0,32,33
 282 279 282 279 291.5 295 c 128,-1,34
 301 311 301 311 304 326 c 0,35,36
 307 343 307 343 301 354 c 1,37,-1
 244 311 l 1,38,-1
 194 362 l 1,39,40
 174 360 174 360 161.5 352 c 128,-1,41
 149 344 149 344 143 337 c 1,42,-1
 156 337 l 2,43,44
 166 337 166 337 176.5 332 c 128,-1,45
 187 327 187 327 195 318 c 128,-1,46
 203 309 203 309 206.5 297 c 128,-1,47
 210 285 210 285 207 271 c 0,48,49
 201 241 201 241 178.5 222.5 c 128,-1,50
 156 204 156 204 127 204 c 0,51,52
 108 204 108 204 95 212 c 128,-1,53
 82 220 82 220 74.5 232.5 c 128,-1,54
 67 245 67 245 65.5 261 c 128,-1,55
 64 277 64 277 67 294 c 0,56,57
 72 318 72 318 86.5 338.5 c 128,-1,58
 101 359 101 359 121.5 374.5 c 128,-1,59
 142 390 142 390 166 399.5 c 128,-1,60
 190 409 190 409 214 409 c 1,61,-1
 256 366 l 1,62,-1
 311 409 l 1,63,64
 337 396 337 396 344 370 c 128,-1,65
 351 344 351 344 344 314 c 0,66,67
 341 299 341 299 333 284 c 128,-1,68
 325 269 325 269 316 253.5 c 128,-1,69
 307 238 307 238 299 222 c 128,-1,70
 291 206 291 206 288 190 c 2,71,-1
 282 164 l 1,0,1
105 271 m 256,72,73
 102 256 102 256 110 245.5 c 128,-1,74
 118 235 118 235 133 235 c 256,75,76
 148 235 148 235 161 245.5 c 128,-1,77
 174 256 174 256 177 271 c 256,78,79
 180 286 180 286 172 296.5 c 128,-1,80
 164 307 164 307 149 307 c 256,81,82
 134 307 134 307 121 296.5 c 128,-1,83
 108 286 108 286 105 271 c 256,72,73
158 79 m 0,84,85
 155 63 155 63 162 50 c 128,-1,86
 169 37 169 37 182 30 c 1,87,-1
 202 127 l 1,88,89
 185 123 185 123 173.5 109.5 c 128,-1,90
 162 96 162 96 158 79 c 0,84,85
EndSplineSet
EndChar
StartChar: uni0E07
Encoding: 3591 3591 218
Width: 374
Flags: W
Fore
301 267 m 1,0,1
 271 267 271 267 251 287.5 c 128,-1,2
 231 308 231 308 237 337 c 0,3,4
 240 350 240 350 249 362.5 c 128,-1,5
 258 375 258 375 271 384.5 c 128,-1,6
 284 394 284 394 299 399.5 c 128,-1,7
 314 405 314 405 329 405 c 0,8,9
 358 405 358 405 377 385 c 128,-1,10
 396 365 396 365 390 338 c 2,11,-1
 319 0 l 1,12,-1
 259 0 l 2,13,14
 227 0 227 0 205.5 14.5 c 128,-1,15
 184 29 184 29 173 52 c 0,16,17
 147 103 147 103 120 162 c 128,-1,18
 93 221 93 221 69 272 c 1,19,-1
 152 272 l 1,20,-1
 244 69 l 2,21,22
 247 64 247 64 250 62.5 c 128,-1,23
 253 61 253 61 257 59 c 1,24,-1
 301 267 l 1,0,1
275 336 m 256,25,26
 272 321 272 321 280 310.5 c 128,-1,27
 288 300 288 300 303 300 c 256,28,29
 318 300 318 300 331 310.5 c 128,-1,30
 344 321 344 321 347 336 c 256,31,32
 350 351 350 351 342 361.5 c 128,-1,33
 334 372 334 372 319 372 c 256,34,35
 304 372 304 372 291 361.5 c 128,-1,36
 278 351 278 351 275 336 c 256,25,26
EndSplineSet
EndChar
StartChar: uni0E08
Encoding: 3592 3592 219
Width: 417
Flags: W
Fore
209 128 m 1,0,1
 179 128 179 128 159 148.5 c 128,-1,2
 139 169 139 169 145 198 c 0,3,4
 148 211 148 211 156.5 223.5 c 128,-1,5
 165 236 165 236 178 245.5 c 128,-1,6
 191 255 191 255 206 260.5 c 128,-1,7
 221 266 221 266 236 266 c 0,8,9
 265 266 265 266 284 246 c 128,-1,10
 303 226 303 226 298 199 c 2,11,-1
 270 67 l 1,12,13
 284 68 284 68 299.5 81.5 c 128,-1,14
 315 95 315 95 320 122 c 2,15,-1
 358 299 l 2,16,17
 362 318 362 318 352.5 335 c 128,-1,18
 343 352 343 352 326 352 c 2,19,-1
 253 352 l 2,20,21
 221 352 221 352 187 329 c 128,-1,22
 153 306 153 306 132 275 c 1,23,-1
 79 294 l 1,24,25
 110 342 110 342 160 374 c 128,-1,26
 210 406 210 406 265 407 c 2,27,-1
 331 407 l 2,28,29
 354 407 354 407 373 398 c 128,-1,30
 392 389 392 389 404.5 374 c 128,-1,31
 417 359 417 359 422 339.5 c 128,-1,32
 427 320 427 320 423 299 c 2,33,-1
 382 104 l 2,34,35
 378 84 378 84 364.5 65.5 c 128,-1,36
 351 47 351 47 332.5 32.5 c 128,-1,37
 314 18 314 18 292 9 c 128,-1,38
 270 0 270 0 249 0 c 2,39,-1
 182 0 l 1,40,-1
 209 128 l 1,0,1
182 197 m 0,41,42
 179 182 179 182 187.5 171.5 c 128,-1,43
 196 161 196 161 211 161 c 256,44,45
 226 161 226 161 238.5 171.5 c 128,-1,46
 251 182 251 182 254 197 c 0,47,48
 258 212 258 212 249.5 222.5 c 128,-1,49
 241 233 241 233 226 233 c 256,50,51
 211 233 211 233 198.5 222.5 c 128,-1,52
 186 212 186 212 182 197 c 0,41,42
EndSplineSet
EndChar
StartChar: uni0E09
Encoding: 3593 3593 220
Width: 439
Flags: W
Fore
92 154 m 256,0,1
 89 139 89 139 97.5 128.5 c 128,-1,2
 106 118 106 118 121 118 c 256,3,4
 136 118 136 118 148.5 128.5 c 128,-1,5
 161 139 161 139 164 154 c 256,6,7
 167 169 167 169 159 179.5 c 128,-1,8
 151 190 151 190 136 190 c 256,9,10
 121 190 121 190 108 179.5 c 128,-1,11
 95 169 95 169 92 154 c 256,0,1
285 65 m 1,12,13
 258 51 258 51 229 32.5 c 128,-1,14
 200 14 200 14 174 0 c 1,15,-1
 115 0 l 1,16,-1
 133 87 l 1,17,18
 130 86 130 86 127 86 c 2,19,20
 124 85 124 85 119 85 c 0,21,22
 104 85 104 85 91 90.5 c 128,-1,23
 78 96 78 96 68.5 105.5 c 128,-1,24
 59 115 59 115 55 128 c 128,-1,25
 51 141 51 141 54 155 c 0,26,27
 57 168 57 168 66 180.5 c 128,-1,28
 75 193 75 193 88 202.5 c 128,-1,29
 101 212 101 212 116 217.5 c 128,-1,30
 131 223 131 223 146 223 c 0,31,32
 175 223 175 223 194 203 c 128,-1,33
 213 183 213 183 208 156 c 2,34,-1
 189 70 l 1,35,36
 227 90 227 90 265 114 c 128,-1,37
 303 138 303 138 342 158 c 1,38,-1
 372 298 l 2,39,40
 377 318 377 318 367.5 335 c 128,-1,41
 358 352 358 352 339 352 c 2,42,-1
 249 352 l 2,43,44
 230 352 230 352 211.5 345.5 c 128,-1,45
 193 339 193 339 177.5 327.5 c 128,-1,46
 162 316 162 316 149 301.5 c 128,-1,47
 136 287 136 287 127 272 c 1,48,-1
 69 272 l 1,49,50
 77 295 77 295 94 319 c 128,-1,51
 111 343 111 343 136 362.5 c 128,-1,52
 161 382 161 382 192.5 394.5 c 128,-1,53
 224 407 224 407 261 407 c 2,54,-1
 353 407 l 2,55,56
 376 407 376 407 395 398 c 128,-1,57
 414 389 414 389 427 374 c 128,-1,58
 440 359 440 359 445 339.5 c 128,-1,59
 450 320 450 320 446 298 c 2,60,-1
 414 147 l 1,61,62
 434 138 434 138 443 119.5 c 128,-1,63
 452 101 452 101 447 78 c 0,64,65
 444 62 444 62 434 48 c 128,-1,66
 424 34 424 34 410 23.5 c 128,-1,67
 396 13 396 13 379 6.5 c 128,-1,68
 362 0 362 0 346 0 c 0,69,70
 311 0 311 0 295.5 19.5 c 128,-1,71
 280 39 280 39 285 65 c 1,12,13
330 76 m 0,72,73
 326 61 326 61 334.5 50.5 c 128,-1,74
 343 40 343 40 358 40 c 256,75,76
 373 40 373 40 385.5 50.5 c 128,-1,77
 398 61 398 61 402 76 c 0,78,79
 405 91 405 91 396.5 101.5 c 128,-1,80
 388 112 388 112 373 112 c 256,81,82
 358 112 358 112 345.5 101.5 c 128,-1,83
 333 91 333 91 330 76 c 0,72,73
EndSplineSet
EndChar
StartChar: uni0E0A
Encoding: 3594 3594 221
Width: 412
Flags: W
Fore
342 250 m 2,0,1
 343 255 343 255 330 264.5 c 128,-1,2
 317 274 317 274 297 274 c 1,3,-1
 250 55 l 1,4,5
 257 55 257 55 267 58.5 c 128,-1,6
 277 62 277 62 286 68.5 c 128,-1,7
 295 75 295 75 301.5 83.5 c 128,-1,8
 308 92 308 92 310 102 c 2,9,-1
 342 250 l 2,0,1
211 407 m 0,10,11
 259 406 259 406 282 380.5 c 128,-1,12
 305 355 305 355 303 314 c 1,13,14
 330 325 330 325 348.5 339 c 128,-1,15
 367 353 367 353 380 371.5 c 128,-1,16
 393 390 393 390 402 413 c 128,-1,17
 411 436 411 436 419 464 c 1,18,-1
 494 464 l 1,19,20
 484 438 484 438 473.5 412.5 c 128,-1,21
 463 387 463 387 449 364 c 128,-1,22
 435 341 435 341 416.5 322 c 128,-1,23
 398 303 398 303 371 291 c 1,24,25
 383 283 383 283 393 273.5 c 128,-1,26
 403 264 403 264 406 256 c 1,27,-1
 374 108 l 2,28,29
 370 87 370 87 357 67.5 c 128,-1,30
 344 48 344 48 325.5 33 c 128,-1,31
 307 18 307 18 285.5 9 c 128,-1,32
 264 0 264 0 242 0 c 2,33,-1
 224 0 l 2,34,35
 201 0 201 0 186.5 15.5 c 128,-1,36
 172 31 172 31 177 52 c 2,37,-1
 202 171 l 2,38,39
 206 189 206 189 213 203 c 128,-1,40
 220 217 220 217 228 230 c 128,-1,41
 236 243 236 243 243 257 c 128,-1,42
 250 271 250 271 254 289 c 0,43,44
 257 304 257 304 254 317 c 128,-1,45
 251 330 251 330 243.5 340.5 c 128,-1,46
 236 351 236 351 225 357 c 128,-1,47
 214 363 214 363 202 363 c 0,48,49
 191 363 191 363 184.5 360 c 128,-1,50
 178 357 178 357 176 355 c 1,51,52
 205 355 205 355 218 333 c 128,-1,53
 231 311 231 311 225 285 c 0,54,55
 219 257 219 257 195.5 235.5 c 128,-1,56
 172 214 172 214 141 214 c 0,57,58
 121 214 121 214 107.5 221.5 c 128,-1,59
 94 229 94 229 85.5 241 c 128,-1,60
 77 253 77 253 75 268 c 128,-1,61
 73 283 73 283 76 298 c 0,62,63
 81 325 81 325 100 352 c 0,64,65
 121 378 121 378 149 392.5 c 128,-1,66
 177 407 177 407 211 407 c 0,10,11
119 285 m 256,67,68
 116 270 116 270 124 259.5 c 128,-1,69
 132 249 132 249 147 249 c 256,70,71
 162 249 162 249 175 259.5 c 128,-1,72
 188 270 188 270 191 285 c 256,73,74
 194 300 194 300 186 310.5 c 128,-1,75
 178 321 178 321 163 321 c 256,76,77
 148 321 148 321 135 310.5 c 128,-1,78
 122 300 122 300 119 285 c 256,67,68
EndSplineSet
EndChar
StartChar: uni0E0B
Encoding: 3595 3595 222
Width: 413
Flags: W
Fore
192 362 m 1,0,1
 172 360 172 360 159.5 352 c 128,-1,2
 147 344 147 344 141 337 c 1,3,-1
 154 337 l 2,4,5
 164 337 164 337 174.5 332 c 128,-1,6
 185 327 185 327 193 318 c 128,-1,7
 201 309 201 309 204.5 297 c 128,-1,8
 208 285 208 285 205 271 c 0,9,10
 199 241 199 241 176.5 222.5 c 128,-1,11
 154 204 154 204 125 204 c 0,12,13
 106 204 106 204 93 212 c 128,-1,14
 80 220 80 220 72.5 232.5 c 128,-1,15
 65 245 65 245 63.5 261 c 128,-1,16
 62 277 62 277 65 294 c 0,17,18
 70 318 70 318 84.5 338.5 c 128,-1,19
 99 359 99 359 119.5 374.5 c 128,-1,20
 140 390 140 390 164 399.5 c 128,-1,21
 188 409 188 409 212 409 c 1,22,-1
 254 366 l 1,23,-1
 309 409 l 1,24,25
 330 398 330 398 338.5 378.5 c 128,-1,26
 347 359 347 359 345 336 c 1,27,28
 364 346 364 346 376.5 358.5 c 128,-1,29
 389 371 389 371 397.5 387 c 128,-1,30
 406 403 406 403 412.5 422.5 c 128,-1,31
 419 442 419 442 427 467 c 1,32,-1
 500 467 l 1,33,-1
 490 438 l 2,34,35
 483 418 483 418 475 397.5 c 128,-1,36
 467 377 467 377 455.5 359 c 128,-1,37
 444 341 444 341 427.5 325 c 128,-1,38
 411 309 411 309 387 298 c 1,39,40
 417 277 417 277 414 261 c 2,41,-1
 381 108 l 2,42,43
 377 87 377 87 364 67.5 c 128,-1,44
 351 48 351 48 332 33 c 128,-1,45
 313 18 313 18 291 9 c 128,-1,46
 269 0 269 0 247 0 c 2,47,-1
 230 0 l 2,48,49
 208 0 208 0 193 15.5 c 128,-1,50
 178 31 178 31 183 52 c 2,51,-1
 210 180 l 2,52,53
 214 199 214 199 218.5 211 c 128,-1,54
 223 223 223 223 229.5 231.5 c 128,-1,55
 236 240 236 240 245 248 c 128,-1,56
 254 256 254 256 267 268 c 0,57,58
 278 278 278 278 288.5 294.5 c 128,-1,59
 299 311 299 311 302 327 c 0,60,61
 305 345 305 345 299 354 c 1,62,-1
 242 311 l 1,63,-1
 192 362 l 1,0,1
324 270 m 1,64,65
 312 250 312 250 301 230 c 128,-1,66
 290 210 290 210 285 190 c 2,67,-1
 256 55 l 1,68,69
 263 55 263 55 273 58.5 c 128,-1,70
 283 62 283 62 292 68.5 c 128,-1,71
 301 75 301 75 307.5 83.5 c 128,-1,72
 314 92 314 92 316 102 c 2,73,-1
 348 251 l 1,74,75
 346 256 346 256 340 263 c 128,-1,76
 334 270 334 270 324 270 c 1,64,65
103 271 m 256,77,78
 100 256 100 256 108 245.5 c 128,-1,79
 116 235 116 235 131 235 c 256,80,81
 146 235 146 235 159 245.5 c 128,-1,82
 172 256 172 256 175 271 c 256,83,84
 178 286 178 286 170 296.5 c 128,-1,85
 162 307 162 307 147 307 c 256,86,87
 132 307 132 307 119 296.5 c 128,-1,88
 106 286 106 286 103 271 c 256,77,78
EndSplineSet
EndChar
StartChar: uni0E0C
Encoding: 3596 3596 223
Width: 611
Flags: W
Fore
280 73 m 0,0,1
 277 59 277 59 283.5 45.5 c 128,-1,2
 290 32 290 32 300 29 c 1,3,-1
 318 116 l 1,4,5
 306 115 306 115 294.5 101.5 c 128,-1,6
 283 88 283 88 280 73 c 0,0,1
357 300 m 2,7,8
 362 320 362 320 352.5 336 c 128,-1,9
 343 352 343 352 326 352 c 2,10,-1
 261 352 l 2,11,12
 248 352 248 352 233 346.5 c 128,-1,13
 218 341 218 341 203.5 331.5 c 128,-1,14
 189 322 189 322 176.5 310 c 128,-1,15
 164 298 164 298 156 286 c 1,16,17
 176 275 176 275 182 252 c 128,-1,18
 188 229 188 229 184 211 c 2,19,-1
 169 141 l 1,20,-1
 175 141 l 2,21,22
 205 141 205 141 220.5 119 c 128,-1,23
 236 97 236 97 231 71 c 0,24,25
 224 42 224 42 201 21 c 128,-1,26
 178 0 178 0 146 0 c 0,27,28
 132 0 132 0 119.5 4.5 c 128,-1,29
 107 9 107 9 97.5 16.5 c 128,-1,30
 88 24 88 24 82.5 35 c 128,-1,31
 77 46 77 46 78 58 c 2,32,-1
 111 212 l 2,33,34
 114 229 114 229 104 243 c 128,-1,35
 94 257 94 257 76 259 c 1,36,37
 85 290 85 290 106 317 c 128,-1,38
 127 344 127 344 154 364 c 128,-1,39
 181 384 181 384 212.5 395.5 c 128,-1,40
 244 407 244 407 276 407 c 2,41,-1
 338 407 l 2,42,43
 360 407 360 407 379 398 c 128,-1,44
 398 389 398 389 411.5 374.5 c 128,-1,45
 425 360 425 360 430.5 340.5 c 128,-1,46
 436 321 436 321 432 300 c 2,47,-1
 398 141 l 1,48,49
 426 131 426 131 450.5 116.5 c 128,-1,50
 475 102 475 102 493 82 c 1,51,-1
 562 407 l 1,52,-1
 635 407 l 1,53,-1
 549 0 l 1,54,-1
 482 0 l 1,55,56
 459 29 459 29 437.5 52 c 128,-1,57
 416 75 416 75 387 86 c 1,58,-1
 375 29 l 1,59,60
 359 18 359 18 342 9.5 c 128,-1,61
 325 1 325 1 308 1 c 0,62,63
 273 1 273 1 257.5 21.5 c 128,-1,64
 242 42 242 42 249 72 c 0,65,66
 256 103 256 103 274.5 123.5 c 128,-1,67
 293 144 293 144 325 149 c 1,68,-1
 357 300 l 2,7,8
125 71 m 0,69,70
 121 56 121 56 129.5 45.5 c 128,-1,71
 138 35 138 35 153 35 c 256,72,73
 168 35 168 35 180.5 45.5 c 128,-1,74
 193 56 193 56 197 71 c 0,75,76
 200 86 200 86 191.5 96.5 c 128,-1,77
 183 107 183 107 168 107 c 256,78,79
 153 107 153 107 140.5 96.5 c 128,-1,80
 128 86 128 86 125 71 c 0,69,70
EndSplineSet
EndChar
StartChar: uni0E0D
Encoding: 3597 3597 224
Width: 615
Flags: W
Fore
411 -87 m 0,0,1
 409 -99 409 -99 401 -108 c 128,-1,2
 393 -117 393 -117 383 -125 c 1,3,-1
 387 -125 l 2,4,5
 419 -125 419 -125 450.5 -99.5 c 128,-1,6
 482 -74 482 -74 499 -37 c 1,7,-1
 563 -37 l 1,8,9
 551 -65 551 -65 530.5 -90 c 128,-1,10
 510 -115 510 -115 484 -133.5 c 128,-1,11
 458 -152 458 -152 428.5 -162.5 c 128,-1,12
 399 -173 399 -173 370 -173 c 0,13,14
 347 -173 347 -173 325.5 -167.5 c 128,-1,15
 304 -162 304 -162 288 -151.5 c 128,-1,16
 272 -141 272 -141 264 -125 c 128,-1,17
 256 -109 256 -109 261 -87 c 0,18,19
 264 -74 264 -74 272.5 -61.5 c 128,-1,20
 281 -49 281 -49 293 -39.5 c 128,-1,21
 305 -30 305 -30 320 -24.5 c 128,-1,22
 335 -19 335 -19 350 -19 c 0,23,24
 381 -19 381 -19 399 -38.5 c 128,-1,25
 417 -58 417 -58 411 -87 c 0,0,1
343 407 m 2,26,27
 365 407 365 407 384.5 398 c 128,-1,28
 404 389 404 389 417.5 374.5 c 128,-1,29
 431 360 431 360 436.5 340.5 c 128,-1,30
 442 321 442 321 438 300 c 2,31,-1
 388 65 l 1,32,-1
 454 65 l 2,33,34
 471 67 471 67 487 83 c 128,-1,35
 503 99 503 99 508 119 c 2,36,-1
 569 407 l 1,37,-1
 643 407 l 1,38,-1
 580 109 l 2,39,40
 575 88 575 88 562 68 c 128,-1,41
 549 48 549 48 530 33 c 128,-1,42
 511 18 511 18 488 9 c 128,-1,43
 465 0 465 0 441 0 c 2,44,-1
 362 0 l 2,45,46
 337 0 337 0 323 15.5 c 128,-1,47
 309 31 309 31 311 51 c 2,48,-1
 364 300 l 2,49,50
 369 320 369 320 358.5 336 c 128,-1,51
 348 352 348 352 331 352 c 2,52,-1
 266 352 l 2,53,54
 253 352 253 352 238 346.5 c 128,-1,55
 223 341 223 341 208.5 331.5 c 128,-1,56
 194 322 194 322 181.5 310 c 128,-1,57
 169 298 169 298 161 286 c 1,58,59
 181 275 181 275 187 252 c 128,-1,60
 193 229 193 229 189 211 c 2,61,-1
 174 141 l 1,62,-1
 180 141 l 2,63,64
 195 141 195 141 208 135 c 128,-1,65
 221 129 221 129 230 119 c 128,-1,66
 239 109 239 109 243.5 96.5 c 128,-1,67
 248 84 248 84 245 71 c 0,68,69
 242 56 242 56 232.5 43.5 c 128,-1,70
 223 31 223 31 210.5 21 c 128,-1,71
 198 11 198 11 182.5 5.5 c 128,-1,72
 167 0 167 0 151 0 c 0,73,74
 137 0 137 0 124.5 4.5 c 128,-1,75
 112 9 112 9 102.5 16.5 c 128,-1,76
 93 24 93 24 87.5 35 c 128,-1,77
 82 46 82 46 83 58 c 2,78,-1
 116 212 l 2,79,80
 119 229 119 229 109 243 c 128,-1,81
 99 257 99 257 81 259 c 1,82,83
 90 290 90 290 111 317 c 128,-1,84
 132 344 132 344 159 364 c 128,-1,85
 186 384 186 384 217.5 395.5 c 128,-1,86
 249 407 249 407 281 407 c 2,87,-1
 343 407 l 2,26,27
130 71 m 0,88,89
 126 56 126 56 134.5 45.5 c 128,-1,90
 143 35 143 35 158 35 c 256,91,92
 173 35 173 35 185.5 45.5 c 128,-1,93
 198 56 198 56 202 71 c 0,94,95
 205 86 205 86 196.5 96.5 c 128,-1,96
 188 107 188 107 173 107 c 256,97,98
 158 107 158 107 145.5 96.5 c 128,-1,99
 133 86 133 86 130 71 c 0,88,89
300 -83 m 256,100,101
 297 -98 297 -98 305 -108.5 c 128,-1,102
 313 -119 313 -119 328 -119 c 256,103,104
 343 -119 343 -119 356 -108.5 c 128,-1,105
 369 -98 369 -98 372 -83 c 256,106,107
 375 -68 375 -68 367 -57.5 c 128,-1,108
 359 -47 359 -47 344 -47 c 256,109,110
 329 -47 329 -47 316 -57.5 c 128,-1,111
 303 -68 303 -68 300 -83 c 256,100,101
EndSplineSet
Substitution: 0 65534 'L026' uni0E0D.alt1
Substitution: 0 65534 'L026' uni0E0D.alt1
EndChar
StartChar: uni0E0E
Encoding: 3598 3598 225
Width: 442
Flags: W
Fore
354 407 m 2,0,1
 376 407 376 407 395 398 c 128,-1,2
 414 389 414 389 427.5 374.5 c 128,-1,3
 441 360 441 360 446.5 340.5 c 128,-1,4
 452 321 452 321 448 300 c 2,5,-1
 366 -89 l 1,6,7
 340 -125 340 -125 305 -154 c 128,-1,8
 270 -183 270 -183 223 -200 c 1,9,-1
 168 -151 l 1,10,11
 160 -171 160 -171 139.5 -182.5 c 128,-1,12
 119 -194 119 -194 97 -194 c 0,13,14
 82 -194 82 -194 69 -188 c 128,-1,15
 56 -182 56 -182 47 -172.5 c 128,-1,16
 38 -163 38 -163 34 -150 c 128,-1,17
 30 -137 30 -137 33 -123 c 256,18,19
 36 -109 36 -109 45.5 -96 c 128,-1,20
 55 -83 55 -83 68 -73.5 c 128,-1,21
 81 -64 81 -64 96.5 -58.5 c 128,-1,22
 112 -53 112 -53 127 -53 c 0,23,24
 143 -53 143 -53 156.5 -58.5 c 128,-1,25
 170 -64 170 -64 179 -72 c 2,26,-1
 246 -121 l 1,27,28
 269 -107 269 -107 296 -74 c 1,29,-1
 375 300 l 2,30,31
 380 320 380 320 369.5 336 c 128,-1,32
 359 352 359 352 342 352 c 2,33,-1
 277 352 l 2,34,35
 265 352 265 352 249.5 346.5 c 128,-1,36
 234 341 234 341 219 332 c 128,-1,37
 204 323 204 323 190.5 312 c 128,-1,38
 177 301 177 301 169 290 c 1,39,40
 185 288 185 288 196 279 c 128,-1,41
 207 270 207 270 213.5 258 c 128,-1,42
 220 246 220 246 222.5 233.5 c 128,-1,43
 225 221 225 221 223 212 c 2,44,-1
 192 67 l 2,45,46
 189 54 189 54 179.5 42 c 128,-1,47
 170 30 170 30 157.5 20.5 c 128,-1,48
 145 11 145 11 129.5 5.5 c 128,-1,49
 114 0 114 0 99 0 c 0,50,51
 67 0 67 0 49 22 c 128,-1,52
 31 44 31 44 36 70 c 0,53,54
 39 84 39 84 48 97 c 128,-1,55
 57 110 57 110 70 119.5 c 128,-1,56
 83 129 83 129 98.5 135 c 128,-1,57
 114 141 114 141 129 141 c 2,58,-1
 133 141 l 1,59,-1
 148 211 l 2,60,61
 149 218 149 218 144.5 226.5 c 128,-1,62
 140 235 140 235 132 242 c 128,-1,63
 124 249 124 249 113 254.5 c 128,-1,64
 102 260 102 260 91 261 c 1,65,66
 101 292 101 292 122 319 c 128,-1,67
 143 346 143 346 170 365.5 c 128,-1,68
 197 385 197 385 228.5 396 c 128,-1,69
 260 407 260 407 292 407 c 2,70,-1
 354 407 l 2,0,1
78 71 m 0,71,72
 74 56 74 56 82.5 45.5 c 128,-1,73
 91 35 91 35 106 35 c 256,74,75
 121 35 121 35 133.5 45.5 c 128,-1,76
 146 56 146 56 150 71 c 0,77,78
 153 86 153 86 144.5 96.5 c 128,-1,79
 136 107 136 107 121 107 c 256,80,81
 106 107 106 107 93.5 96.5 c 128,-1,82
 81 86 81 86 78 71 c 0,71,72
74 -121 m 256,83,84
 71 -136 71 -136 79 -146.5 c 128,-1,85
 87 -157 87 -157 102 -157 c 256,86,87
 117 -157 117 -157 130 -146.5 c 128,-1,88
 143 -136 143 -136 146 -121 c 256,89,90
 149 -106 149 -106 140.5 -95.5 c 128,-1,91
 132 -85 132 -85 117 -85 c 256,92,93
 102 -85 102 -85 89.5 -95.5 c 128,-1,94
 77 -106 77 -106 74 -121 c 256,83,84
EndSplineSet
Substitution: 0 65534 'L026' uni0E0E.alt1
Substitution: 0 65534 'L026' uni0E0E.alt1
EndChar
StartChar: uni0E0F
Encoding: 3599 3599 226
Width: 441
Flags: W
Fore
354 407 m 2,0,1
 376 407 376 407 395 398 c 128,-1,2
 414 389 414 389 427.5 374.5 c 128,-1,3
 441 360 441 360 446.5 340.5 c 128,-1,4
 452 321 452 321 448 300 c 2,5,-1
 368 -79 l 2,6,7
 363 -100 363 -100 355.5 -116 c 128,-1,8
 348 -132 348 -132 335 -145.5 c 128,-1,9
 322 -159 322 -159 304 -172 c 128,-1,10
 286 -185 286 -185 261 -200 c 1,11,-1
 224 -111 l 1,12,13
 216 -120 216 -120 207 -133 c 128,-1,14
 198 -146 198 -146 188.5 -158.5 c 128,-1,15
 179 -171 179 -171 170 -182.5 c 128,-1,16
 161 -194 161 -194 155 -201 c 1,17,-1
 133 -147 l 1,18,19
 122 -162 122 -162 104 -169 c 128,-1,20
 86 -176 86 -176 69 -176 c 0,21,22
 37 -176 37 -176 18 -154.5 c 128,-1,23
 -1 -133 -1 -133 4 -105 c 0,24,25
 7 -90 7 -90 16.5 -77 c 128,-1,26
 26 -64 26 -64 39 -54.5 c 128,-1,27
 52 -45 52 -45 67.5 -39 c 128,-1,28
 83 -33 83 -33 99 -33 c 0,29,30
 118 -33 118 -33 133.5 -42.5 c 128,-1,31
 149 -52 149 -52 161 -68 c 0,32,33
 167 -75 167 -75 169.5 -87.5 c 128,-1,34
 172 -100 172 -100 174 -111 c 1,35,-1
 240 -22 l 1,36,-1
 278 -111 l 1,37,38
 282 -106 282 -106 286.5 -100 c 128,-1,39
 291 -94 291 -94 295 -77 c 2,40,-1
 375 300 l 2,41,42
 380 320 380 320 369.5 336 c 128,-1,43
 359 352 359 352 342 352 c 2,44,-1
 277 352 l 2,45,46
 265 352 265 352 249.5 346.5 c 128,-1,47
 234 341 234 341 219 332 c 128,-1,48
 204 323 204 323 190.5 312 c 128,-1,49
 177 301 177 301 169 290 c 1,50,51
 185 288 185 288 196 279 c 128,-1,52
 207 270 207 270 213.5 258 c 128,-1,53
 220 246 220 246 222.5 233.5 c 128,-1,54
 225 221 225 221 223 212 c 2,55,-1
 192 67 l 2,56,57
 189 54 189 54 179.5 42 c 128,-1,58
 170 30 170 30 157.5 20.5 c 128,-1,59
 145 11 145 11 129.5 5.5 c 128,-1,60
 114 0 114 0 99 0 c 0,61,62
 67 0 67 0 49 22 c 128,-1,63
 31 44 31 44 36 70 c 0,64,65
 39 84 39 84 48 97 c 128,-1,66
 57 110 57 110 70 119.5 c 128,-1,67
 83 129 83 129 98.5 135 c 128,-1,68
 114 141 114 141 129 141 c 2,69,-1
 133 141 l 1,70,-1
 148 211 l 2,71,72
 149 218 149 218 144.5 226.5 c 128,-1,73
 140 235 140 235 132 242 c 128,-1,74
 124 249 124 249 113 254.5 c 128,-1,75
 102 260 102 260 91 261 c 1,76,77
 101 292 101 292 122 319 c 128,-1,78
 143 346 143 346 170 365.5 c 128,-1,79
 197 385 197 385 228.5 396 c 128,-1,80
 260 407 260 407 292 407 c 2,81,-1
 354 407 l 2,0,1
78 71 m 0,82,83
 74 56 74 56 82.5 45.5 c 128,-1,84
 91 35 91 35 106 35 c 256,85,86
 121 35 121 35 133.5 45.5 c 128,-1,87
 146 56 146 56 150 71 c 0,88,89
 153 86 153 86 144.5 96.5 c 128,-1,90
 136 107 136 107 121 107 c 256,91,92
 106 107 106 107 93.5 96.5 c 128,-1,93
 81 86 81 86 78 71 c 0,82,83
45 -104 m 0,94,95
 42 -119 42 -119 50.5 -129.5 c 128,-1,96
 59 -140 59 -140 74 -140 c 256,97,98
 89 -140 89 -140 101.5 -129.5 c 128,-1,99
 114 -119 114 -119 117 -104 c 0,100,101
 121 -89 121 -89 112.5 -78.5 c 128,-1,102
 104 -68 104 -68 89 -68 c 256,103,104
 74 -68 74 -68 61.5 -78.5 c 128,-1,105
 49 -89 49 -89 45 -104 c 0,94,95
EndSplineSet
Substitution: 0 65534 'L026' uni0E0F.alt1
Substitution: 0 65534 'L026' uni0E0F.alt1
EndChar
StartChar: uni0E10
Encoding: 3600 3600 227
Width: 388
Flags: W
Fore
332 108 m 2,0,1
 327 87 327 87 314.5 68 c 128,-1,2
 302 49 302 49 284 34 c 128,-1,3
 266 19 266 19 244 9.5 c 128,-1,4
 222 0 222 0 198 0 c 2,5,-1
 137 0 l 1,6,-1
 153 79 l 1,7,-1
 149 79 l 2,8,9
 117 79 117 79 98 100.5 c 128,-1,10
 79 122 79 122 85 151 c 0,11,12
 88 165 88 165 97.5 178 c 128,-1,13
 107 191 107 191 120 201 c 128,-1,14
 133 211 133 211 148.5 217 c 128,-1,15
 164 223 164 223 180 223 c 0,16,17
 212 223 212 223 231 203 c 128,-1,18
 250 183 250 183 243 151 c 2,19,-1
 223 60 l 1,20,21
 237 65 237 65 250.5 73.5 c 128,-1,22
 264 82 264 82 269 108 c 2,23,-1
 291 211 l 1,24,25
 258 231 258 231 201.5 246 c 128,-1,26
 145 261 145 261 79 270 c 1,27,28
 85 298 85 298 99.5 327.5 c 128,-1,29
 114 357 114 357 141 376 c 0,30,31
 161 390 161 390 182.5 398.5 c 128,-1,32
 204 407 204 407 229 407 c 0,33,34
 252 407 252 407 268 401.5 c 128,-1,35
 284 396 284 396 301 391 c 2,36,37
 314 385 314 385 327 380.5 c 128,-1,38
 340 376 340 376 352 375 c 0,39,40
 367 375 367 375 390 388.5 c 128,-1,41
 413 402 413 402 447 428 c 1,42,-1
 445 373 l 1,43,44
 422 354 422 354 394.5 336.5 c 128,-1,45
 367 319 367 319 344 319 c 0,46,47
 323 319 323 319 308 326.5 c 128,-1,48
 293 334 293 334 277 340 c 256,49,50
 261 346 261 346 246.5 351 c 128,-1,51
 232 356 232 356 218 356 c 0,52,53
 201 356 201 356 183 341 c 128,-1,54
 165 326 165 326 160 309 c 1,55,56
 214 300 214 300 263 282 c 128,-1,57
 312 264 312 264 359 235 c 1,58,-1
 332 108 l 2,0,1
316 -62 m 2,59,60
 302 -126 302 -126 270 -155.5 c 128,-1,61
 238 -185 238 -185 188 -199 c 1,62,-1
 149 -121 l 1,63,-1
 87 -199 l 1,64,-1
 71 -140 l 1,65,66
 57 -154 57 -154 43 -160.5 c 128,-1,67
 29 -167 29 -167 17 -167 c 0,68,69
 -17 -167 -17 -167 -32 -145.5 c 128,-1,70
 -47 -124 -47 -124 -41 -95 c 256,71,72
 -35 -66 -35 -66 -11.5 -44.5 c 128,-1,73
 12 -23 12 -23 46 -23 c 0,74,75
 66 -23 66 -23 83 -31.5 c 128,-1,76
 100 -40 100 -40 101 -53 c 2,77,-1
 110 -113 l 1,78,-1
 165 -44 l 1,79,-1
 214 -141 l 1,80,81
 228 -138 228 -138 238.5 -129.5 c 128,-1,82
 249 -121 249 -121 251 -109 c 1,83,84
 230 -109 230 -109 217 -94 c 128,-1,85
 204 -79 204 -79 209 -53 c 0,86,87
 214 -32 214 -32 233 -16.5 c 128,-1,88
 252 -1 252 -1 275 -1 c 256,89,90
 298 -1 298 -1 311 -14 c 128,-1,91
 324 -27 324 -27 319 -50 c 2,92,-1
 316 -62 l 2,59,60
128 152 m 256,93,94
 125 137 125 137 133 126.5 c 128,-1,95
 141 116 141 116 156 116 c 256,96,97
 171 116 171 116 184 126.5 c 128,-1,98
 197 137 197 137 200 152 c 256,99,100
 203 167 203 167 194.5 177.5 c 128,-1,101
 186 188 186 188 171 188 c 256,102,103
 156 188 156 188 143.5 177.5 c 128,-1,104
 131 167 131 167 128 152 c 256,93,94
-3 -92 m 0,105,106
 -6 -107 -6 -107 1.5 -117.5 c 128,-1,107
 9 -128 9 -128 24 -128 c 256,108,109
 39 -128 39 -128 52 -117.5 c 128,-1,110
 65 -107 65 -107 68 -92 c 256,111,112
 71 -77 71 -77 63 -66.5 c 128,-1,113
 55 -56 55 -56 40 -56 c 256,114,115
 25 -56 25 -56 12 -66.5 c 128,-1,116
 -1 -77 -1 -77 -3 -92 c 0,105,106
236 -54 m 256,117,118
 233 -67 233 -67 240 -76 c 128,-1,119
 247 -85 247 -85 260 -85 c 256,120,121
 273 -85 273 -85 284 -76 c 128,-1,122
 295 -67 295 -67 298 -54 c 256,123,124
 301 -41 301 -41 294 -32 c 128,-1,125
 287 -23 287 -23 274 -23 c 256,126,127
 261 -23 261 -23 250 -32 c 128,-1,128
 239 -41 239 -41 236 -54 c 256,117,118
EndSplineSet
Substitution: 0 65534 'L026' uni0E10.alt1
Substitution: 0 65534 'L026' uni0E10.alt1
EndChar
StartChar: uni0E11
Encoding: 3601 3601 228
Width: 559
Flags: W
Fore
211 180 m 2,0,1
 215 199 215 199 219.5 211 c 128,-1,2
 224 223 224 223 230.5 231.5 c 128,-1,3
 237 240 237 240 246 248 c 128,-1,4
 255 256 255 256 268 268 c 0,5,6
 281 279 281 279 290.5 295 c 128,-1,7
 300 311 300 311 303 326 c 0,8,9
 306 343 306 343 300 354 c 1,10,-1
 243 311 l 1,11,-1
 193 362 l 1,12,13
 173 360 173 360 160.5 352 c 128,-1,14
 148 344 148 344 142 337 c 1,15,-1
 155 337 l 2,16,17
 165 337 165 337 175.5 332 c 128,-1,18
 186 327 186 327 194 318 c 128,-1,19
 202 309 202 309 205.5 297 c 128,-1,20
 209 285 209 285 206 271 c 0,21,22
 200 241 200 241 177.5 222.5 c 128,-1,23
 155 204 155 204 126 204 c 0,24,25
 107 204 107 204 94 212 c 128,-1,26
 81 220 81 220 73.5 232.5 c 128,-1,27
 66 245 66 245 64.5 261 c 128,-1,28
 63 277 63 277 66 294 c 0,29,30
 71 318 71 318 85.5 338.5 c 128,-1,31
 100 359 100 359 120.5 374.5 c 128,-1,32
 141 390 141 390 165 399.5 c 128,-1,33
 189 409 189 409 213 409 c 1,34,-1
 255 366 l 1,35,-1
 310 409 l 1,36,37
 336 396 336 396 343 370 c 128,-1,38
 350 344 350 344 343 314 c 0,39,40
 340 299 340 299 332 284 c 128,-1,41
 324 269 324 269 315 253.5 c 128,-1,42
 306 238 306 238 298 222 c 128,-1,43
 290 206 290 206 287 190 c 2,44,-1
 270 111 l 1,45,46
 274 125 274 125 278.5 136.5 c 128,-1,47
 283 148 283 148 285 154 c 1,48,-1
 463 407 l 1,49,50
 489 407 489 407 510 399 c 128,-1,51
 531 391 531 391 545 377 c 128,-1,52
 559 363 559 363 564 343 c 128,-1,53
 569 323 569 323 564 298 c 2,54,-1
 501 0 l 1,55,-1
 429 0 l 1,56,-1
 487 277 l 2,57,58
 490 290 490 290 486 301 c 128,-1,59
 482 312 482 312 473 318 c 1,60,-1
 246 0 l 1,61,-1
 173 0 l 1,62,-1
 211 180 l 2,0,1
104 271 m 256,63,64
 101 256 101 256 109 245.5 c 128,-1,65
 117 235 117 235 132 235 c 256,66,67
 147 235 147 235 160 245.5 c 128,-1,68
 173 256 173 256 176 271 c 256,69,70
 179 286 179 286 171 296.5 c 128,-1,71
 163 307 163 307 148 307 c 256,72,73
 133 307 133 307 120 296.5 c 128,-1,74
 107 286 107 286 104 271 c 256,63,64
EndSplineSet
EndChar
StartChar: uni0E12
Encoding: 3602 3602 229
Width: 644
Flags: W
Fore
445 150 m 1,0,1
 475 139 475 139 494 120 c 128,-1,2
 513 101 513 101 527 82 c 1,3,-1
 596 407 l 1,4,-1
 670 407 l 1,5,-1
 584 0 l 1,6,-1
 507 0 l 1,7,8
 496 26 496 26 478.5 50.5 c 128,-1,9
 461 75 461 75 432 86 c 1,10,-1
 420 29 l 1,11,12
 404 18 404 18 392.5 9.5 c 128,-1,13
 381 1 381 1 364 1 c 0,14,15
 329 1 329 1 313.5 21.5 c 128,-1,16
 298 42 298 42 305 72 c 0,17,18
 312 103 312 103 330.5 123.5 c 128,-1,19
 349 144 349 144 381 149 c 1,20,-1
 413 299 l 2,21,22
 416 313 416 313 405.5 328 c 128,-1,23
 395 343 395 343 383 343 c 1,24,-1
 297 277 l 1,25,-1
 237 344 l 1,26,27
 221 334 221 334 199.5 307.5 c 128,-1,28
 178 281 178 281 171 249 c 2,29,-1
 132 64 l 1,30,31
 153 67 153 67 169.5 73 c 128,-1,32
 186 79 186 79 206 95 c 1,33,34
 192 103 192 103 183.5 119 c 128,-1,35
 175 135 175 135 180 159 c 0,36,37
 183 173 183 173 191.5 186 c 128,-1,38
 200 199 200 199 211.5 208.5 c 128,-1,39
 223 218 223 218 236.5 224 c 128,-1,40
 250 230 250 230 264 230 c 0,41,42
 289 230 289 230 305.5 209 c 128,-1,43
 322 188 322 188 315 159 c 0,44,45
 309 130 309 130 288.5 101.5 c 128,-1,46
 268 73 268 73 239 50.5 c 128,-1,47
 210 28 210 28 176.5 14.5 c 128,-1,48
 143 1 143 1 111 1 c 2,49,-1
 50 1 l 1,50,-1
 103 251 l 2,51,52
 109 279 109 279 126.5 307 c 128,-1,53
 144 335 144 335 167 357.5 c 128,-1,54
 190 380 190 380 215 394 c 128,-1,55
 240 408 240 408 260 408 c 1,56,-1
 313 351 l 1,57,-1
 386 407 l 1,58,59
 408 407 408 407 426.5 398.5 c 128,-1,60
 445 390 445 390 458 375 c 128,-1,61
 471 360 471 360 476 340.5 c 128,-1,62
 481 321 481 321 477 299 c 2,63,-1
 445 150 l 1,0,1
214 159 m 0,64,65
 211 144 211 144 219.5 133.5 c 128,-1,66
 228 123 228 123 243 123 c 256,67,68
 258 123 258 123 270.5 133.5 c 128,-1,69
 283 144 283 144 286 159 c 0,70,71
 290 174 290 174 281.5 184.5 c 128,-1,72
 273 195 273 195 258 195 c 256,73,74
 243 195 243 195 230.5 184.5 c 128,-1,75
 218 174 218 174 214 159 c 0,64,65
336 73 m 0,76,77
 333 59 333 59 339.5 45.5 c 128,-1,78
 346 32 346 32 356 29 c 1,79,-1
 374 116 l 1,80,81
 362 115 362 115 350.5 101.5 c 128,-1,82
 339 88 339 88 336 73 c 0,76,77
EndSplineSet
EndChar
StartChar: uni0E13
Encoding: 3603 3603 230
Width: 613
Flags: W
Fore
125 71 m 0,0,1
 121 56 121 56 129.5 45.5 c 128,-1,2
 138 35 138 35 153 35 c 256,3,4
 168 35 168 35 180.5 45.5 c 128,-1,5
 193 56 193 56 197 71 c 0,6,7
 200 86 200 86 191.5 96.5 c 128,-1,8
 183 107 183 107 168 107 c 256,9,10
 153 107 153 107 140.5 96.5 c 128,-1,11
 128 86 128 86 125 71 c 0,0,1
453 68 m 1,12,13
 436 57 436 57 414 38.5 c 128,-1,14
 392 20 392 20 368 0 c 1,15,-1
 297 0 l 1,16,-1
 360 300 l 2,17,18
 365 320 365 320 354 336 c 128,-1,19
 343 352 343 352 326 352 c 2,20,-1
 261 352 l 2,21,22
 248 352 248 352 233 346.5 c 128,-1,23
 218 341 218 341 203.5 331.5 c 128,-1,24
 189 322 189 322 176.5 310 c 128,-1,25
 164 298 164 298 156 286 c 1,26,27
 176 275 176 275 182 252 c 128,-1,28
 188 229 188 229 184 211 c 2,29,-1
 169 141 l 1,30,-1
 175 141 l 2,31,32
 190 141 190 141 203 135 c 128,-1,33
 216 129 216 129 225 119 c 128,-1,34
 234 109 234 109 238.5 96.5 c 128,-1,35
 243 84 243 84 240 71 c 0,36,37
 237 56 237 56 227.5 43.5 c 128,-1,38
 218 31 218 31 205.5 21 c 128,-1,39
 193 11 193 11 177.5 5.5 c 128,-1,40
 162 0 162 0 146 0 c 0,41,42
 132 0 132 0 119.5 4.5 c 128,-1,43
 107 9 107 9 97.5 16.5 c 128,-1,44
 88 24 88 24 82.5 35 c 128,-1,45
 77 46 77 46 78 58 c 2,46,-1
 111 212 l 2,47,48
 114 229 114 229 104 243 c 128,-1,49
 94 257 94 257 76 259 c 1,50,51
 85 290 85 290 106 317 c 128,-1,52
 127 344 127 344 154 364 c 128,-1,53
 181 384 181 384 212.5 395.5 c 128,-1,54
 244 407 244 407 276 407 c 2,55,-1
 338 407 l 2,56,57
 360 407 360 407 379 398 c 128,-1,58
 398 389 398 389 411.5 374.5 c 128,-1,59
 425 360 425 360 430.5 340.5 c 128,-1,60
 436 321 436 321 432 300 c 2,61,-1
 386 83 l 1,62,63
 414 105 414 105 447.5 128.5 c 128,-1,64
 481 152 481 152 515 171 c 1,65,-1
 565 407 l 1,66,-1
 638 407 l 1,67,-1
 583 147 l 1,68,69
 603 138 603 138 612 119.5 c 128,-1,70
 621 101 621 101 616 78 c 0,71,72
 613 62 613 62 603 48 c 128,-1,73
 593 34 593 34 579 23.5 c 128,-1,74
 565 13 565 13 548 6.5 c 128,-1,75
 531 0 531 0 515 0 c 0,76,77
 480 0 480 0 464 22 c 128,-1,78
 448 44 448 44 453 68 c 1,12,13
499 76 m 0,79,80
 495 61 495 61 503.5 50.5 c 128,-1,81
 512 40 512 40 527 40 c 256,82,83
 542 40 542 40 554.5 50.5 c 128,-1,84
 567 61 567 61 571 76 c 0,85,86
 574 91 574 91 565.5 101.5 c 128,-1,87
 557 112 557 112 542 112 c 256,88,89
 527 112 527 112 514.5 101.5 c 128,-1,90
 502 91 502 91 499 76 c 0,79,80
EndSplineSet
EndChar
StartChar: uni0E14
Encoding: 3604 3604 231
Width: 459
Flags: W
Fore
132 63 m 1,0,1
 153 66 153 66 171.5 72 c 128,-1,2
 190 78 190 78 210 94 c 1,3,4
 194 102 194 102 184.5 118 c 128,-1,5
 175 134 175 134 180 158 c 0,6,7
 183 172 183 172 192.5 184.5 c 128,-1,8
 202 197 202 197 215 207 c 128,-1,9
 228 217 228 217 243.5 222.5 c 128,-1,10
 259 228 259 228 274 228 c 0,11,12
 303 228 303 228 321.5 207.5 c 128,-1,13
 340 187 340 187 334 158 c 256,14,15
 328 129 328 129 304.5 100.5 c 128,-1,16
 281 72 281 72 248.5 49.5 c 128,-1,17
 216 27 216 27 179.5 13.5 c 128,-1,18
 143 0 143 0 111 0 c 2,19,-1
 50 0 l 1,20,-1
 103 250 l 2,21,22
 109 280 109 280 129.5 308.5 c 128,-1,23
 150 337 150 337 178.5 358.5 c 128,-1,24
 207 380 207 380 240 393.5 c 128,-1,25
 273 407 273 407 306 407 c 2,26,-1
 371 407 l 2,27,28
 394 407 394 407 413.5 398.5 c 128,-1,29
 433 390 433 390 446 375 c 128,-1,30
 459 360 459 360 464.5 340 c 128,-1,31
 470 320 470 320 465 298 c 2,32,-1
 402 0 l 1,33,-1
 327 0 l 1,34,-1
 390 301 l 2,35,36
 395 319 395 319 385 335.5 c 128,-1,37
 375 352 375 352 359 352 c 2,38,-1
 292 352 l 2,39,40
 273 352 273 352 253.5 342.5 c 128,-1,41
 234 333 234 333 217 318 c 128,-1,42
 200 303 200 303 187.5 284.5 c 128,-1,43
 175 266 175 266 171 248 c 2,44,-1
 132 63 l 1,0,1
224 159 m 0,45,46
 221 144 221 144 229.5 133.5 c 128,-1,47
 238 123 238 123 253 123 c 256,48,49
 268 123 268 123 280.5 133.5 c 128,-1,50
 293 144 293 144 296 159 c 0,51,52
 300 174 300 174 291.5 184.5 c 128,-1,53
 283 195 283 195 268 195 c 256,54,55
 253 195 253 195 240.5 184.5 c 128,-1,56
 228 174 228 174 224 159 c 0,45,46
EndSplineSet
EndChar
StartChar: uni0E15
Encoding: 3605 3605 232
Width: 458
Flags: W
Fore
103 251 m 2,0,1
 109 279 109 279 126.5 307 c 128,-1,2
 144 335 144 335 167 357.5 c 128,-1,3
 190 380 190 380 215 394 c 128,-1,4
 240 408 240 408 260 408 c 1,5,-1
 313 351 l 1,6,-1
 386 407 l 1,7,8
 408 407 408 407 425 398.5 c 128,-1,9
 442 390 442 390 452.5 375 c 128,-1,10
 463 360 463 360 466 340.5 c 128,-1,11
 469 321 469 321 465 299 c 2,12,-1
 402 0 l 1,13,-1
 328 0 l 1,14,-1
 391 299 l 2,15,16
 394 313 394 313 394.5 328 c 128,-1,17
 395 343 395 343 383 343 c 1,18,-1
 297 277 l 1,19,-1
 237 344 l 1,20,21
 221 334 221 334 199.5 307.5 c 128,-1,22
 178 281 178 281 171 249 c 2,23,-1
 132 64 l 1,24,25
 153 67 153 67 171.5 73 c 128,-1,26
 190 79 190 79 211 95 c 1,27,28
 194 103 194 103 184.5 119 c 128,-1,29
 175 135 175 135 180 159 c 0,30,31
 183 173 183 173 192.5 185.5 c 128,-1,32
 202 198 202 198 215 208 c 128,-1,33
 228 218 228 218 243.5 223.5 c 128,-1,34
 259 229 259 229 274 229 c 0,35,36
 303 229 303 229 321.5 208.5 c 128,-1,37
 340 188 340 188 334 159 c 256,38,39
 328 130 328 130 304.5 101.5 c 128,-1,40
 281 73 281 73 248.5 50.5 c 128,-1,41
 216 28 216 28 179.5 14.5 c 128,-1,42
 143 1 143 1 111 1 c 2,43,-1
 50 1 l 1,44,-1
 103 251 l 2,0,1
225 160 m 0,45,46
 221 145 221 145 229.5 134.5 c 128,-1,47
 238 124 238 124 253 124 c 256,48,49
 268 124 268 124 280.5 134.5 c 128,-1,50
 293 145 293 145 297 160 c 0,51,52
 300 175 300 175 291.5 185.5 c 128,-1,53
 283 196 283 196 268 196 c 256,54,55
 253 196 253 196 240.5 185.5 c 128,-1,56
 228 175 228 175 225 160 c 0,45,46
EndSplineSet
EndChar
StartChar: uni0E16
Encoding: 3606 3606 233
Width: 427
Flags: W
Fore
369 0 m 1,0,-1
 297 0 l 1,1,-1
 360 300 l 2,2,3
 365 320 365 320 354 336 c 128,-1,4
 343 352 343 352 326 352 c 2,5,-1
 261 352 l 2,6,7
 248 352 248 352 233 346.5 c 128,-1,8
 218 341 218 341 203.5 331.5 c 128,-1,9
 189 322 189 322 176.5 310 c 128,-1,10
 164 298 164 298 156 286 c 1,11,12
 176 275 176 275 182 252 c 128,-1,13
 188 229 188 229 184 211 c 2,14,-1
 169 141 l 1,15,-1
 175 141 l 2,16,17
 190 141 190 141 203 135 c 128,-1,18
 216 129 216 129 225 119 c 128,-1,19
 234 109 234 109 238.5 96.5 c 128,-1,20
 243 84 243 84 240 71 c 0,21,22
 237 56 237 56 227.5 43.5 c 128,-1,23
 218 31 218 31 205.5 21 c 128,-1,24
 193 11 193 11 177.5 5.5 c 128,-1,25
 162 0 162 0 146 0 c 0,26,27
 132 0 132 0 119.5 4.5 c 128,-1,28
 107 9 107 9 97.5 16.5 c 128,-1,29
 88 24 88 24 82.5 35 c 128,-1,30
 77 46 77 46 78 58 c 2,31,-1
 111 212 l 2,32,33
 114 229 114 229 104 243 c 128,-1,34
 94 257 94 257 76 259 c 1,35,36
 85 290 85 290 106 317 c 128,-1,37
 127 344 127 344 154 364 c 128,-1,38
 181 384 181 384 212.5 395.5 c 128,-1,39
 244 407 244 407 276 407 c 2,40,-1
 338 407 l 2,41,42
 360 407 360 407 379 398 c 128,-1,43
 398 389 398 389 411.5 374.5 c 128,-1,44
 425 360 425 360 430.5 340.5 c 128,-1,45
 436 321 436 321 432 300 c 2,46,-1
 369 0 l 1,0,-1
125 71 m 0,47,48
 121 56 121 56 129.5 45.5 c 128,-1,49
 138 35 138 35 153 35 c 256,50,51
 168 35 168 35 180.5 45.5 c 128,-1,52
 193 56 193 56 197 71 c 0,53,54
 200 86 200 86 191.5 96.5 c 128,-1,55
 183 107 183 107 168 107 c 256,56,57
 153 107 153 107 140.5 96.5 c 128,-1,58
 128 86 128 86 125 71 c 0,47,48
EndSplineSet
EndChar
StartChar: uni0E17
Encoding: 3607 3607 234
Width: 484
Flags: W
Fore
378 407 m 1,0,1
 404 407 404 407 427 399 c 128,-1,2
 450 391 450 391 466 377 c 128,-1,3
 482 363 482 363 489 343 c 128,-1,4
 496 323 496 323 491 298 c 2,5,-1
 428 0 l 1,6,-1
 354 0 l 1,7,-1
 415 291 l 2,8,9
 418 304 418 304 412 315 c 128,-1,10
 406 326 406 326 395 332 c 1,11,-1
 173 0 l 1,12,-1
 102 0 l 1,13,-1
 158 267 l 1,14,15
 128 267 128 267 108 287.5 c 128,-1,16
 88 308 88 308 94 337 c 0,17,18
 97 350 97 350 106 362.5 c 128,-1,19
 115 375 115 375 128 384.5 c 128,-1,20
 141 394 141 394 156 399.5 c 128,-1,21
 171 405 171 405 186 405 c 0,22,23
 215 405 215 405 234 385 c 128,-1,24
 253 365 253 365 247 338 c 2,25,-1
 201 119 l 1,26,27
 205 133 205 133 209.5 147 c 128,-1,28
 214 161 214 161 218 166 c 2,29,-1
 378 407 l 1,0,1
132 336 m 256,30,31
 129 321 129 321 137 310.5 c 128,-1,32
 145 300 145 300 160 300 c 256,33,34
 175 300 175 300 188 310.5 c 128,-1,35
 201 321 201 321 204 336 c 256,36,37
 207 351 207 351 199 361.5 c 128,-1,38
 191 372 191 372 176 372 c 256,39,40
 161 372 161 372 148 361.5 c 128,-1,41
 135 351 135 351 132 336 c 256,30,31
EndSplineSet
EndChar
StartChar: uni0E18
Encoding: 3608 3608 235
Width: 378
Flags: W
Fore
349 370 m 0,0,1
 372 370 372 370 397 390 c 128,-1,2
 422 410 422 410 445 433 c 1,3,-1
 445 381 l 1,4,5
 436 370 436 370 422.5 359 c 128,-1,6
 409 348 409 348 394 339 c 128,-1,7
 379 330 379 330 364 324 c 128,-1,8
 349 318 349 318 336 318 c 0,9,10
 316 318 316 318 303 324.5 c 128,-1,11
 290 331 290 331 277 338 c 0,12,13
 252 352 252 352 228 352 c 0,14,15
 209 352 209 352 186.5 341.5 c 128,-1,16
 164 331 164 331 158 311 c 1,17,18
 214 303 214 303 269.5 284 c 128,-1,19
 325 265 325 265 375 236 c 1,20,-1
 347 108 l 2,21,22
 343 87 343 87 329 67.5 c 128,-1,23
 315 48 315 48 295.5 33 c 128,-1,24
 276 18 276 18 252.5 9 c 128,-1,25
 229 0 229 0 206 0 c 2,26,-1
 123 0 l 2,27,28
 100 0 100 0 84 15 c 128,-1,29
 68 30 68 30 73 53 c 2,30,-1
 111 233 l 1,31,-1
 182 218 l 1,32,-1
 148 60 l 1,33,-1
 220 60 l 2,34,35
 237 60 237 60 253.5 77.5 c 128,-1,36
 270 95 270 95 275 114 c 2,37,-1
 295 210 l 1,38,39
 261 230 261 230 206 244.5 c 128,-1,40
 151 259 151 259 82 270 c 1,41,42
 88 297 88 297 102 325.5 c 128,-1,43
 116 354 116 354 142 375 c 0,44,45
 162 391 162 391 188.5 399 c 128,-1,46
 215 407 215 407 241 407 c 0,47,48
 258 407 258 407 272.5 402 c 128,-1,49
 287 397 287 397 301 390 c 0,50,51
 312 385 312 385 322.5 377.5 c 128,-1,52
 333 370 333 370 349 370 c 0,0,1
EndSplineSet
EndChar
StartChar: uni0E19
Encoding: 3609 3609 236
Width: 440
Flags: W
Fore
159 267 m 1,0,1
 129 267 129 267 109 287.5 c 128,-1,2
 89 308 89 308 95 337 c 0,3,4
 98 350 98 350 107 362.5 c 128,-1,5
 116 375 116 375 129 384.5 c 128,-1,6
 142 394 142 394 157 399.5 c 128,-1,7
 172 405 172 405 187 405 c 0,8,9
 216 405 216 405 235 385 c 128,-1,10
 254 365 254 365 248 338 c 2,11,-1
 194 84 l 1,12,13
 204 94 204 94 223 106 c 128,-1,14
 242 118 242 118 263 129.5 c 128,-1,15
 284 141 284 141 305 150 c 128,-1,16
 326 159 326 159 342 163 c 1,17,-1
 394 407 l 1,18,-1
 469 407 l 1,19,-1
 414 147 l 1,20,21
 434 138 434 138 443 119.5 c 128,-1,22
 452 101 452 101 447 78 c 0,23,24
 444 62 444 62 434 48 c 128,-1,25
 424 34 424 34 410 23.5 c 128,-1,26
 396 13 396 13 379 6.5 c 128,-1,27
 362 0 362 0 346 0 c 0,28,29
 311 0 311 0 295 23 c 128,-1,30
 279 46 279 46 285 74 c 0,31,32
 287 82 287 82 293 88 c 1,33,34
 265 74 265 74 231.5 48.5 c 128,-1,35
 198 23 198 23 172 0 c 1,36,-1
 103 0 l 1,37,-1
 159 267 l 1,0,1
133 336 m 256,38,39
 130 321 130 321 138 310.5 c 128,-1,40
 146 300 146 300 161 300 c 256,41,42
 176 300 176 300 189 310.5 c 128,-1,43
 202 321 202 321 205 336 c 256,44,45
 208 351 208 351 200 361.5 c 128,-1,46
 192 372 192 372 177 372 c 256,47,48
 162 372 162 372 149 361.5 c 128,-1,49
 136 351 136 351 133 336 c 256,38,39
330 76 m 0,50,51
 326 61 326 61 334.5 50.5 c 128,-1,52
 343 40 343 40 358 40 c 256,53,54
 373 40 373 40 385.5 50.5 c 128,-1,55
 398 61 398 61 402 76 c 0,56,57
 405 91 405 91 396.5 101.5 c 128,-1,58
 388 112 388 112 373 112 c 256,59,60
 358 112 358 112 345.5 101.5 c 128,-1,61
 333 91 333 91 330 76 c 0,50,51
EndSplineSet
EndChar
StartChar: uni0E1A
Encoding: 3610 3610 237
Width: 469
Flags: W
Fore
161 267 m 1,0,1
 131 267 131 267 111 287.5 c 128,-1,2
 91 308 91 308 97 337 c 0,3,4
 100 350 100 350 109 362.5 c 128,-1,5
 118 375 118 375 131 384.5 c 128,-1,6
 144 394 144 394 159 399.5 c 128,-1,7
 174 405 174 405 189 405 c 0,8,9
 218 405 218 405 237 385 c 128,-1,10
 256 365 256 365 250 338 c 2,11,-1
 192 65 l 1,12,-1
 307 65 l 2,13,14
 324 65 324 65 340.5 80.5 c 128,-1,15
 357 96 357 96 361 116 c 2,16,-1
 423 407 l 1,17,-1
 496 407 l 1,18,-1
 431 103 l 2,19,20
 426 82 426 82 413 63.5 c 128,-1,21
 400 45 400 45 381 30.5 c 128,-1,22
 362 16 362 16 339.5 8 c 128,-1,23
 317 0 317 0 294 0 c 2,24,-1
 162 0 l 2,25,26
 139 0 139 0 125 15.5 c 128,-1,27
 111 31 111 31 115 51 c 2,28,-1
 161 267 l 1,0,1
135 336 m 256,29,30
 132 321 132 321 140 310.5 c 128,-1,31
 148 300 148 300 163 300 c 256,32,33
 178 300 178 300 191 310.5 c 128,-1,34
 204 321 204 321 207 336 c 256,35,36
 210 351 210 351 202 361.5 c 128,-1,37
 194 372 194 372 179 372 c 256,38,39
 164 372 164 372 151 361.5 c 128,-1,40
 138 351 138 351 135 336 c 256,29,30
EndSplineSet
EndChar
StartChar: uni0E1B
Encoding: 3611 3611 238
Width: 469
Flags: W
Fore
161 267 m 1,0,1
 131 267 131 267 111 287.5 c 128,-1,2
 91 308 91 308 97 337 c 0,3,4
 100 350 100 350 109 362.5 c 128,-1,5
 118 375 118 375 131 384.5 c 128,-1,6
 144 394 144 394 159 399.5 c 128,-1,7
 174 405 174 405 189 405 c 0,8,9
 218 405 218 405 237 385 c 128,-1,10
 256 365 256 365 250 338 c 2,11,-1
 192 65 l 1,12,-1
 307 65 l 2,13,14
 324 65 324 65 340.5 80.5 c 128,-1,15
 357 96 357 96 361 116 c 2,16,-1
 464 602 l 1,17,-1
 537 602 l 1,18,-1
 431 103 l 2,19,20
 426 82 426 82 413 63.5 c 128,-1,21
 400 45 400 45 381 30.5 c 128,-1,22
 362 16 362 16 339.5 8 c 128,-1,23
 317 0 317 0 294 0 c 2,24,-1
 162 0 l 2,25,26
 139 0 139 0 125 15.5 c 128,-1,27
 111 31 111 31 115 51 c 2,28,-1
 161 267 l 1,0,1
135 336 m 256,29,30
 132 321 132 321 140 310.5 c 128,-1,31
 148 300 148 300 163 300 c 256,32,33
 178 300 178 300 191 310.5 c 128,-1,34
 204 321 204 321 207 336 c 256,35,36
 210 351 210 351 202 361.5 c 128,-1,37
 194 372 194 372 179 372 c 256,38,39
 164 372 164 372 151 361.5 c 128,-1,40
 138 351 138 351 135 336 c 256,29,30
EndSplineSet
KernsSLIFO: 275 60 0 0 274 60 0 0 273 60 0 0
EndChar
StartChar: uni0E1C
Encoding: 3612 3612 239
Width: 457
Flags: W
Fore
418 81 m 2,0,1
 416 70 416 70 410.5 56.5 c 128,-1,2
 405 43 405 43 394.5 31 c 128,-1,3
 384 19 384 19 367 10 c 128,-1,4
 350 1 350 1 324 -1 c 1,5,-1
 254 126 l 1,6,-1
 119 0 l 1,7,8
 88 0 88 0 73 18.5 c 128,-1,9
 58 37 58 37 63 58 c 2,10,-1
 122 338 l 2,11,12
 125 351 125 351 134.5 363.5 c 128,-1,13
 144 376 144 376 157 386 c 128,-1,14
 170 396 170 396 185.5 401.5 c 128,-1,15
 201 407 201 407 216 407 c 256,16,17
 231 407 231 407 244 401 c 128,-1,18
 257 395 257 395 266 385.5 c 128,-1,19
 275 376 275 376 279 363 c 128,-1,20
 283 350 283 350 280 336 c 256,21,22
 277 322 277 322 267.5 309.5 c 128,-1,23
 258 297 258 297 245 287 c 128,-1,24
 232 277 232 277 216.5 271.5 c 128,-1,25
 201 266 201 266 186 266 c 2,26,-1
 181 266 l 1,27,-1
 145 97 l 1,28,-1
 269 215 l 1,29,30
 279 215 279 215 284.5 205 c 128,-1,31
 290 195 290 195 296 184 c 2,32,-1
 347 95 l 1,33,-1
 413 407 l 1,34,-1
 487 407 l 1,35,-1
 418 81 l 2,0,1
167 337 m 256,36,37
 164 322 164 322 172 311.5 c 128,-1,38
 180 301 180 301 195 301 c 256,39,40
 210 301 210 301 223 311.5 c 128,-1,41
 236 322 236 322 239 337 c 256,42,43
 242 352 242 352 234 362.5 c 128,-1,44
 226 373 226 373 211 373 c 256,45,46
 196 373 196 373 183 362.5 c 128,-1,47
 170 352 170 352 167 337 c 256,36,37
EndSplineSet
EndChar
StartChar: uni0E1D
Encoding: 3613 3613 240
Width: 459
Flags: W
Fore
418 81 m 2,0,1
 416 70 416 70 410.5 56.5 c 128,-1,2
 405 43 405 43 394.5 31 c 128,-1,3
 384 19 384 19 367 10 c 128,-1,4
 350 1 350 1 324 -1 c 1,5,-1
 254 126 l 1,6,-1
 119 0 l 1,7,8
 88 0 88 0 73 18.5 c 128,-1,9
 58 37 58 37 63 58 c 2,10,-1
 122 338 l 2,11,12
 125 351 125 351 134.5 363.5 c 128,-1,13
 144 376 144 376 157 386 c 128,-1,14
 170 396 170 396 185.5 401.5 c 128,-1,15
 201 407 201 407 216 407 c 256,16,17
 231 407 231 407 244 401 c 128,-1,18
 257 395 257 395 266 385.5 c 128,-1,19
 275 376 275 376 279 363 c 128,-1,20
 283 350 283 350 280 336 c 256,21,22
 277 322 277 322 267.5 309.5 c 128,-1,23
 258 297 258 297 245 287 c 128,-1,24
 232 277 232 277 216.5 271.5 c 128,-1,25
 201 266 201 266 186 266 c 2,26,-1
 181 266 l 1,27,-1
 145 97 l 1,28,-1
 269 215 l 1,29,30
 279 215 279 215 284.5 205 c 128,-1,31
 290 195 290 195 296 184 c 2,32,-1
 347 95 l 1,33,-1
 454 602 l 1,34,-1
 528 602 l 1,35,-1
 418 81 l 2,0,1
167 337 m 256,36,37
 164 322 164 322 172 311.5 c 128,-1,38
 180 301 180 301 195 301 c 256,39,40
 210 301 210 301 223 311.5 c 128,-1,41
 236 322 236 322 239 337 c 256,42,43
 242 352 242 352 234 362.5 c 128,-1,44
 226 373 226 373 211 373 c 256,45,46
 196 373 196 373 183 362.5 c 128,-1,47
 170 352 170 352 167 337 c 256,36,37
EndSplineSet
KernsSLIFO: 275 60 0 0 274 60 0 0 273 60 0 0
EndChar
StartChar: uni0E1E
Encoding: 3614 3614 241
Width: 506
Flags: W
Fore
155 269 m 1,0,1
 125 269 125 269 104.5 289.5 c 128,-1,2
 84 310 84 310 91 339 c 0,3,4
 94 352 94 352 102.5 364.5 c 128,-1,5
 111 377 111 377 124 386.5 c 128,-1,6
 137 396 137 396 152 401.5 c 128,-1,7
 167 407 167 407 182 407 c 0,8,9
 211 407 211 407 230 387 c 128,-1,10
 249 367 249 367 244 340 c 2,11,-1
 191 90 l 1,12,13
 194 104 194 104 199 118 c 128,-1,14
 204 132 204 132 208 137 c 1,15,-1
 352 406 l 1,16,17
 372 404 372 404 380.5 393 c 128,-1,18
 389 382 389 382 389 373 c 2,19,-1
 407 137 l 2,20,21
 408 132 408 132 407 118 c 128,-1,22
 406 104 406 104 404 90 c 1,23,-1
 471 407 l 1,24,-1
 536 407 l 1,25,-1
 472 107 l 2,26,27
 468 89 468 89 458 71 c 128,-1,28
 448 53 448 53 433 37.5 c 128,-1,29
 418 22 418 22 398 11 c 128,-1,30
 378 0 378 0 356 -4 c 1,31,-1
 334 272 l 1,32,33
 306 218 306 218 279 168 c 0,34,35
 256 124 256 124 230 77.5 c 128,-1,36
 204 31 204 31 183 -4 c 1,37,38
 168 -4 168 -4 154.5 0 c 128,-1,39
 141 4 141 4 131 11 c 128,-1,40
 121 18 121 18 116 28 c 128,-1,41
 111 38 111 38 114 51 c 2,42,-1
 161 270 l 1,43,-1
 155 269 l 1,0,1
128 338 m 0,44,45
 125 323 125 323 133.5 312.5 c 128,-1,46
 142 302 142 302 157 302 c 256,47,48
 172 302 172 302 184.5 312.5 c 128,-1,49
 197 323 197 323 200 338 c 0,50,51
 204 353 204 353 195.5 363.5 c 128,-1,52
 187 374 187 374 172 374 c 256,53,54
 157 374 157 374 144.5 363.5 c 128,-1,55
 132 353 132 353 128 338 c 0,44,45
EndSplineSet
EndChar
StartChar: uni0E1F
Encoding: 3615 3615 242
Width: 506
Flags: W
Fore
183 -4 m 1,0,1
 168 -4 168 -4 154.5 0 c 128,-1,2
 141 4 141 4 131 11 c 128,-1,3
 121 18 121 18 116 28 c 128,-1,4
 111 38 111 38 114 51 c 2,5,-1
 161 270 l 1,6,-1
 155 269 l 1,7,8
 125 269 125 269 104.5 289.5 c 128,-1,9
 84 310 84 310 91 339 c 0,10,11
 94 352 94 352 102.5 364.5 c 128,-1,12
 111 377 111 377 124 386.5 c 128,-1,13
 137 396 137 396 152 401.5 c 128,-1,14
 167 407 167 407 182 407 c 0,15,16
 211 407 211 407 230 387 c 128,-1,17
 249 367 249 367 244 340 c 2,18,-1
 191 90 l 1,19,20
 194 104 194 104 199 118 c 128,-1,21
 204 132 204 132 208 137 c 1,22,-1
 352 406 l 1,23,24
 372 404 372 404 380.5 393 c 128,-1,25
 389 382 389 382 389 373 c 2,26,-1
 407 137 l 2,27,28
 408 132 408 132 407 119 c 128,-1,29
 406 106 406 106 404 92 c 1,30,-1
 512 602 l 1,31,-1
 577 602 l 1,32,-1
 472 107 l 2,33,34
 468 89 468 89 458 71 c 128,-1,35
 448 53 448 53 433 37.5 c 128,-1,36
 418 22 418 22 398 11 c 128,-1,37
 378 0 378 0 356 -4 c 1,38,-1
 334 272 l 1,39,40
 306 218 306 218 279 168 c 0,41,42
 256 124 256 124 230 77.5 c 128,-1,43
 204 31 204 31 183 -4 c 1,0,1
128 338 m 0,44,45
 125 323 125 323 133.5 312.5 c 128,-1,46
 142 302 142 302 157 302 c 256,47,48
 172 302 172 302 184.5 312.5 c 128,-1,49
 197 323 197 323 200 338 c 0,50,51
 204 353 204 353 195.5 363.5 c 128,-1,52
 187 374 187 374 172 374 c 256,53,54
 157 374 157 374 144.5 363.5 c 128,-1,55
 132 353 132 353 128 338 c 0,44,45
EndSplineSet
KernsSLIFO: 275 60 0 0 274 60 0 0 273 60 0 0
EndChar
StartChar: uni0E20
Encoding: 3616 3616 243
Width: 441
Flags: W
Fore
134 141 m 1,0,-1
 149 211 l 2,1,2
 150 218 150 218 145.5 226.5 c 128,-1,3
 141 235 141 235 133 242 c 128,-1,4
 125 249 125 249 114 254.5 c 128,-1,5
 103 260 103 260 92 261 c 1,6,7
 102 292 102 292 123 319 c 128,-1,8
 144 346 144 346 171 365.5 c 128,-1,9
 198 385 198 385 229.5 396 c 128,-1,10
 261 407 261 407 293 407 c 2,11,-1
 355 407 l 2,12,13
 377 407 377 407 396 398 c 128,-1,14
 415 389 415 389 428.5 374.5 c 128,-1,15
 442 360 442 360 447.5 340.5 c 128,-1,16
 453 321 453 321 449 300 c 2,17,-1
 386 0 l 1,18,-1
 313 0 l 1,19,-1
 376 300 l 2,20,21
 381 320 381 320 370.5 336 c 128,-1,22
 360 352 360 352 343 352 c 2,23,-1
 278 352 l 2,24,25
 266 352 266 352 250.5 346.5 c 128,-1,26
 235 341 235 341 220 332 c 128,-1,27
 205 323 205 323 191.5 312 c 128,-1,28
 178 301 178 301 170 290 c 1,29,30
 186 288 186 288 197 279 c 128,-1,31
 208 270 208 270 214.5 258 c 128,-1,32
 221 246 221 246 223.5 233.5 c 128,-1,33
 226 221 226 221 224 212 c 2,34,-1
 193 67 l 2,35,36
 190 54 190 54 180.5 42 c 128,-1,37
 171 30 171 30 158.5 20.5 c 128,-1,38
 146 11 146 11 130.5 5.5 c 128,-1,39
 115 0 115 0 100 0 c 0,40,41
 68 0 68 0 50 22 c 128,-1,42
 32 44 32 44 37 70 c 0,43,44
 40 84 40 84 49 97 c 128,-1,45
 58 110 58 110 71 119.5 c 128,-1,46
 84 129 84 129 99.5 135 c 128,-1,47
 115 141 115 141 130 141 c 2,48,-1
 134 141 l 1,0,-1
79 71 m 0,49,50
 75 56 75 56 83.5 45.5 c 128,-1,51
 92 35 92 35 107 35 c 256,52,53
 122 35 122 35 134.5 45.5 c 128,-1,54
 147 56 147 56 151 71 c 0,55,56
 154 86 154 86 145.5 96.5 c 128,-1,57
 137 107 137 107 122 107 c 256,58,59
 107 107 107 107 94.5 96.5 c 128,-1,60
 82 86 82 86 79 71 c 0,49,50
EndSplineSet
EndChar
StartChar: uni0E21
Encoding: 3617 3617 244
Width: 449
Flags: W
Fore
97 80 m 0,0,1
 93 64 93 64 100 51 c 128,-1,2
 107 38 107 38 120 31 c 1,3,-1
 141 128 l 1,4,5
 124 124 124 124 112 110.5 c 128,-1,6
 100 97 100 97 97 80 c 0,0,1
223 165 m 1,7,8
 263 154 263 154 291.5 135 c 128,-1,9
 320 116 320 116 340 96 c 1,10,-1
 406 407 l 1,11,-1
 480 407 l 1,12,-1
 394 0 l 1,13,-1
 325 0 l 1,14,15
 305 37 305 37 274.5 61.5 c 128,-1,16
 244 86 244 86 208 98 c 1,17,-1
 195 37 l 1,18,19
 187 28 187 28 181 21.5 c 128,-1,20
 175 15 175 15 167 10 c 128,-1,21
 159 5 159 5 147.5 2.5 c 128,-1,22
 136 0 136 0 119 0 c 256,23,24
 102 0 102 0 88 7 c 128,-1,25
 74 14 74 14 64.5 26 c 128,-1,26
 55 38 55 38 51 52.5 c 128,-1,27
 47 67 47 67 50 82 c 0,28,29
 53 96 53 96 63 110.5 c 128,-1,30
 73 125 73 125 86.5 136.5 c 128,-1,31
 100 148 100 148 116.5 156 c 128,-1,32
 133 164 133 164 149 165 c 1,33,-1
 170 267 l 1,34,35
 140 267 140 267 120 287.5 c 128,-1,36
 100 308 100 308 106 337 c 0,37,38
 109 350 109 350 118 362.5 c 128,-1,39
 127 375 127 375 140 384.5 c 128,-1,40
 153 394 153 394 168 399.5 c 128,-1,41
 183 405 183 405 198 405 c 0,42,43
 227 405 227 405 246 385 c 128,-1,44
 265 365 265 365 259 338 c 2,45,-1
 223 165 l 1,7,8
144 336 m 256,46,47
 141 321 141 321 149 310.5 c 128,-1,48
 157 300 157 300 172 300 c 256,49,50
 187 300 187 300 200 310.5 c 128,-1,51
 213 321 213 321 216 336 c 256,52,53
 219 351 219 351 211 361.5 c 128,-1,54
 203 372 203 372 188 372 c 256,55,56
 173 372 173 372 160 361.5 c 128,-1,57
 147 351 147 351 144 336 c 256,46,47
EndSplineSet
EndChar
StartChar: uni0E22
Encoding: 3618 3618 245
Width: 456
Flags: W
Fore
422 102 m 2,0,1
 417 80 417 80 404 61.5 c 128,-1,2
 391 43 391 43 372 29.5 c 128,-1,3
 353 16 353 16 330 8 c 128,-1,4
 307 0 307 0 284 0 c 2,5,-1
 128 0 l 2,6,7
 102 0 102 0 86 14 c 128,-1,8
 70 28 70 28 73 51 c 2,9,-1
 84 99 l 2,10,11
 87 115 87 115 95.5 130.5 c 128,-1,12
 104 146 104 146 115 158.5 c 128,-1,13
 126 171 126 171 140.5 178.5 c 128,-1,14
 155 186 155 186 170 187 c 1,15,16
 149 191 149 191 136.5 200.5 c 128,-1,17
 124 210 124 210 118 223.5 c 128,-1,18
 112 237 112 237 111 253.5 c 128,-1,19
 110 270 110 270 113 287 c 0,20,21
 117 307 117 307 128.5 328 c 128,-1,22
 140 349 140 349 157.5 366.5 c 128,-1,23
 175 384 175 384 197.5 395.5 c 128,-1,24
 220 407 220 407 246 407 c 2,25,-1
 253 407 l 2,26,27
 268 407 268 407 281.5 401 c 128,-1,28
 295 395 295 395 304 385.5 c 128,-1,29
 313 376 313 376 317 363 c 128,-1,30
 321 350 321 350 318 337 c 0,31,32
 315 322 315 322 305.5 309.5 c 128,-1,33
 296 297 296 297 283 287 c 128,-1,34
 270 277 270 277 254.5 271.5 c 128,-1,35
 239 266 239 266 223 266 c 0,36,37
 211 266 211 266 195.5 271.5 c 128,-1,38
 180 277 180 277 172 294 c 1,39,40
 166 268 166 268 177 252.5 c 128,-1,41
 188 237 188 237 206.5 229 c 128,-1,42
 225 221 225 221 248 218.5 c 128,-1,43
 271 216 271 216 289 216 c 1,44,-1
 277 159 l 1,45,46
 228 159 228 159 195.5 144 c 128,-1,47
 163 129 163 129 157 99 c 2,48,-1
 147 55 l 1,49,-1
 298 55 l 2,50,51
 314 55 314 55 329 69.5 c 128,-1,52
 344 84 344 84 348 102 c 2,53,-1
 413 407 l 1,54,-1
 487 407 l 1,55,-1
 422 102 l 2,0,1
203 338 m 0,56,57
 200 323 200 323 208.5 312.5 c 128,-1,58
 217 302 217 302 232 302 c 256,59,60
 247 302 247 302 259.5 312.5 c 128,-1,61
 272 323 272 323 275 338 c 0,62,63
 279 353 279 353 270.5 363.5 c 128,-1,64
 262 374 262 374 247 374 c 256,65,66
 232 374 232 374 219.5 363.5 c 128,-1,67
 207 353 207 353 203 338 c 0,56,57
EndSplineSet
EndChar
StartChar: uni0E23
Encoding: 3619 3619 246
Width: 388
Flags: W
Fore
274 138 m 1,0,-1
 287 202 l 1,1,2
 254 222 254 222 199 237.5 c 128,-1,3
 144 253 144 253 77 264 c 1,4,5
 82 291 82 291 99 322.5 c 128,-1,6
 116 354 116 354 142 374 c 0,7,8
 186 406 186 406 238 406 c 0,9,10
 258 406 258 406 275 400.5 c 128,-1,11
 292 395 292 395 307 390 c 1,12,13
 319 384 319 384 331 379.5 c 128,-1,14
 343 375 343 375 354 374 c 1,15,16
 380 376 380 376 449 431 c 1,17,-1
 450 376 l 1,18,19
 440 365 440 365 426.5 355 c 128,-1,20
 413 345 413 345 398.5 337.5 c 128,-1,21
 384 330 384 330 370 325 c 128,-1,22
 356 320 356 320 344 320 c 0,23,24
 324 322 324 322 309.5 325.5 c 128,-1,25
 295 329 295 329 281 334 c 0,26,27
 266 340 266 340 251.5 344.5 c 128,-1,28
 237 349 237 349 222 350 c 1,29,30
 202 348 202 348 184.5 336 c 128,-1,31
 167 324 167 324 157 305 c 1,32,33
 213 297 213 297 261.5 279 c 128,-1,34
 310 261 310 261 358 232 c 1,35,-1
 323 69 l 2,36,37
 320 55 320 55 311.5 43 c 128,-1,38
 303 31 303 31 290.5 21 c 128,-1,39
 278 11 278 11 263 5.5 c 128,-1,40
 248 0 248 0 233 0 c 0,41,42
 202 0 202 0 185 21 c 128,-1,43
 168 42 168 42 173 69 c 0,44,45
 176 82 176 82 184.5 94.5 c 128,-1,46
 193 107 193 107 205.5 116.5 c 128,-1,47
 218 126 218 126 232.5 132 c 128,-1,48
 247 138 247 138 262 138 c 2,49,-1
 274 138 l 1,0,-1
211 69 m 256,50,51
 208 54 208 54 216.5 43.5 c 128,-1,52
 225 33 225 33 240 33 c 256,53,54
 255 33 255 33 267.5 43.5 c 128,-1,55
 280 54 280 54 283 69 c 256,56,57
 286 84 286 84 278 94.5 c 128,-1,58
 270 105 270 105 255 105 c 256,59,60
 240 105 240 105 227 94.5 c 128,-1,61
 214 84 214 84 211 69 c 256,50,51
EndSplineSet
EndChar
StartChar: uni0E24
Encoding: 3620 3620 247
Width: 427
Flags: W
Fore
339 407 m 2,0,1
 361 407 361 407 380 398 c 128,-1,2
 399 389 399 389 412.5 374.5 c 128,-1,3
 426 360 426 360 431.5 340.5 c 128,-1,4
 437 321 437 321 433 300 c 2,5,-1
 335 -163 l 1,6,-1
 263 -163 l 1,7,-1
 361 300 l 2,8,9
 366 320 366 320 355 336 c 128,-1,10
 344 352 344 352 327 352 c 2,11,-1
 263 352 l 2,12,13
 250 352 250 352 235 346.5 c 128,-1,14
 220 341 220 341 205.5 331.5 c 128,-1,15
 191 322 191 322 178.5 310 c 128,-1,16
 166 298 166 298 158 286 c 1,17,18
 178 275 178 275 184 252 c 128,-1,19
 190 229 190 229 186 211 c 2,20,-1
 171 141 l 1,21,-1
 177 141 l 2,22,23
 192 141 192 141 205 135 c 128,-1,24
 218 129 218 129 227 119 c 128,-1,25
 236 109 236 109 240.5 96.5 c 128,-1,26
 245 84 245 84 242 71 c 0,27,28
 239 56 239 56 229.5 43.5 c 128,-1,29
 220 31 220 31 207.5 21 c 128,-1,30
 195 11 195 11 179.5 5.5 c 128,-1,31
 164 0 164 0 148 0 c 0,32,33
 134 0 134 0 121.5 4.5 c 128,-1,34
 109 9 109 9 99.5 16.5 c 128,-1,35
 90 24 90 24 84.5 35 c 128,-1,36
 79 46 79 46 80 58 c 2,37,-1
 113 212 l 2,38,39
 116 229 116 229 106 243 c 128,-1,40
 96 257 96 257 78 259 c 1,41,42
 87 290 87 290 108 317 c 128,-1,43
 129 344 129 344 156 364 c 128,-1,44
 183 384 183 384 214.5 395.5 c 128,-1,45
 246 407 246 407 278 407 c 2,46,-1
 339 407 l 2,0,1
127 71 m 0,47,48
 123 56 123 56 131.5 45.5 c 128,-1,49
 140 35 140 35 155 35 c 256,50,51
 170 35 170 35 182.5 45.5 c 128,-1,52
 195 56 195 56 199 71 c 0,53,54
 202 86 202 86 193.5 96.5 c 128,-1,55
 185 107 185 107 170 107 c 256,56,57
 155 107 155 107 142.5 96.5 c 128,-1,58
 130 86 130 86 127 71 c 0,47,48
EndSplineSet
EndChar
StartChar: uni0E25
Encoding: 3621 3621 248
Width: 433
Flags: W
Fore
376 0 m 1,0,-1
 302 0 l 1,1,-1
 328 124 l 2,2,3
 330 141 330 141 325.5 156.5 c 128,-1,4
 321 172 321 172 311.5 184 c 128,-1,5
 302 196 302 196 288 203.5 c 128,-1,6
 274 211 274 211 258 211 c 0,7,8
 244 211 244 211 228.5 206 c 128,-1,9
 213 201 213 201 198.5 192 c 128,-1,10
 184 183 184 183 172 170 c 128,-1,11
 160 157 160 157 154 142 c 1,12,-1
 160 142 l 2,13,14
 190 142 190 142 207.5 121 c 128,-1,15
 225 100 225 100 219 71 c 0,16,17
 213 43 213 43 187 21.5 c 128,-1,18
 161 0 161 0 130 0 c 256,19,20
 99 0 99 0 80.5 21 c 128,-1,21
 62 42 62 42 65 68 c 0,22,23
 67 84 67 84 70 97 c 0,24,25
 77 131 77 131 96.5 162.5 c 128,-1,26
 116 194 116 194 144 218 c 128,-1,27
 172 242 172 242 205 256.5 c 128,-1,28
 238 271 238 271 272 271 c 0,29,30
 298 271 298 271 323.5 260 c 128,-1,31
 349 249 349 249 356 228 c 1,32,-1
 371 299 l 2,33,34
 375 317 375 317 363.5 334.5 c 128,-1,35
 352 352 352 352 334 352 c 2,36,-1
 268 352 l 2,37,38
 250 352 250 352 230.5 343 c 128,-1,39
 211 334 211 334 193.5 320 c 128,-1,40
 176 306 176 306 163.5 289 c 128,-1,41
 151 272 151 272 147 257 c 1,42,-1
 80 257 l 1,43,44
 85 280 85 280 103.5 306 c 128,-1,45
 122 332 122 332 149.5 354.5 c 128,-1,46
 177 377 177 377 210.5 392 c 128,-1,47
 244 407 244 407 280 407 c 2,48,-1
 346 407 l 2,49,50
 370 407 370 407 389.5 398.5 c 128,-1,51
 409 390 409 390 421.5 375.5 c 128,-1,52
 434 361 434 361 438.5 341 c 128,-1,53
 443 321 443 321 439 299 c 2,54,-1
 376 0 l 1,0,-1
109 71 m 0,55,56
 105 56 105 56 113.5 45.5 c 128,-1,57
 122 35 122 35 137 35 c 256,58,59
 152 35 152 35 164.5 45.5 c 128,-1,60
 177 56 177 56 181 71 c 0,61,62
 184 86 184 86 175.5 96.5 c 128,-1,63
 167 107 167 107 152 107 c 256,64,65
 137 107 137 107 124.5 96.5 c 128,-1,66
 112 86 112 86 109 71 c 0,55,56
EndSplineSet
EndChar
